%TF.GenerationSoftware,KiCad,Pcbnew,(6.0.7)*%
%TF.CreationDate,2023-05-14T18:18:18-04:00*%
%TF.ProjectId,12V_Plus_Minus_5MHz_Amplifier,3132565f-506c-4757-935f-4d696e75735f,rev?*%
%TF.SameCoordinates,Original*%
%TF.FileFunction,Copper,L1,Top*%
%TF.FilePolarity,Positive*%
%FSLAX46Y46*%
G04 Gerber Fmt 4.6, Leading zero omitted, Abs format (unit mm)*
G04 Created by KiCad (PCBNEW (6.0.7)) date 2023-05-14 18:18:18*
%MOMM*%
%LPD*%
G01*
G04 APERTURE LIST*
%TA.AperFunction,ComponentPad*%
%ADD10R,2.400000X2.400000*%
%TD*%
%TA.AperFunction,ComponentPad*%
%ADD11C,2.400000*%
%TD*%
%TA.AperFunction,ComponentPad*%
%ADD12O,1.600000X1.600000*%
%TD*%
%TA.AperFunction,ComponentPad*%
%ADD13C,1.600000*%
%TD*%
%TA.AperFunction,ComponentPad*%
%ADD14R,1.500000X1.050000*%
%TD*%
%TA.AperFunction,ComponentPad*%
%ADD15O,1.500000X1.050000*%
%TD*%
%TA.AperFunction,ComponentPad*%
%ADD16C,1.200000*%
%TD*%
%TA.AperFunction,Conductor*%
%ADD17C,0.250000*%
%TD*%
G04 APERTURE END LIST*
D10*
%TO.P,J1,1,Pin_1*%
%TO.N,/VEE*%
X191670000Y-141140000D03*
D11*
%TO.P,J1,2,Pin_2*%
%TO.N,GND*%
X191670000Y-137640000D03*
%TO.P,J1,3,Pin_3*%
%TO.N,/IN*%
X191670000Y-134140000D03*
%TO.P,J1,4,Pin_4*%
%TO.N,/VCC*%
X191670000Y-130640000D03*
%TD*%
D12*
%TO.P,R7,2*%
%TO.N,Net-(Q3-Pad1)*%
X227230000Y-138600000D03*
D13*
%TO.P,R7,1*%
%TO.N,Net-(Q1-Pad1)*%
X219610000Y-138600000D03*
%TD*%
D14*
%TO.P,Q7,1,E*%
%TO.N,Net-(Q7-Pad1)*%
X252730000Y-115740000D03*
D15*
%TO.P,Q7,2,B*%
%TO.N,Net-(Q5-Pad2)*%
X252730000Y-114470000D03*
%TO.P,Q7,3,C*%
%TO.N,/VCC*%
X252730000Y-113200000D03*
%TD*%
D12*
%TO.P,R9,2*%
%TO.N,/VEE*%
X231040000Y-156380000D03*
D13*
%TO.P,R9,1*%
%TO.N,Net-(Q4-Pad3)*%
X231040000Y-148760000D03*
%TD*%
%TO.P,R13,1*%
%TO.N,Net-(R12-Pad2)*%
X252730000Y-141140000D03*
D12*
%TO.P,R13,2*%
%TO.N,Net-(Q8-Pad1)*%
X252730000Y-148760000D03*
%TD*%
D13*
%TO.P,C2,2*%
%TO.N,GND*%
X200660000Y-118240000D03*
%TO.P,C2,1*%
%TO.N,/VCC*%
X200660000Y-113240000D03*
%TD*%
%TO.P,C3,1*%
%TO.N,GND*%
X193040000Y-152570000D03*
%TO.P,C3,2*%
%TO.N,/VEE*%
X193040000Y-154570000D03*
%TD*%
D12*
%TO.P,R3,2*%
%TO.N,Net-(Q1-Pad3)*%
X213260000Y-120820000D03*
D13*
%TO.P,R3,1*%
%TO.N,/VCC*%
X213260000Y-113200000D03*
%TD*%
D14*
%TO.P,Q8,1,E*%
%TO.N,Net-(Q8-Pad1)*%
X252730000Y-153840000D03*
D15*
%TO.P,Q8,2,B*%
%TO.N,Net-(Q6-Pad2)*%
X252730000Y-155110000D03*
%TO.P,Q8,3,C*%
%TO.N,/VEE*%
X252730000Y-156380000D03*
%TD*%
D12*
%TO.P,R1,2*%
%TO.N,Net-(Q1-Pad2)*%
X205740000Y-134000000D03*
D13*
%TO.P,R1,1*%
%TO.N,/IN*%
X198120000Y-134000000D03*
%TD*%
%TO.P,C4,2*%
%TO.N,GND*%
X200660000Y-151380000D03*
%TO.P,C4,1*%
%TO.N,/VEE*%
X200660000Y-156380000D03*
%TD*%
%TO.P,C1,1*%
%TO.N,/VCC*%
X193040000Y-114470000D03*
%TO.P,C1,2*%
%TO.N,GND*%
X193040000Y-116470000D03*
%TD*%
D12*
%TO.P,R15,2*%
%TO.N,GND*%
X260350000Y-146220000D03*
D13*
%TO.P,R15,1*%
%TO.N,Net-(R14-Pad2)*%
X260350000Y-138600000D03*
%TD*%
%TO.P,R14,1*%
%TO.N,Net-(R12-Pad2)*%
X252730000Y-134790000D03*
D12*
%TO.P,R14,2*%
%TO.N,Net-(R14-Pad2)*%
X260350000Y-134790000D03*
%TD*%
%TO.P,R4,2*%
%TO.N,GND*%
X209450000Y-152570000D03*
D13*
%TO.P,R4,1*%
%TO.N,Net-(Q2-Pad2)*%
X209450000Y-144950000D03*
%TD*%
%TO.P,R12,1*%
%TO.N,Net-(Q7-Pad1)*%
X252730000Y-120820000D03*
D12*
%TO.P,R12,2*%
%TO.N,Net-(R12-Pad2)*%
X252730000Y-128440000D03*
%TD*%
D15*
%TO.P,Q4,3,C*%
%TO.N,Net-(Q4-Pad3)*%
X231140000Y-127000000D03*
%TO.P,Q4,2,B*%
%TO.N,Net-(Q1-Pad3)*%
X231140000Y-125730000D03*
D14*
%TO.P,Q4,1,E*%
%TO.N,Net-(C5-Pad2)*%
X231140000Y-124460000D03*
%TD*%
%TO.P,Q6,1,E*%
%TO.N,Net-(Q4-Pad3)*%
X243840000Y-142240000D03*
D15*
%TO.P,Q6,2,B*%
%TO.N,Net-(Q6-Pad2)*%
X243840000Y-143510000D03*
%TO.P,Q6,3,C*%
X243840000Y-144780000D03*
%TD*%
%TO.P,Q3,3,C*%
%TO.N,/VCC*%
X227230000Y-132730000D03*
%TO.P,Q3,2,B*%
%TO.N,GND*%
X227230000Y-134000000D03*
D14*
%TO.P,Q3,1,E*%
%TO.N,Net-(Q3-Pad1)*%
X227230000Y-135270000D03*
%TD*%
D15*
%TO.P,Q5,3,C*%
%TO.N,Net-(Q5-Pad2)*%
X243840000Y-124460000D03*
%TO.P,Q5,2,B*%
X243840000Y-125730000D03*
D14*
%TO.P,Q5,1,E*%
%TO.N,Net-(Q4-Pad3)*%
X243840000Y-127000000D03*
%TD*%
D12*
%TO.P,R5,2*%
%TO.N,/VEE*%
X214530000Y-156380000D03*
D13*
%TO.P,R5,1*%
%TO.N,Net-(Q2-Pad2)*%
X214530000Y-148760000D03*
%TD*%
D16*
%TO.P,C5,2*%
%TO.N,Net-(C5-Pad2)*%
X237490000Y-118510000D03*
%TO.P,C5,1*%
%TO.N,GND*%
X237490000Y-117010000D03*
%TD*%
D13*
%TO.P,R10,1*%
%TO.N,/VCC*%
X243840000Y-113200000D03*
D12*
%TO.P,R10,2*%
%TO.N,Net-(Q5-Pad2)*%
X243840000Y-120820000D03*
%TD*%
%TO.P,R2,2*%
%TO.N,Net-(R12-Pad2)*%
X205740000Y-146220000D03*
D13*
%TO.P,R2,1*%
%TO.N,Net-(Q1-Pad2)*%
X205740000Y-138600000D03*
%TD*%
D15*
%TO.P,Q2,3,C*%
%TO.N,Net-(Q1-Pad1)*%
X219610000Y-142890000D03*
%TO.P,Q2,2,B*%
%TO.N,Net-(Q2-Pad2)*%
X219610000Y-144160000D03*
D14*
%TO.P,Q2,1,E*%
%TO.N,Net-(Q2-Pad1)*%
X219610000Y-145430000D03*
%TD*%
D13*
%TO.P,R11,1*%
%TO.N,Net-(Q6-Pad2)*%
X243840000Y-148760000D03*
D12*
%TO.P,R11,2*%
%TO.N,/VEE*%
X243840000Y-156380000D03*
%TD*%
D15*
%TO.P,Q1,3,C*%
%TO.N,Net-(Q1-Pad3)*%
X213260000Y-132730000D03*
%TO.P,Q1,2,B*%
%TO.N,Net-(Q1-Pad2)*%
X213260000Y-134000000D03*
D14*
%TO.P,Q1,1,E*%
%TO.N,Net-(Q1-Pad1)*%
X213260000Y-135270000D03*
%TD*%
D12*
%TO.P,R6,2*%
%TO.N,/VEE*%
X219610000Y-156380000D03*
D13*
%TO.P,R6,1*%
%TO.N,Net-(Q2-Pad1)*%
X219610000Y-148760000D03*
%TD*%
D12*
%TO.P,R8,2*%
%TO.N,Net-(C5-Pad2)*%
X231040000Y-120820000D03*
D13*
%TO.P,R8,1*%
%TO.N,/VCC*%
X231040000Y-113200000D03*
%TD*%
D17*
%TO.N,/IN*%
X198120000Y-134000000D02*
X191810000Y-134000000D01*
X191810000Y-134000000D02*
X191670000Y-134140000D01*
%TO.N,/VCC*%
X190600000Y-115570000D02*
X191700000Y-114470000D01*
X190600000Y-129570000D02*
X190600000Y-115570000D01*
X191670000Y-130640000D02*
X190600000Y-129570000D01*
X191700000Y-114470000D02*
X193040000Y-114470000D01*
%TO.N,/VEE*%
X190500000Y-153670000D02*
X191400000Y-154570000D01*
X190500000Y-142240000D02*
X190500000Y-153670000D01*
X191400000Y-154570000D02*
X193040000Y-154570000D01*
X191600000Y-141140000D02*
X190500000Y-142240000D01*
X191670000Y-141140000D02*
X191600000Y-141140000D01*
%TO.N,Net-(Q4-Pad3)*%
X231140000Y-127000000D02*
X243840000Y-127000000D01*
%TO.N,Net-(Q5-Pad2)*%
X243840000Y-124460000D02*
X243840000Y-120820000D01*
X243840000Y-125730000D02*
X243840000Y-124460000D01*
%TO.N,/VCC*%
X231040000Y-113200000D02*
X243840000Y-113200000D01*
%TO.N,/VEE*%
X231040000Y-156380000D02*
X243840000Y-156380000D01*
%TO.N,Net-(C5-Pad2)*%
X231040000Y-120820000D02*
X235180000Y-120820000D01*
X235180000Y-120820000D02*
X237490000Y-118510000D01*
%TO.N,/VCC*%
X213220000Y-113240000D02*
X213260000Y-113200000D01*
X200660000Y-113240000D02*
X213220000Y-113240000D01*
%TO.N,/VEE*%
X200660000Y-156380000D02*
X214530000Y-156380000D01*
%TO.N,Net-(Q1-Pad2)*%
X205740000Y-134000000D02*
X213260000Y-134000000D01*
%TO.N,/VCC*%
X199430000Y-114470000D02*
X200660000Y-113240000D01*
X193040000Y-114470000D02*
X199430000Y-114470000D01*
%TO.N,/VEE*%
X193040000Y-154570000D02*
X198850000Y-154570000D01*
%TO.N,Net-(R14-Pad2)*%
X260350000Y-138600000D02*
X260350000Y-134790000D01*
%TO.N,Net-(Q6-Pad2)*%
X243840000Y-144780000D02*
X243840000Y-148760000D01*
X243840000Y-143510000D02*
X243840000Y-144780000D01*
%TO.N,/VCC*%
X210720000Y-113200000D02*
X231040000Y-113200000D01*
%TO.N,/VEE*%
X217070000Y-156380000D02*
X231040000Y-156380000D01*
%TO.N,Net-(Q4-Pad3)*%
X243840000Y-142240000D02*
X243840000Y-127170000D01*
%TO.N,/VCC*%
X227230000Y-132730000D02*
X227230000Y-113200000D01*
X243840000Y-113200000D02*
X252730000Y-113200000D01*
%TO.N,/VEE*%
X214530000Y-156380000D02*
X219610000Y-156380000D01*
X198850000Y-154570000D02*
X200660000Y-156380000D01*
X243840000Y-156380000D02*
X252730000Y-156380000D01*
%TO.N,Net-(C5-Pad2)*%
X231040000Y-120820000D02*
X231040000Y-124630000D01*
%TO.N,Net-(Q7-Pad1)*%
X252730000Y-115740000D02*
X252730000Y-120820000D01*
%TO.N,Net-(Q5-Pad2)*%
X252730000Y-114470000D02*
X250190000Y-114470000D01*
X250190000Y-114470000D02*
X243840000Y-120820000D01*
%TO.N,Net-(Q1-Pad1)*%
X213260000Y-135270000D02*
X213260000Y-137330000D01*
X219610000Y-142890000D02*
X219610000Y-138600000D01*
X214530000Y-138600000D02*
X219610000Y-138600000D01*
X213260000Y-137330000D02*
X214530000Y-138600000D01*
%TO.N,Net-(Q1-Pad2)*%
X205740000Y-134000000D02*
X205740000Y-138600000D01*
%TO.N,Net-(Q6-Pad2)*%
X252730000Y-155110000D02*
X250190000Y-155110000D01*
X250190000Y-155110000D02*
X243840000Y-148760000D01*
%TO.N,Net-(Q2-Pad1)*%
X219610000Y-145430000D02*
X219610000Y-148760000D01*
%TO.N,Net-(Q2-Pad2)*%
X214530000Y-148760000D02*
X214530000Y-145910000D01*
X209450000Y-144950000D02*
X210240000Y-144160000D01*
X214530000Y-145910000D02*
X216280000Y-144160000D01*
X210240000Y-144160000D02*
X216280000Y-144160000D01*
X216280000Y-144160000D02*
X219610000Y-144160000D01*
%TO.N,Net-(Q8-Pad1)*%
X252730000Y-148760000D02*
X252730000Y-153840000D01*
%TO.N,Net-(R12-Pad2)*%
X252730000Y-128440000D02*
X252730000Y-134790000D01*
X252730000Y-141140000D02*
X252730000Y-134790000D01*
%TO.N,Net-(Q3-Pad1)*%
X227230000Y-138600000D02*
X227230000Y-135270000D01*
%TO.N,Net-(Q1-Pad3)*%
X213260000Y-120820000D02*
X213260000Y-132730000D01*
%TO.N,Net-(Q4-Pad3)*%
X231040000Y-127170000D02*
X231040000Y-148760000D01*
%TD*%
%TA.AperFunction,Conductor*%
%TO.N,GND*%
G36*
X263593621Y-109748502D02*
G01*
X263640114Y-109802158D01*
X263651500Y-109854500D01*
X263651500Y-159385500D01*
X263631498Y-159453621D01*
X263577842Y-159500114D01*
X263525500Y-159511500D01*
X187324500Y-159511500D01*
X187256379Y-159491498D01*
X187209886Y-159437842D01*
X187198500Y-159385500D01*
X187198500Y-157534568D01*
X187667382Y-157534568D01*
X187696208Y-157783699D01*
X187697587Y-157788573D01*
X187697588Y-157788577D01*
X187736526Y-157926181D01*
X187764494Y-158025017D01*
X187766628Y-158029592D01*
X187766630Y-158029599D01*
X187868347Y-158247731D01*
X187870484Y-158252313D01*
X187873326Y-158256494D01*
X187873326Y-158256495D01*
X188008605Y-158455552D01*
X188008608Y-158455556D01*
X188011451Y-158459739D01*
X188014928Y-158463416D01*
X188014929Y-158463417D01*
X188115238Y-158569491D01*
X188183767Y-158641959D01*
X188187793Y-158645037D01*
X188187794Y-158645038D01*
X188378981Y-158791212D01*
X188378985Y-158791215D01*
X188383001Y-158794285D01*
X188604026Y-158912797D01*
X188608807Y-158914443D01*
X188608811Y-158914445D01*
X188834538Y-158992169D01*
X188841156Y-158994448D01*
X188944689Y-159012331D01*
X189084380Y-159036460D01*
X189084386Y-159036461D01*
X189088290Y-159037135D01*
X189092251Y-159037315D01*
X189092252Y-159037315D01*
X189116931Y-159038436D01*
X189116950Y-159038436D01*
X189118350Y-159038500D01*
X189293015Y-159038500D01*
X189295523Y-159038298D01*
X189295528Y-159038298D01*
X189474944Y-159023863D01*
X189474949Y-159023862D01*
X189479985Y-159023457D01*
X189484893Y-159022252D01*
X189484896Y-159022251D01*
X189718625Y-158964841D01*
X189723539Y-158963634D01*
X189728191Y-158961659D01*
X189728195Y-158961658D01*
X189949741Y-158867617D01*
X189949742Y-158867617D01*
X189954396Y-158865641D01*
X190166615Y-158732000D01*
X190354738Y-158566147D01*
X190513924Y-158372351D01*
X190640078Y-158155596D01*
X190729955Y-157921461D01*
X190781241Y-157675967D01*
X190783978Y-157615707D01*
X190787662Y-157534568D01*
X190792618Y-157425432D01*
X190791238Y-157413500D01*
X190770343Y-157232922D01*
X190763792Y-157176301D01*
X190746981Y-157116890D01*
X190696884Y-156939852D01*
X190696883Y-156939850D01*
X190695506Y-156934983D01*
X190693372Y-156930408D01*
X190693370Y-156930401D01*
X190591653Y-156712269D01*
X190591651Y-156712265D01*
X190589516Y-156707687D01*
X190521828Y-156608087D01*
X190451395Y-156504448D01*
X190451392Y-156504444D01*
X190448549Y-156500261D01*
X190347925Y-156393853D01*
X190279713Y-156321721D01*
X190276233Y-156318041D01*
X190272206Y-156314962D01*
X190081019Y-156168788D01*
X190081015Y-156168785D01*
X190076999Y-156165715D01*
X189932917Y-156088459D01*
X189860435Y-156049595D01*
X189855974Y-156047203D01*
X189851193Y-156045557D01*
X189851189Y-156045555D01*
X189623633Y-155967201D01*
X189618844Y-155965552D01*
X189515311Y-155947669D01*
X189375620Y-155923540D01*
X189375614Y-155923539D01*
X189371710Y-155922865D01*
X189367749Y-155922685D01*
X189367748Y-155922685D01*
X189343069Y-155921564D01*
X189343050Y-155921564D01*
X189341650Y-155921500D01*
X189166985Y-155921500D01*
X189164477Y-155921702D01*
X189164472Y-155921702D01*
X188985056Y-155936137D01*
X188985051Y-155936138D01*
X188980015Y-155936543D01*
X188975107Y-155937748D01*
X188975104Y-155937749D01*
X188780654Y-155985511D01*
X188736461Y-155996366D01*
X188731809Y-155998341D01*
X188731805Y-155998342D01*
X188510259Y-156092383D01*
X188505604Y-156094359D01*
X188293385Y-156228000D01*
X188105262Y-156393853D01*
X187946076Y-156587649D01*
X187819922Y-156804404D01*
X187818109Y-156809127D01*
X187818108Y-156809129D01*
X187771556Y-156930401D01*
X187730045Y-157038539D01*
X187729012Y-157043485D01*
X187729010Y-157043491D01*
X187712863Y-157120785D01*
X187678759Y-157284033D01*
X187678530Y-157289082D01*
X187678529Y-157289088D01*
X187674120Y-157386198D01*
X187667382Y-157534568D01*
X187198500Y-157534568D01*
X187198500Y-142219943D01*
X189861780Y-142219943D01*
X189862526Y-142227835D01*
X189865941Y-142263961D01*
X189866500Y-142275819D01*
X189866500Y-153591233D01*
X189865973Y-153602416D01*
X189864298Y-153609909D01*
X189864547Y-153617835D01*
X189864547Y-153617836D01*
X189866438Y-153677986D01*
X189866500Y-153681945D01*
X189866500Y-153709856D01*
X189866997Y-153713790D01*
X189866997Y-153713791D01*
X189867005Y-153713856D01*
X189867938Y-153725693D01*
X189869327Y-153769889D01*
X189874978Y-153789339D01*
X189878987Y-153808700D01*
X189881526Y-153828797D01*
X189884445Y-153836168D01*
X189884445Y-153836170D01*
X189897804Y-153869912D01*
X189901649Y-153881142D01*
X189913982Y-153923593D01*
X189918015Y-153930412D01*
X189918017Y-153930417D01*
X189924293Y-153941028D01*
X189932988Y-153958776D01*
X189940448Y-153977617D01*
X189945110Y-153984033D01*
X189945110Y-153984034D01*
X189966436Y-154013387D01*
X189972952Y-154023307D01*
X189990758Y-154053414D01*
X189995458Y-154061362D01*
X190009779Y-154075683D01*
X190022619Y-154090716D01*
X190034528Y-154107107D01*
X190068605Y-154135298D01*
X190077384Y-154143288D01*
X190896343Y-154962247D01*
X190903887Y-154970537D01*
X190908000Y-154977018D01*
X190913777Y-154982443D01*
X190957667Y-155023658D01*
X190960509Y-155026413D01*
X190980230Y-155046134D01*
X190983425Y-155048612D01*
X190992447Y-155056318D01*
X191024679Y-155086586D01*
X191031628Y-155090406D01*
X191042432Y-155096346D01*
X191058956Y-155107199D01*
X191074959Y-155119613D01*
X191115543Y-155137176D01*
X191126173Y-155142383D01*
X191164940Y-155163695D01*
X191172617Y-155165666D01*
X191172622Y-155165668D01*
X191184558Y-155168732D01*
X191203266Y-155175137D01*
X191221855Y-155183181D01*
X191229683Y-155184421D01*
X191229690Y-155184423D01*
X191265524Y-155190099D01*
X191277144Y-155192505D01*
X191312289Y-155201528D01*
X191319970Y-155203500D01*
X191340224Y-155203500D01*
X191359934Y-155205051D01*
X191379943Y-155208220D01*
X191387835Y-155207474D01*
X191423961Y-155204059D01*
X191435819Y-155203500D01*
X191820606Y-155203500D01*
X191888727Y-155223502D01*
X191923819Y-155257229D01*
X192030643Y-155409789D01*
X192033802Y-155414300D01*
X192195700Y-155576198D01*
X192200208Y-155579355D01*
X192200211Y-155579357D01*
X192267661Y-155626586D01*
X192383251Y-155707523D01*
X192388233Y-155709846D01*
X192388238Y-155709849D01*
X192585775Y-155801961D01*
X192590757Y-155804284D01*
X192596065Y-155805706D01*
X192596067Y-155805707D01*
X192806598Y-155862119D01*
X192806600Y-155862119D01*
X192811913Y-155863543D01*
X193040000Y-155883498D01*
X193268087Y-155863543D01*
X193273400Y-155862119D01*
X193273402Y-155862119D01*
X193483933Y-155805707D01*
X193483935Y-155805706D01*
X193489243Y-155804284D01*
X193494225Y-155801961D01*
X193691762Y-155709849D01*
X193691767Y-155709846D01*
X193696749Y-155707523D01*
X193812339Y-155626586D01*
X193879789Y-155579357D01*
X193879792Y-155579355D01*
X193884300Y-155576198D01*
X194046198Y-155414300D01*
X194049357Y-155409789D01*
X194156181Y-155257229D01*
X194211638Y-155212901D01*
X194259394Y-155203500D01*
X198535406Y-155203500D01*
X198603527Y-155223502D01*
X198624501Y-155240405D01*
X199350848Y-155966752D01*
X199384874Y-156029064D01*
X199383459Y-156088459D01*
X199367882Y-156146591D01*
X199367880Y-156146602D01*
X199366457Y-156151913D01*
X199346502Y-156380000D01*
X199366457Y-156608087D01*
X199367881Y-156613400D01*
X199367881Y-156613402D01*
X199414626Y-156787853D01*
X199425716Y-156829243D01*
X199428039Y-156834224D01*
X199428039Y-156834225D01*
X199520151Y-157031762D01*
X199520154Y-157031767D01*
X199522477Y-157036749D01*
X199581320Y-157120785D01*
X199620193Y-157176301D01*
X199653802Y-157224300D01*
X199815700Y-157386198D01*
X199820208Y-157389355D01*
X199820211Y-157389357D01*
X199854130Y-157413107D01*
X200003251Y-157517523D01*
X200008233Y-157519846D01*
X200008238Y-157519849D01*
X200205775Y-157611961D01*
X200210757Y-157614284D01*
X200216065Y-157615706D01*
X200216067Y-157615707D01*
X200426598Y-157672119D01*
X200426600Y-157672119D01*
X200431913Y-157673543D01*
X200660000Y-157693498D01*
X200888087Y-157673543D01*
X200893400Y-157672119D01*
X200893402Y-157672119D01*
X201103933Y-157615707D01*
X201103935Y-157615706D01*
X201109243Y-157614284D01*
X201114225Y-157611961D01*
X201311762Y-157519849D01*
X201311767Y-157519846D01*
X201316749Y-157517523D01*
X201465870Y-157413107D01*
X201499789Y-157389357D01*
X201499792Y-157389355D01*
X201504300Y-157386198D01*
X201666198Y-157224300D01*
X201669357Y-157219789D01*
X201776181Y-157067229D01*
X201831638Y-157022901D01*
X201879394Y-157013500D01*
X213310606Y-157013500D01*
X213378727Y-157033502D01*
X213413819Y-157067229D01*
X213520643Y-157219789D01*
X213523802Y-157224300D01*
X213685700Y-157386198D01*
X213690208Y-157389355D01*
X213690211Y-157389357D01*
X213724130Y-157413107D01*
X213873251Y-157517523D01*
X213878233Y-157519846D01*
X213878238Y-157519849D01*
X214075775Y-157611961D01*
X214080757Y-157614284D01*
X214086065Y-157615706D01*
X214086067Y-157615707D01*
X214296598Y-157672119D01*
X214296600Y-157672119D01*
X214301913Y-157673543D01*
X214530000Y-157693498D01*
X214758087Y-157673543D01*
X214763400Y-157672119D01*
X214763402Y-157672119D01*
X214973933Y-157615707D01*
X214973935Y-157615706D01*
X214979243Y-157614284D01*
X214984225Y-157611961D01*
X215181762Y-157519849D01*
X215181767Y-157519846D01*
X215186749Y-157517523D01*
X215335870Y-157413107D01*
X215369789Y-157389357D01*
X215369792Y-157389355D01*
X215374300Y-157386198D01*
X215536198Y-157224300D01*
X215539357Y-157219789D01*
X215646181Y-157067229D01*
X215701638Y-157022901D01*
X215749394Y-157013500D01*
X218390606Y-157013500D01*
X218458727Y-157033502D01*
X218493819Y-157067229D01*
X218600643Y-157219789D01*
X218603802Y-157224300D01*
X218765700Y-157386198D01*
X218770208Y-157389355D01*
X218770211Y-157389357D01*
X218804130Y-157413107D01*
X218953251Y-157517523D01*
X218958233Y-157519846D01*
X218958238Y-157519849D01*
X219155775Y-157611961D01*
X219160757Y-157614284D01*
X219166065Y-157615706D01*
X219166067Y-157615707D01*
X219376598Y-157672119D01*
X219376600Y-157672119D01*
X219381913Y-157673543D01*
X219610000Y-157693498D01*
X219838087Y-157673543D01*
X219843400Y-157672119D01*
X219843402Y-157672119D01*
X220053933Y-157615707D01*
X220053935Y-157615706D01*
X220059243Y-157614284D01*
X220064225Y-157611961D01*
X220261762Y-157519849D01*
X220261767Y-157519846D01*
X220266749Y-157517523D01*
X220415870Y-157413107D01*
X220449789Y-157389357D01*
X220449792Y-157389355D01*
X220454300Y-157386198D01*
X220616198Y-157224300D01*
X220619357Y-157219789D01*
X220726181Y-157067229D01*
X220781638Y-157022901D01*
X220829394Y-157013500D01*
X229820606Y-157013500D01*
X229888727Y-157033502D01*
X229923819Y-157067229D01*
X230030643Y-157219789D01*
X230033802Y-157224300D01*
X230195700Y-157386198D01*
X230200208Y-157389355D01*
X230200211Y-157389357D01*
X230234130Y-157413107D01*
X230383251Y-157517523D01*
X230388233Y-157519846D01*
X230388238Y-157519849D01*
X230585775Y-157611961D01*
X230590757Y-157614284D01*
X230596065Y-157615706D01*
X230596067Y-157615707D01*
X230806598Y-157672119D01*
X230806600Y-157672119D01*
X230811913Y-157673543D01*
X231040000Y-157693498D01*
X231268087Y-157673543D01*
X231273400Y-157672119D01*
X231273402Y-157672119D01*
X231483933Y-157615707D01*
X231483935Y-157615706D01*
X231489243Y-157614284D01*
X231494225Y-157611961D01*
X231691762Y-157519849D01*
X231691767Y-157519846D01*
X231696749Y-157517523D01*
X231845870Y-157413107D01*
X231879789Y-157389357D01*
X231879792Y-157389355D01*
X231884300Y-157386198D01*
X232046198Y-157224300D01*
X232049357Y-157219789D01*
X232156181Y-157067229D01*
X232211638Y-157022901D01*
X232259394Y-157013500D01*
X242620606Y-157013500D01*
X242688727Y-157033502D01*
X242723819Y-157067229D01*
X242830643Y-157219789D01*
X242833802Y-157224300D01*
X242995700Y-157386198D01*
X243000208Y-157389355D01*
X243000211Y-157389357D01*
X243034130Y-157413107D01*
X243183251Y-157517523D01*
X243188233Y-157519846D01*
X243188238Y-157519849D01*
X243385775Y-157611961D01*
X243390757Y-157614284D01*
X243396065Y-157615706D01*
X243396067Y-157615707D01*
X243606598Y-157672119D01*
X243606600Y-157672119D01*
X243611913Y-157673543D01*
X243840000Y-157693498D01*
X244068087Y-157673543D01*
X244073400Y-157672119D01*
X244073402Y-157672119D01*
X244283933Y-157615707D01*
X244283935Y-157615706D01*
X244289243Y-157614284D01*
X244294225Y-157611961D01*
X244460197Y-157534568D01*
X260057382Y-157534568D01*
X260086208Y-157783699D01*
X260087587Y-157788573D01*
X260087588Y-157788577D01*
X260126526Y-157926181D01*
X260154494Y-158025017D01*
X260156628Y-158029592D01*
X260156630Y-158029599D01*
X260258347Y-158247731D01*
X260260484Y-158252313D01*
X260263326Y-158256494D01*
X260263326Y-158256495D01*
X260398605Y-158455552D01*
X260398608Y-158455556D01*
X260401451Y-158459739D01*
X260404928Y-158463416D01*
X260404929Y-158463417D01*
X260505238Y-158569491D01*
X260573767Y-158641959D01*
X260577793Y-158645037D01*
X260577794Y-158645038D01*
X260768981Y-158791212D01*
X260768985Y-158791215D01*
X260773001Y-158794285D01*
X260994026Y-158912797D01*
X260998807Y-158914443D01*
X260998811Y-158914445D01*
X261224538Y-158992169D01*
X261231156Y-158994448D01*
X261334689Y-159012331D01*
X261474380Y-159036460D01*
X261474386Y-159036461D01*
X261478290Y-159037135D01*
X261482251Y-159037315D01*
X261482252Y-159037315D01*
X261506931Y-159038436D01*
X261506950Y-159038436D01*
X261508350Y-159038500D01*
X261683015Y-159038500D01*
X261685523Y-159038298D01*
X261685528Y-159038298D01*
X261864944Y-159023863D01*
X261864949Y-159023862D01*
X261869985Y-159023457D01*
X261874893Y-159022252D01*
X261874896Y-159022251D01*
X262108625Y-158964841D01*
X262113539Y-158963634D01*
X262118191Y-158961659D01*
X262118195Y-158961658D01*
X262339741Y-158867617D01*
X262339742Y-158867617D01*
X262344396Y-158865641D01*
X262556615Y-158732000D01*
X262744738Y-158566147D01*
X262903924Y-158372351D01*
X263030078Y-158155596D01*
X263119955Y-157921461D01*
X263171241Y-157675967D01*
X263173978Y-157615707D01*
X263177662Y-157534568D01*
X263182618Y-157425432D01*
X263181238Y-157413500D01*
X263160343Y-157232922D01*
X263153792Y-157176301D01*
X263136981Y-157116890D01*
X263086884Y-156939852D01*
X263086883Y-156939850D01*
X263085506Y-156934983D01*
X263083372Y-156930408D01*
X263083370Y-156930401D01*
X262981653Y-156712269D01*
X262981651Y-156712265D01*
X262979516Y-156707687D01*
X262911828Y-156608087D01*
X262841395Y-156504448D01*
X262841392Y-156504444D01*
X262838549Y-156500261D01*
X262737925Y-156393853D01*
X262669713Y-156321721D01*
X262666233Y-156318041D01*
X262662206Y-156314962D01*
X262471019Y-156168788D01*
X262471015Y-156168785D01*
X262466999Y-156165715D01*
X262322917Y-156088459D01*
X262250435Y-156049595D01*
X262245974Y-156047203D01*
X262241193Y-156045557D01*
X262241189Y-156045555D01*
X262013633Y-155967201D01*
X262008844Y-155965552D01*
X261905311Y-155947669D01*
X261765620Y-155923540D01*
X261765614Y-155923539D01*
X261761710Y-155922865D01*
X261757749Y-155922685D01*
X261757748Y-155922685D01*
X261733069Y-155921564D01*
X261733050Y-155921564D01*
X261731650Y-155921500D01*
X261556985Y-155921500D01*
X261554477Y-155921702D01*
X261554472Y-155921702D01*
X261375056Y-155936137D01*
X261375051Y-155936138D01*
X261370015Y-155936543D01*
X261365107Y-155937748D01*
X261365104Y-155937749D01*
X261170654Y-155985511D01*
X261126461Y-155996366D01*
X261121809Y-155998341D01*
X261121805Y-155998342D01*
X260900259Y-156092383D01*
X260895604Y-156094359D01*
X260683385Y-156228000D01*
X260495262Y-156393853D01*
X260336076Y-156587649D01*
X260209922Y-156804404D01*
X260208109Y-156809127D01*
X260208108Y-156809129D01*
X260161556Y-156930401D01*
X260120045Y-157038539D01*
X260119012Y-157043485D01*
X260119010Y-157043491D01*
X260102863Y-157120785D01*
X260068759Y-157284033D01*
X260068530Y-157289082D01*
X260068529Y-157289088D01*
X260064120Y-157386198D01*
X260057382Y-157534568D01*
X244460197Y-157534568D01*
X244491762Y-157519849D01*
X244491767Y-157519846D01*
X244496749Y-157517523D01*
X244645870Y-157413107D01*
X244679789Y-157389357D01*
X244679792Y-157389355D01*
X244684300Y-157386198D01*
X244846198Y-157224300D01*
X244849357Y-157219789D01*
X244956181Y-157067229D01*
X245011638Y-157022901D01*
X245059394Y-157013500D01*
X251627794Y-157013500D01*
X251695915Y-157033502D01*
X251725990Y-157060547D01*
X251759158Y-157101800D01*
X251759163Y-157101805D01*
X251763019Y-157106601D01*
X251918281Y-157236881D01*
X251923673Y-157239845D01*
X251923677Y-157239848D01*
X252004050Y-157284033D01*
X252095891Y-157334523D01*
X252289084Y-157395807D01*
X252295201Y-157396493D01*
X252295205Y-157396494D01*
X252369348Y-157404810D01*
X252446817Y-157413500D01*
X253006004Y-157413500D01*
X253156713Y-157398723D01*
X253350742Y-157340142D01*
X253529698Y-157244990D01*
X253686763Y-157116890D01*
X253695275Y-157106601D01*
X253812027Y-156965472D01*
X253812029Y-156965469D01*
X253815956Y-156960722D01*
X253912356Y-156782435D01*
X253966326Y-156608087D01*
X253970468Y-156594707D01*
X253970469Y-156594704D01*
X253972290Y-156588820D01*
X253993476Y-156387250D01*
X253978983Y-156228000D01*
X253975665Y-156191543D01*
X253975664Y-156191540D01*
X253975106Y-156185404D01*
X253969312Y-156165715D01*
X253919620Y-155996880D01*
X253917881Y-155990971D01*
X253905455Y-155967201D01*
X253851264Y-155863543D01*
X253823981Y-155811355D01*
X253824016Y-155811337D01*
X253804111Y-155745559D01*
X253819271Y-155684591D01*
X253879986Y-155572301D01*
X253912356Y-155512435D01*
X253972290Y-155318820D01*
X253980559Y-155240151D01*
X253992832Y-155123378D01*
X253992832Y-155123377D01*
X253993476Y-155117250D01*
X253981207Y-154982443D01*
X253975665Y-154921543D01*
X253975664Y-154921540D01*
X253975106Y-154915404D01*
X253917881Y-154720971D01*
X253918740Y-154720718D01*
X253912286Y-154655338D01*
X253925452Y-154618594D01*
X253930615Y-154611705D01*
X253981745Y-154475316D01*
X253988500Y-154413134D01*
X253988500Y-153266866D01*
X253981745Y-153204684D01*
X253930615Y-153068295D01*
X253843261Y-152951739D01*
X253726705Y-152864385D01*
X253590316Y-152813255D01*
X253528134Y-152806500D01*
X253489500Y-152806500D01*
X253421379Y-152786498D01*
X253374886Y-152732842D01*
X253363500Y-152680500D01*
X253363500Y-149979394D01*
X253383502Y-149911273D01*
X253417229Y-149876181D01*
X253569789Y-149769357D01*
X253569792Y-149769355D01*
X253574300Y-149766198D01*
X253736198Y-149604300D01*
X253867523Y-149416749D01*
X253869846Y-149411767D01*
X253869849Y-149411762D01*
X253961961Y-149214225D01*
X253961961Y-149214224D01*
X253964284Y-149209243D01*
X253990626Y-149110936D01*
X254022119Y-148993402D01*
X254022119Y-148993400D01*
X254023543Y-148988087D01*
X254043498Y-148760000D01*
X254023543Y-148531913D01*
X253964284Y-148310757D01*
X253961961Y-148305775D01*
X253869849Y-148108238D01*
X253869846Y-148108233D01*
X253867523Y-148103251D01*
X253736198Y-147915700D01*
X253574300Y-147753802D01*
X253569792Y-147750645D01*
X253569789Y-147750643D01*
X253417228Y-147643819D01*
X253386749Y-147622477D01*
X253381767Y-147620154D01*
X253381762Y-147620151D01*
X253184225Y-147528039D01*
X253184224Y-147528039D01*
X253179243Y-147525716D01*
X253173935Y-147524294D01*
X253173933Y-147524293D01*
X252963402Y-147467881D01*
X252963400Y-147467881D01*
X252958087Y-147466457D01*
X252730000Y-147446502D01*
X252501913Y-147466457D01*
X252496600Y-147467881D01*
X252496598Y-147467881D01*
X252286067Y-147524293D01*
X252286065Y-147524294D01*
X252280757Y-147525716D01*
X252275776Y-147528039D01*
X252275775Y-147528039D01*
X252078238Y-147620151D01*
X252078233Y-147620154D01*
X252073251Y-147622477D01*
X252042772Y-147643819D01*
X251890211Y-147750643D01*
X251890208Y-147750645D01*
X251885700Y-147753802D01*
X251723802Y-147915700D01*
X251592477Y-148103251D01*
X251590154Y-148108233D01*
X251590151Y-148108238D01*
X251498039Y-148305775D01*
X251495716Y-148310757D01*
X251436457Y-148531913D01*
X251416502Y-148760000D01*
X251436457Y-148988087D01*
X251437881Y-148993400D01*
X251437881Y-148993402D01*
X251469375Y-149110936D01*
X251495716Y-149209243D01*
X251498039Y-149214224D01*
X251498039Y-149214225D01*
X251590151Y-149411762D01*
X251590154Y-149411767D01*
X251592477Y-149416749D01*
X251723802Y-149604300D01*
X251885700Y-149766198D01*
X251890208Y-149769355D01*
X251890211Y-149769357D01*
X252042771Y-149876181D01*
X252087099Y-149931638D01*
X252096500Y-149979394D01*
X252096500Y-152680500D01*
X252076498Y-152748621D01*
X252022842Y-152795114D01*
X251970500Y-152806500D01*
X251931866Y-152806500D01*
X251869684Y-152813255D01*
X251733295Y-152864385D01*
X251616739Y-152951739D01*
X251529385Y-153068295D01*
X251478255Y-153204684D01*
X251471500Y-153266866D01*
X251471500Y-154350500D01*
X251451498Y-154418621D01*
X251397842Y-154465114D01*
X251345500Y-154476500D01*
X250504594Y-154476500D01*
X250436473Y-154456498D01*
X250415499Y-154439595D01*
X245149152Y-149173248D01*
X245115126Y-149110936D01*
X245116541Y-149051541D01*
X245132118Y-148993409D01*
X245132120Y-148993398D01*
X245133543Y-148988087D01*
X245153498Y-148760000D01*
X245133543Y-148531913D01*
X245074284Y-148310757D01*
X245071961Y-148305775D01*
X244979849Y-148108238D01*
X244979846Y-148108233D01*
X244977523Y-148103251D01*
X244846198Y-147915700D01*
X244684300Y-147753802D01*
X244679792Y-147750645D01*
X244679789Y-147750643D01*
X244527229Y-147643819D01*
X244482901Y-147588362D01*
X244473500Y-147540606D01*
X244473500Y-146486522D01*
X259067273Y-146486522D01*
X259114764Y-146663761D01*
X259118510Y-146674053D01*
X259210586Y-146871511D01*
X259216069Y-146881007D01*
X259341028Y-147059467D01*
X259348084Y-147067875D01*
X259502125Y-147221916D01*
X259510533Y-147228972D01*
X259688993Y-147353931D01*
X259698489Y-147359414D01*
X259895947Y-147451490D01*
X259906239Y-147455236D01*
X260078503Y-147501394D01*
X260092599Y-147501058D01*
X260096000Y-147493116D01*
X260096000Y-147487967D01*
X260604000Y-147487967D01*
X260607973Y-147501498D01*
X260616522Y-147502727D01*
X260793761Y-147455236D01*
X260804053Y-147451490D01*
X261001511Y-147359414D01*
X261011007Y-147353931D01*
X261189467Y-147228972D01*
X261197875Y-147221916D01*
X261351916Y-147067875D01*
X261358972Y-147059467D01*
X261483931Y-146881007D01*
X261489414Y-146871511D01*
X261581490Y-146674053D01*
X261585236Y-146663761D01*
X261631394Y-146491497D01*
X261631058Y-146477401D01*
X261623116Y-146474000D01*
X260622115Y-146474000D01*
X260606876Y-146478475D01*
X260605671Y-146479865D01*
X260604000Y-146487548D01*
X260604000Y-147487967D01*
X260096000Y-147487967D01*
X260096000Y-146492115D01*
X260091525Y-146476876D01*
X260090135Y-146475671D01*
X260082452Y-146474000D01*
X259082033Y-146474000D01*
X259068502Y-146477973D01*
X259067273Y-146486522D01*
X244473500Y-146486522D01*
X244473500Y-145948503D01*
X259068606Y-145948503D01*
X259068942Y-145962599D01*
X259076884Y-145966000D01*
X260077885Y-145966000D01*
X260093124Y-145961525D01*
X260094329Y-145960135D01*
X260096000Y-145952452D01*
X260096000Y-145947885D01*
X260604000Y-145947885D01*
X260608475Y-145963124D01*
X260609865Y-145964329D01*
X260617548Y-145966000D01*
X261617967Y-145966000D01*
X261631498Y-145962027D01*
X261632727Y-145953478D01*
X261585236Y-145776239D01*
X261581490Y-145765947D01*
X261489414Y-145568489D01*
X261483931Y-145558993D01*
X261358972Y-145380533D01*
X261351916Y-145372125D01*
X261197875Y-145218084D01*
X261189467Y-145211028D01*
X261011007Y-145086069D01*
X261001511Y-145080586D01*
X260804053Y-144988510D01*
X260793761Y-144984764D01*
X260621497Y-144938606D01*
X260607401Y-144938942D01*
X260604000Y-144946884D01*
X260604000Y-145947885D01*
X260096000Y-145947885D01*
X260096000Y-144952033D01*
X260092027Y-144938502D01*
X260083478Y-144937273D01*
X259906239Y-144984764D01*
X259895947Y-144988510D01*
X259698489Y-145080586D01*
X259688993Y-145086069D01*
X259510533Y-145211028D01*
X259502125Y-145218084D01*
X259348084Y-145372125D01*
X259341028Y-145380533D01*
X259216069Y-145558993D01*
X259210586Y-145568489D01*
X259118510Y-145765947D01*
X259114764Y-145776239D01*
X259068606Y-145948503D01*
X244473500Y-145948503D01*
X244473500Y-145809067D01*
X244493502Y-145740946D01*
X244540347Y-145697815D01*
X244546466Y-145694562D01*
X244639698Y-145644990D01*
X244681059Y-145611257D01*
X244745140Y-145558993D01*
X244796763Y-145516890D01*
X244888211Y-145406348D01*
X244922027Y-145365472D01*
X244922029Y-145365469D01*
X244925956Y-145360722D01*
X245022356Y-145182435D01*
X245076169Y-145008595D01*
X245080468Y-144994707D01*
X245080469Y-144994704D01*
X245082290Y-144988820D01*
X245086157Y-144952033D01*
X245102832Y-144793378D01*
X245102832Y-144793377D01*
X245103476Y-144787250D01*
X245091740Y-144658295D01*
X245085665Y-144591543D01*
X245085664Y-144591540D01*
X245085106Y-144585404D01*
X245027881Y-144390971D01*
X245023951Y-144383452D01*
X244936835Y-144216815D01*
X244933981Y-144211355D01*
X244934016Y-144211337D01*
X244914111Y-144145559D01*
X244929271Y-144084591D01*
X244990396Y-143971543D01*
X245022356Y-143912435D01*
X245054018Y-143810151D01*
X245080468Y-143724707D01*
X245080469Y-143724704D01*
X245082290Y-143718820D01*
X245094242Y-143605110D01*
X245102832Y-143523378D01*
X245102832Y-143523377D01*
X245103476Y-143517250D01*
X245085106Y-143315404D01*
X245079941Y-143297853D01*
X245029620Y-143126879D01*
X245029619Y-143126877D01*
X245027881Y-143120971D01*
X245028740Y-143120718D01*
X245022286Y-143055338D01*
X245035452Y-143018594D01*
X245040615Y-143011705D01*
X245043768Y-143003296D01*
X245088971Y-142882715D01*
X245091745Y-142875316D01*
X245098500Y-142813134D01*
X245098500Y-141666866D01*
X245091745Y-141604684D01*
X245040615Y-141468295D01*
X244953261Y-141351739D01*
X244836705Y-141264385D01*
X244700316Y-141213255D01*
X244638134Y-141206500D01*
X244599500Y-141206500D01*
X244531379Y-141186498D01*
X244491088Y-141140000D01*
X251416502Y-141140000D01*
X251436457Y-141368087D01*
X251495716Y-141589243D01*
X251498039Y-141594224D01*
X251498039Y-141594225D01*
X251590151Y-141791762D01*
X251590154Y-141791767D01*
X251592477Y-141796749D01*
X251595634Y-141801257D01*
X251689481Y-141935284D01*
X251723802Y-141984300D01*
X251885700Y-142146198D01*
X251890208Y-142149355D01*
X251890211Y-142149357D01*
X251934294Y-142180224D01*
X252073251Y-142277523D01*
X252078233Y-142279846D01*
X252078238Y-142279849D01*
X252275775Y-142371961D01*
X252280757Y-142374284D01*
X252286065Y-142375706D01*
X252286067Y-142375707D01*
X252496598Y-142432119D01*
X252496600Y-142432119D01*
X252501913Y-142433543D01*
X252730000Y-142453498D01*
X252958087Y-142433543D01*
X252963400Y-142432119D01*
X252963402Y-142432119D01*
X253173933Y-142375707D01*
X253173935Y-142375706D01*
X253179243Y-142374284D01*
X253184225Y-142371961D01*
X253381762Y-142279849D01*
X253381767Y-142279846D01*
X253386749Y-142277523D01*
X253525706Y-142180224D01*
X253569789Y-142149357D01*
X253569792Y-142149355D01*
X253574300Y-142146198D01*
X253736198Y-141984300D01*
X253770520Y-141935284D01*
X253864366Y-141801257D01*
X253867523Y-141796749D01*
X253869846Y-141791767D01*
X253869849Y-141791762D01*
X253961961Y-141594225D01*
X253961961Y-141594224D01*
X253964284Y-141589243D01*
X254023543Y-141368087D01*
X254043498Y-141140000D01*
X254023543Y-140911913D01*
X253964284Y-140690757D01*
X253961961Y-140685775D01*
X253869849Y-140488238D01*
X253869846Y-140488233D01*
X253867523Y-140483251D01*
X253736198Y-140295700D01*
X253574300Y-140133802D01*
X253569792Y-140130645D01*
X253569789Y-140130643D01*
X253417229Y-140023819D01*
X253372901Y-139968362D01*
X253363500Y-139920606D01*
X253363500Y-138600000D01*
X259036502Y-138600000D01*
X259056457Y-138828087D01*
X259057881Y-138833400D01*
X259057881Y-138833402D01*
X259109188Y-139024879D01*
X259115716Y-139049243D01*
X259118039Y-139054224D01*
X259118039Y-139054225D01*
X259210151Y-139251762D01*
X259210154Y-139251767D01*
X259212477Y-139256749D01*
X259234057Y-139287568D01*
X259335098Y-139431869D01*
X259343802Y-139444300D01*
X259505700Y-139606198D01*
X259510208Y-139609355D01*
X259510211Y-139609357D01*
X259588389Y-139664098D01*
X259693251Y-139737523D01*
X259698233Y-139739846D01*
X259698238Y-139739849D01*
X259868825Y-139819394D01*
X259900757Y-139834284D01*
X259906065Y-139835706D01*
X259906067Y-139835707D01*
X260116598Y-139892119D01*
X260116600Y-139892119D01*
X260121913Y-139893543D01*
X260350000Y-139913498D01*
X260578087Y-139893543D01*
X260583400Y-139892119D01*
X260583402Y-139892119D01*
X260793933Y-139835707D01*
X260793935Y-139835706D01*
X260799243Y-139834284D01*
X260831175Y-139819394D01*
X261001762Y-139739849D01*
X261001767Y-139739846D01*
X261006749Y-139737523D01*
X261111611Y-139664098D01*
X261189789Y-139609357D01*
X261189792Y-139609355D01*
X261194300Y-139606198D01*
X261356198Y-139444300D01*
X261364903Y-139431869D01*
X261465943Y-139287568D01*
X261487523Y-139256749D01*
X261489846Y-139251767D01*
X261489849Y-139251762D01*
X261581961Y-139054225D01*
X261581961Y-139054224D01*
X261584284Y-139049243D01*
X261590813Y-139024879D01*
X261642119Y-138833402D01*
X261642119Y-138833400D01*
X261643543Y-138828087D01*
X261663498Y-138600000D01*
X261643543Y-138371913D01*
X261642119Y-138366598D01*
X261585707Y-138156067D01*
X261585706Y-138156065D01*
X261584284Y-138150757D01*
X261581961Y-138145775D01*
X261489849Y-137948238D01*
X261489846Y-137948233D01*
X261487523Y-137943251D01*
X261367722Y-137772158D01*
X261359357Y-137760211D01*
X261359355Y-137760208D01*
X261356198Y-137755700D01*
X261194300Y-137593802D01*
X261189792Y-137590645D01*
X261189789Y-137590643D01*
X261037229Y-137483819D01*
X260992901Y-137428362D01*
X260983500Y-137380606D01*
X260983500Y-136009394D01*
X261003502Y-135941273D01*
X261037229Y-135906181D01*
X261189789Y-135799357D01*
X261189792Y-135799355D01*
X261194300Y-135796198D01*
X261356198Y-135634300D01*
X261487523Y-135446749D01*
X261489846Y-135441767D01*
X261489849Y-135441762D01*
X261581961Y-135244225D01*
X261581961Y-135244224D01*
X261584284Y-135239243D01*
X261643543Y-135018087D01*
X261663498Y-134790000D01*
X261643543Y-134561913D01*
X261628749Y-134506701D01*
X261585707Y-134346067D01*
X261585706Y-134346065D01*
X261584284Y-134340757D01*
X261551899Y-134271307D01*
X261489849Y-134138238D01*
X261489846Y-134138233D01*
X261487523Y-134133251D01*
X261394997Y-134001110D01*
X261359357Y-133950211D01*
X261359355Y-133950208D01*
X261356198Y-133945700D01*
X261194300Y-133783802D01*
X261189792Y-133780645D01*
X261189789Y-133780643D01*
X261037228Y-133673819D01*
X261006749Y-133652477D01*
X261001767Y-133650154D01*
X261001762Y-133650151D01*
X260804225Y-133558039D01*
X260804224Y-133558039D01*
X260799243Y-133555716D01*
X260793935Y-133554294D01*
X260793933Y-133554293D01*
X260583402Y-133497881D01*
X260583400Y-133497881D01*
X260578087Y-133496457D01*
X260350000Y-133476502D01*
X260121913Y-133496457D01*
X260116600Y-133497881D01*
X260116598Y-133497881D01*
X259906067Y-133554293D01*
X259906065Y-133554294D01*
X259900757Y-133555716D01*
X259895776Y-133558039D01*
X259895775Y-133558039D01*
X259698238Y-133650151D01*
X259698233Y-133650154D01*
X259693251Y-133652477D01*
X259662772Y-133673819D01*
X259510211Y-133780643D01*
X259510208Y-133780645D01*
X259505700Y-133783802D01*
X259343802Y-133945700D01*
X259340645Y-133950208D01*
X259340643Y-133950211D01*
X259305003Y-134001110D01*
X259212477Y-134133251D01*
X259210154Y-134138233D01*
X259210151Y-134138238D01*
X259148101Y-134271307D01*
X259115716Y-134340757D01*
X259114294Y-134346065D01*
X259114293Y-134346067D01*
X259071251Y-134506701D01*
X259056457Y-134561913D01*
X259036502Y-134790000D01*
X259056457Y-135018087D01*
X259115716Y-135239243D01*
X259118039Y-135244224D01*
X259118039Y-135244225D01*
X259210151Y-135441762D01*
X259210154Y-135441767D01*
X259212477Y-135446749D01*
X259343802Y-135634300D01*
X259505700Y-135796198D01*
X259510208Y-135799355D01*
X259510211Y-135799357D01*
X259662771Y-135906181D01*
X259707099Y-135961638D01*
X259716500Y-136009394D01*
X259716500Y-137380606D01*
X259696498Y-137448727D01*
X259662771Y-137483819D01*
X259510211Y-137590643D01*
X259510208Y-137590645D01*
X259505700Y-137593802D01*
X259343802Y-137755700D01*
X259340645Y-137760208D01*
X259340643Y-137760211D01*
X259332278Y-137772158D01*
X259212477Y-137943251D01*
X259210154Y-137948233D01*
X259210151Y-137948238D01*
X259118039Y-138145775D01*
X259115716Y-138150757D01*
X259114294Y-138156065D01*
X259114293Y-138156067D01*
X259057881Y-138366598D01*
X259056457Y-138371913D01*
X259036502Y-138600000D01*
X253363500Y-138600000D01*
X253363500Y-136009394D01*
X253383502Y-135941273D01*
X253417229Y-135906181D01*
X253569789Y-135799357D01*
X253569792Y-135799355D01*
X253574300Y-135796198D01*
X253736198Y-135634300D01*
X253867523Y-135446749D01*
X253869846Y-135441767D01*
X253869849Y-135441762D01*
X253961961Y-135244225D01*
X253961961Y-135244224D01*
X253964284Y-135239243D01*
X254023543Y-135018087D01*
X254043498Y-134790000D01*
X254023543Y-134561913D01*
X254008749Y-134506701D01*
X253965707Y-134346067D01*
X253965706Y-134346065D01*
X253964284Y-134340757D01*
X253931899Y-134271307D01*
X253869849Y-134138238D01*
X253869846Y-134138233D01*
X253867523Y-134133251D01*
X253774997Y-134001110D01*
X253739357Y-133950211D01*
X253739355Y-133950208D01*
X253736198Y-133945700D01*
X253574300Y-133783802D01*
X253569792Y-133780645D01*
X253569789Y-133780643D01*
X253417229Y-133673819D01*
X253372901Y-133618362D01*
X253363500Y-133570606D01*
X253363500Y-129659394D01*
X253383502Y-129591273D01*
X253417229Y-129556181D01*
X253569789Y-129449357D01*
X253569792Y-129449355D01*
X253574300Y-129446198D01*
X253736198Y-129284300D01*
X253867523Y-129096749D01*
X253869846Y-129091767D01*
X253869849Y-129091762D01*
X253961961Y-128894225D01*
X253961961Y-128894224D01*
X253964284Y-128889243D01*
X254023543Y-128668087D01*
X254043498Y-128440000D01*
X254023543Y-128211913D01*
X253964284Y-127990757D01*
X253913142Y-127881081D01*
X253869849Y-127788238D01*
X253869846Y-127788233D01*
X253867523Y-127783251D01*
X253776672Y-127653502D01*
X253739357Y-127600211D01*
X253739355Y-127600208D01*
X253736198Y-127595700D01*
X253574300Y-127433802D01*
X253569792Y-127430645D01*
X253569789Y-127430643D01*
X253491611Y-127375902D01*
X253386749Y-127302477D01*
X253381767Y-127300154D01*
X253381762Y-127300151D01*
X253184225Y-127208039D01*
X253184224Y-127208039D01*
X253179243Y-127205716D01*
X253173935Y-127204294D01*
X253173933Y-127204293D01*
X252963402Y-127147881D01*
X252963400Y-127147881D01*
X252958087Y-127146457D01*
X252730000Y-127126502D01*
X252501913Y-127146457D01*
X252496600Y-127147881D01*
X252496598Y-127147881D01*
X252286067Y-127204293D01*
X252286065Y-127204294D01*
X252280757Y-127205716D01*
X252275776Y-127208039D01*
X252275775Y-127208039D01*
X252078238Y-127300151D01*
X252078233Y-127300154D01*
X252073251Y-127302477D01*
X251968389Y-127375902D01*
X251890211Y-127430643D01*
X251890208Y-127430645D01*
X251885700Y-127433802D01*
X251723802Y-127595700D01*
X251720645Y-127600208D01*
X251720643Y-127600211D01*
X251683328Y-127653502D01*
X251592477Y-127783251D01*
X251590154Y-127788233D01*
X251590151Y-127788238D01*
X251546858Y-127881081D01*
X251495716Y-127990757D01*
X251436457Y-128211913D01*
X251416502Y-128440000D01*
X251436457Y-128668087D01*
X251495716Y-128889243D01*
X251498039Y-128894224D01*
X251498039Y-128894225D01*
X251590151Y-129091762D01*
X251590154Y-129091767D01*
X251592477Y-129096749D01*
X251723802Y-129284300D01*
X251885700Y-129446198D01*
X251890208Y-129449355D01*
X251890211Y-129449357D01*
X252042771Y-129556181D01*
X252087099Y-129611638D01*
X252096500Y-129659394D01*
X252096500Y-133570606D01*
X252076498Y-133638727D01*
X252042771Y-133673819D01*
X251890211Y-133780643D01*
X251890208Y-133780645D01*
X251885700Y-133783802D01*
X251723802Y-133945700D01*
X251720645Y-133950208D01*
X251720643Y-133950211D01*
X251685003Y-134001110D01*
X251592477Y-134133251D01*
X251590154Y-134138233D01*
X251590151Y-134138238D01*
X251528101Y-134271307D01*
X251495716Y-134340757D01*
X251494294Y-134346065D01*
X251494293Y-134346067D01*
X251451251Y-134506701D01*
X251436457Y-134561913D01*
X251416502Y-134790000D01*
X251436457Y-135018087D01*
X251495716Y-135239243D01*
X251498039Y-135244224D01*
X251498039Y-135244225D01*
X251590151Y-135441762D01*
X251590154Y-135441767D01*
X251592477Y-135446749D01*
X251723802Y-135634300D01*
X251885700Y-135796198D01*
X251890208Y-135799355D01*
X251890211Y-135799357D01*
X252042771Y-135906181D01*
X252087099Y-135961638D01*
X252096500Y-136009394D01*
X252096500Y-139920606D01*
X252076498Y-139988727D01*
X252042771Y-140023819D01*
X251890211Y-140130643D01*
X251890208Y-140130645D01*
X251885700Y-140133802D01*
X251723802Y-140295700D01*
X251592477Y-140483251D01*
X251590154Y-140488233D01*
X251590151Y-140488238D01*
X251498039Y-140685775D01*
X251495716Y-140690757D01*
X251436457Y-140911913D01*
X251416502Y-141140000D01*
X244491088Y-141140000D01*
X244484886Y-141132842D01*
X244473500Y-141080500D01*
X244473500Y-128159500D01*
X244493502Y-128091379D01*
X244547158Y-128044886D01*
X244599500Y-128033500D01*
X244638134Y-128033500D01*
X244700316Y-128026745D01*
X244836705Y-127975615D01*
X244953261Y-127888261D01*
X245040615Y-127771705D01*
X245091745Y-127635316D01*
X245098500Y-127573134D01*
X245098500Y-126426866D01*
X245091745Y-126364684D01*
X245066988Y-126298645D01*
X245043768Y-126236704D01*
X245043766Y-126236700D01*
X245040615Y-126228295D01*
X245035227Y-126221106D01*
X245035094Y-126220863D01*
X245019924Y-126151506D01*
X245025248Y-126123092D01*
X245026428Y-126119282D01*
X245082290Y-125938820D01*
X245103476Y-125737250D01*
X245085106Y-125535404D01*
X245079188Y-125515294D01*
X245029620Y-125346880D01*
X245029620Y-125346879D01*
X245027881Y-125340971D01*
X245023951Y-125333452D01*
X244936835Y-125166815D01*
X244933981Y-125161355D01*
X244934016Y-125161337D01*
X244914111Y-125095559D01*
X244929271Y-125034591D01*
X245019426Y-124867853D01*
X245022356Y-124862435D01*
X245082290Y-124668820D01*
X245103476Y-124467250D01*
X245085106Y-124265404D01*
X245027881Y-124070971D01*
X245023951Y-124063452D01*
X244936835Y-123896815D01*
X244933981Y-123891355D01*
X244928630Y-123884699D01*
X244810840Y-123738199D01*
X244806981Y-123733399D01*
X244651719Y-123603119D01*
X244646327Y-123600155D01*
X244646323Y-123600152D01*
X244581515Y-123564524D01*
X244538798Y-123541040D01*
X244488741Y-123490696D01*
X244473500Y-123430626D01*
X244473500Y-122039394D01*
X244493502Y-121971273D01*
X244527229Y-121936181D01*
X244679789Y-121829357D01*
X244679792Y-121829355D01*
X244684300Y-121826198D01*
X244846198Y-121664300D01*
X244977523Y-121476749D01*
X244979846Y-121471767D01*
X244979849Y-121471762D01*
X245071961Y-121274225D01*
X245071961Y-121274224D01*
X245074284Y-121269243D01*
X245079067Y-121251395D01*
X245132119Y-121053402D01*
X245132119Y-121053400D01*
X245133543Y-121048087D01*
X245153498Y-120820000D01*
X245133543Y-120591913D01*
X245132119Y-120586598D01*
X245132118Y-120586591D01*
X245116541Y-120528459D01*
X245118230Y-120457483D01*
X245149152Y-120406752D01*
X250415500Y-115140405D01*
X250477812Y-115106379D01*
X250504595Y-115103500D01*
X251345500Y-115103500D01*
X251413621Y-115123502D01*
X251460114Y-115177158D01*
X251471500Y-115229500D01*
X251471500Y-116313134D01*
X251478255Y-116375316D01*
X251529385Y-116511705D01*
X251616739Y-116628261D01*
X251733295Y-116715615D01*
X251869684Y-116766745D01*
X251931866Y-116773500D01*
X251970500Y-116773500D01*
X252038621Y-116793502D01*
X252085114Y-116847158D01*
X252096500Y-116899500D01*
X252096500Y-119600606D01*
X252076498Y-119668727D01*
X252042771Y-119703819D01*
X251890211Y-119810643D01*
X251890208Y-119810645D01*
X251885700Y-119813802D01*
X251723802Y-119975700D01*
X251592477Y-120163251D01*
X251590154Y-120168233D01*
X251590151Y-120168238D01*
X251498039Y-120365775D01*
X251495716Y-120370757D01*
X251494294Y-120376065D01*
X251494293Y-120376067D01*
X251437883Y-120586591D01*
X251436457Y-120591913D01*
X251416502Y-120820000D01*
X251436457Y-121048087D01*
X251437881Y-121053400D01*
X251437881Y-121053402D01*
X251490934Y-121251395D01*
X251495716Y-121269243D01*
X251498039Y-121274224D01*
X251498039Y-121274225D01*
X251590151Y-121471762D01*
X251590154Y-121471767D01*
X251592477Y-121476749D01*
X251723802Y-121664300D01*
X251885700Y-121826198D01*
X251890208Y-121829355D01*
X251890211Y-121829357D01*
X251968389Y-121884098D01*
X252073251Y-121957523D01*
X252078233Y-121959846D01*
X252078238Y-121959849D01*
X252248825Y-122039394D01*
X252280757Y-122054284D01*
X252286065Y-122055706D01*
X252286067Y-122055707D01*
X252496598Y-122112119D01*
X252496600Y-122112119D01*
X252501913Y-122113543D01*
X252730000Y-122133498D01*
X252958087Y-122113543D01*
X252963400Y-122112119D01*
X252963402Y-122112119D01*
X253173933Y-122055707D01*
X253173935Y-122055706D01*
X253179243Y-122054284D01*
X253211175Y-122039394D01*
X253381762Y-121959849D01*
X253381767Y-121959846D01*
X253386749Y-121957523D01*
X253491611Y-121884098D01*
X253569789Y-121829357D01*
X253569792Y-121829355D01*
X253574300Y-121826198D01*
X253736198Y-121664300D01*
X253867523Y-121476749D01*
X253869846Y-121471767D01*
X253869849Y-121471762D01*
X253961961Y-121274225D01*
X253961961Y-121274224D01*
X253964284Y-121269243D01*
X253969067Y-121251395D01*
X254022119Y-121053402D01*
X254022119Y-121053400D01*
X254023543Y-121048087D01*
X254043498Y-120820000D01*
X254023543Y-120591913D01*
X254022117Y-120586591D01*
X253965707Y-120376067D01*
X253965706Y-120376065D01*
X253964284Y-120370757D01*
X253961961Y-120365775D01*
X253869849Y-120168238D01*
X253869846Y-120168233D01*
X253867523Y-120163251D01*
X253736198Y-119975700D01*
X253574300Y-119813802D01*
X253569792Y-119810645D01*
X253569789Y-119810643D01*
X253417229Y-119703819D01*
X253372901Y-119648362D01*
X253363500Y-119600606D01*
X253363500Y-116899500D01*
X253383502Y-116831379D01*
X253437158Y-116784886D01*
X253489500Y-116773500D01*
X253528134Y-116773500D01*
X253590316Y-116766745D01*
X253726705Y-116715615D01*
X253843261Y-116628261D01*
X253930615Y-116511705D01*
X253981745Y-116375316D01*
X253988500Y-116313134D01*
X253988500Y-115166866D01*
X253981745Y-115104684D01*
X253961988Y-115051983D01*
X253933768Y-114976704D01*
X253933766Y-114976701D01*
X253930615Y-114968295D01*
X253925227Y-114961106D01*
X253925094Y-114960863D01*
X253909924Y-114891506D01*
X253915248Y-114863092D01*
X253970468Y-114684706D01*
X253972290Y-114678820D01*
X253993476Y-114477250D01*
X253980971Y-114339849D01*
X253975665Y-114281543D01*
X253975664Y-114281540D01*
X253975106Y-114275404D01*
X253966511Y-114246198D01*
X253919620Y-114086880D01*
X253917881Y-114080971D01*
X253900956Y-114048595D01*
X253844146Y-113939927D01*
X253823981Y-113901355D01*
X253824016Y-113901337D01*
X253804111Y-113835559D01*
X253819271Y-113774591D01*
X253897337Y-113630211D01*
X253912356Y-113602435D01*
X253955270Y-113463802D01*
X253970468Y-113414707D01*
X253970469Y-113414704D01*
X253972290Y-113408820D01*
X253980559Y-113330151D01*
X253992832Y-113213378D01*
X253992832Y-113213377D01*
X253993476Y-113207250D01*
X253985898Y-113123986D01*
X253975665Y-113011543D01*
X253975664Y-113011540D01*
X253975106Y-113005404D01*
X253917881Y-112810971D01*
X253910090Y-112796067D01*
X253834957Y-112652351D01*
X253823981Y-112631355D01*
X253696981Y-112473399D01*
X253541719Y-112343119D01*
X253536327Y-112340155D01*
X253536323Y-112340152D01*
X253369506Y-112248444D01*
X253364109Y-112245477D01*
X253170916Y-112184193D01*
X253164799Y-112183507D01*
X253164795Y-112183506D01*
X253090652Y-112175190D01*
X253013183Y-112166500D01*
X252453996Y-112166500D01*
X252303287Y-112181277D01*
X252109258Y-112239858D01*
X251930302Y-112335010D01*
X251773237Y-112463110D01*
X251769310Y-112467857D01*
X251769308Y-112467859D01*
X251725500Y-112520815D01*
X251666667Y-112560553D01*
X251628415Y-112566500D01*
X245059394Y-112566500D01*
X244991273Y-112546498D01*
X244956181Y-112512771D01*
X244849357Y-112360211D01*
X244849355Y-112360208D01*
X244846198Y-112355700D01*
X244684300Y-112193802D01*
X244679792Y-112190645D01*
X244679789Y-112190643D01*
X244558383Y-112105634D01*
X244496749Y-112062477D01*
X244491767Y-112060154D01*
X244491762Y-112060151D01*
X244294225Y-111968039D01*
X244294224Y-111968039D01*
X244289243Y-111965716D01*
X244283935Y-111964294D01*
X244283933Y-111964293D01*
X244073402Y-111907881D01*
X244073400Y-111907881D01*
X244068087Y-111906457D01*
X243840000Y-111886502D01*
X243611913Y-111906457D01*
X243606600Y-111907881D01*
X243606598Y-111907881D01*
X243396067Y-111964293D01*
X243396065Y-111964294D01*
X243390757Y-111965716D01*
X243385776Y-111968039D01*
X243385775Y-111968039D01*
X243188238Y-112060151D01*
X243188233Y-112060154D01*
X243183251Y-112062477D01*
X243121617Y-112105634D01*
X243000211Y-112190643D01*
X243000208Y-112190645D01*
X242995700Y-112193802D01*
X242833802Y-112355700D01*
X242830645Y-112360208D01*
X242830643Y-112360211D01*
X242723819Y-112512771D01*
X242668362Y-112557099D01*
X242620606Y-112566500D01*
X232259394Y-112566500D01*
X232191273Y-112546498D01*
X232156181Y-112512771D01*
X232049357Y-112360211D01*
X232049355Y-112360208D01*
X232046198Y-112355700D01*
X231884300Y-112193802D01*
X231879792Y-112190645D01*
X231879789Y-112190643D01*
X231758383Y-112105634D01*
X231696749Y-112062477D01*
X231691767Y-112060154D01*
X231691762Y-112060151D01*
X231494225Y-111968039D01*
X231494224Y-111968039D01*
X231489243Y-111965716D01*
X231483935Y-111964294D01*
X231483933Y-111964293D01*
X231273402Y-111907881D01*
X231273400Y-111907881D01*
X231268087Y-111906457D01*
X231040000Y-111886502D01*
X230811913Y-111906457D01*
X230806600Y-111907881D01*
X230806598Y-111907881D01*
X230596067Y-111964293D01*
X230596065Y-111964294D01*
X230590757Y-111965716D01*
X230585776Y-111968039D01*
X230585775Y-111968039D01*
X230388238Y-112060151D01*
X230388233Y-112060154D01*
X230383251Y-112062477D01*
X230321617Y-112105634D01*
X230200211Y-112190643D01*
X230200208Y-112190645D01*
X230195700Y-112193802D01*
X230033802Y-112355700D01*
X230030645Y-112360208D01*
X230030643Y-112360211D01*
X229923819Y-112512771D01*
X229868362Y-112557099D01*
X229820606Y-112566500D01*
X227301793Y-112566500D01*
X227278184Y-112564268D01*
X227277881Y-112564210D01*
X227277877Y-112564210D01*
X227270094Y-112562725D01*
X227214049Y-112566251D01*
X227206138Y-112566500D01*
X214479394Y-112566500D01*
X214411273Y-112546498D01*
X214376181Y-112512771D01*
X214269357Y-112360211D01*
X214269355Y-112360208D01*
X214266198Y-112355700D01*
X214104300Y-112193802D01*
X214099792Y-112190645D01*
X214099789Y-112190643D01*
X213978383Y-112105634D01*
X213916749Y-112062477D01*
X213911767Y-112060154D01*
X213911762Y-112060151D01*
X213714225Y-111968039D01*
X213714224Y-111968039D01*
X213709243Y-111965716D01*
X213703935Y-111964294D01*
X213703933Y-111964293D01*
X213493402Y-111907881D01*
X213493400Y-111907881D01*
X213488087Y-111906457D01*
X213260000Y-111886502D01*
X213031913Y-111906457D01*
X213026600Y-111907881D01*
X213026598Y-111907881D01*
X212816067Y-111964293D01*
X212816065Y-111964294D01*
X212810757Y-111965716D01*
X212805776Y-111968039D01*
X212805775Y-111968039D01*
X212608238Y-112060151D01*
X212608233Y-112060154D01*
X212603251Y-112062477D01*
X212541617Y-112105634D01*
X212420211Y-112190643D01*
X212420208Y-112190645D01*
X212415700Y-112193802D01*
X212253802Y-112355700D01*
X212250645Y-112360208D01*
X212250643Y-112360211D01*
X212143819Y-112512771D01*
X212088362Y-112557099D01*
X212040606Y-112566500D01*
X210680144Y-112566500D01*
X210623432Y-112573665D01*
X210569068Y-112580532D01*
X210569065Y-112580533D01*
X210561203Y-112581526D01*
X210553835Y-112584443D01*
X210553832Y-112584444D01*
X210520472Y-112597652D01*
X210474089Y-112606500D01*
X201879394Y-112606500D01*
X201811273Y-112586498D01*
X201776181Y-112552771D01*
X201669357Y-112400211D01*
X201669355Y-112400208D01*
X201666198Y-112395700D01*
X201504300Y-112233802D01*
X201499792Y-112230645D01*
X201499789Y-112230643D01*
X201408183Y-112166500D01*
X201316749Y-112102477D01*
X201311767Y-112100154D01*
X201311762Y-112100151D01*
X201114225Y-112008039D01*
X201114224Y-112008039D01*
X201109243Y-112005716D01*
X201103935Y-112004294D01*
X201103933Y-112004293D01*
X200893402Y-111947881D01*
X200893400Y-111947881D01*
X200888087Y-111946457D01*
X200660000Y-111926502D01*
X200431913Y-111946457D01*
X200426600Y-111947881D01*
X200426598Y-111947881D01*
X200216067Y-112004293D01*
X200216065Y-112004294D01*
X200210757Y-112005716D01*
X200205776Y-112008039D01*
X200205775Y-112008039D01*
X200008238Y-112100151D01*
X200008233Y-112100154D01*
X200003251Y-112102477D01*
X199911817Y-112166500D01*
X199820211Y-112230643D01*
X199820208Y-112230645D01*
X199815700Y-112233802D01*
X199653802Y-112395700D01*
X199522477Y-112583251D01*
X199520154Y-112588233D01*
X199520151Y-112588238D01*
X199492294Y-112647979D01*
X199425716Y-112790757D01*
X199424294Y-112796065D01*
X199424293Y-112796067D01*
X199418716Y-112816880D01*
X199366457Y-113011913D01*
X199346502Y-113240000D01*
X199366457Y-113468087D01*
X199367879Y-113473392D01*
X199367881Y-113473406D01*
X199383459Y-113531539D01*
X199381771Y-113602516D01*
X199350848Y-113653248D01*
X199204499Y-113799596D01*
X199142187Y-113833621D01*
X199115404Y-113836500D01*
X194259394Y-113836500D01*
X194191273Y-113816498D01*
X194156181Y-113782771D01*
X194049357Y-113630211D01*
X194049355Y-113630208D01*
X194046198Y-113625700D01*
X193884300Y-113463802D01*
X193879792Y-113460645D01*
X193879789Y-113460643D01*
X193797029Y-113402694D01*
X193696749Y-113332477D01*
X193691767Y-113330154D01*
X193691762Y-113330151D01*
X193494225Y-113238039D01*
X193494224Y-113238039D01*
X193489243Y-113235716D01*
X193483935Y-113234294D01*
X193483933Y-113234293D01*
X193273402Y-113177881D01*
X193273400Y-113177881D01*
X193268087Y-113176457D01*
X193040000Y-113156502D01*
X192811913Y-113176457D01*
X192806600Y-113177881D01*
X192806598Y-113177881D01*
X192596067Y-113234293D01*
X192596065Y-113234294D01*
X192590757Y-113235716D01*
X192585776Y-113238039D01*
X192585775Y-113238039D01*
X192388238Y-113330151D01*
X192388233Y-113330154D01*
X192383251Y-113332477D01*
X192282971Y-113402694D01*
X192200211Y-113460643D01*
X192200208Y-113460645D01*
X192195700Y-113463802D01*
X192033802Y-113625700D01*
X192030645Y-113630208D01*
X192030643Y-113630211D01*
X191923819Y-113782771D01*
X191868362Y-113827099D01*
X191820606Y-113836500D01*
X191778767Y-113836500D01*
X191767584Y-113835973D01*
X191760091Y-113834298D01*
X191752165Y-113834547D01*
X191752164Y-113834547D01*
X191692001Y-113836438D01*
X191688043Y-113836500D01*
X191660144Y-113836500D01*
X191656154Y-113837004D01*
X191644320Y-113837936D01*
X191600111Y-113839326D01*
X191592497Y-113841538D01*
X191592492Y-113841539D01*
X191580659Y-113844977D01*
X191561296Y-113848988D01*
X191541203Y-113851526D01*
X191533836Y-113854443D01*
X191533831Y-113854444D01*
X191500092Y-113867802D01*
X191488865Y-113871646D01*
X191446407Y-113883982D01*
X191439581Y-113888019D01*
X191428972Y-113894293D01*
X191411224Y-113902988D01*
X191392383Y-113910448D01*
X191385967Y-113915110D01*
X191385966Y-113915110D01*
X191356613Y-113936436D01*
X191346693Y-113942952D01*
X191315465Y-113961420D01*
X191315462Y-113961422D01*
X191308638Y-113965458D01*
X191294317Y-113979779D01*
X191279284Y-113992619D01*
X191262893Y-114004528D01*
X191257842Y-114010634D01*
X191234702Y-114038605D01*
X191226712Y-114047384D01*
X190207747Y-115066348D01*
X190199461Y-115073888D01*
X190192982Y-115078000D01*
X190187557Y-115083777D01*
X190146357Y-115127651D01*
X190143602Y-115130493D01*
X190123865Y-115150230D01*
X190121385Y-115153427D01*
X190113682Y-115162447D01*
X190083414Y-115194679D01*
X190079595Y-115201625D01*
X190079593Y-115201628D01*
X190073652Y-115212434D01*
X190062801Y-115228953D01*
X190050386Y-115244959D01*
X190047241Y-115252228D01*
X190047238Y-115252232D01*
X190032826Y-115285537D01*
X190027609Y-115296187D01*
X190006305Y-115334940D01*
X190004334Y-115342615D01*
X190004334Y-115342616D01*
X190001267Y-115354562D01*
X189994863Y-115373266D01*
X189986819Y-115391855D01*
X189985580Y-115399678D01*
X189985577Y-115399688D01*
X189979901Y-115435524D01*
X189977495Y-115447144D01*
X189966500Y-115489970D01*
X189966500Y-115510224D01*
X189964949Y-115529934D01*
X189961780Y-115549943D01*
X189962526Y-115557835D01*
X189965941Y-115593961D01*
X189966500Y-115605819D01*
X189966500Y-129491233D01*
X189965973Y-129502416D01*
X189964298Y-129509909D01*
X189964547Y-129517835D01*
X189964547Y-129517836D01*
X189966438Y-129577986D01*
X189966500Y-129581945D01*
X189966500Y-129609856D01*
X189966997Y-129613790D01*
X189966997Y-129613791D01*
X189967005Y-129613856D01*
X189967938Y-129625693D01*
X189969327Y-129669889D01*
X189974007Y-129685997D01*
X189974978Y-129689339D01*
X189978987Y-129708700D01*
X189981526Y-129728797D01*
X189984445Y-129736168D01*
X189984445Y-129736170D01*
X189997804Y-129769912D01*
X190001649Y-129781142D01*
X190013982Y-129823593D01*
X190018015Y-129830412D01*
X190018017Y-129830417D01*
X190024293Y-129841028D01*
X190032988Y-129858776D01*
X190040448Y-129877617D01*
X190045109Y-129884033D01*
X190045111Y-129884036D01*
X190059962Y-129904476D01*
X190083820Y-129971344D01*
X190074223Y-130027263D01*
X190045246Y-130096365D01*
X189982738Y-130342490D01*
X189957296Y-130595151D01*
X189969480Y-130848798D01*
X190019021Y-131097857D01*
X190020600Y-131102255D01*
X190020602Y-131102262D01*
X190065022Y-131225980D01*
X190104831Y-131336858D01*
X190225025Y-131560551D01*
X190227820Y-131564294D01*
X190227822Y-131564297D01*
X190374171Y-131760282D01*
X190374176Y-131760288D01*
X190376963Y-131764020D01*
X190380272Y-131767300D01*
X190380277Y-131767306D01*
X190478838Y-131865010D01*
X190557307Y-131942797D01*
X190561069Y-131945555D01*
X190561072Y-131945558D01*
X190646504Y-132008199D01*
X190762094Y-132092953D01*
X190766229Y-132095129D01*
X190766233Y-132095131D01*
X190860122Y-132144528D01*
X190986827Y-132211191D01*
X191158781Y-132271240D01*
X191216497Y-132312581D01*
X191242701Y-132378565D01*
X191229072Y-132448241D01*
X191179936Y-132499487D01*
X191152497Y-132511160D01*
X191069993Y-132535208D01*
X190839380Y-132641522D01*
X190835471Y-132644085D01*
X190630928Y-132778189D01*
X190630923Y-132778193D01*
X190627015Y-132780755D01*
X190538059Y-132860151D01*
X190465855Y-132924596D01*
X190437562Y-132949848D01*
X190275183Y-133145087D01*
X190143447Y-133362182D01*
X190141638Y-133366496D01*
X190141637Y-133366498D01*
X190056048Y-133570606D01*
X190045246Y-133596365D01*
X190044095Y-133600897D01*
X190044094Y-133600900D01*
X190025575Y-133673819D01*
X189982738Y-133842490D01*
X189957296Y-134095151D01*
X189957520Y-134099817D01*
X189957520Y-134099822D01*
X189962462Y-134202694D01*
X189969480Y-134348798D01*
X189977445Y-134388841D01*
X190000890Y-134506704D01*
X190019021Y-134597857D01*
X190020600Y-134602255D01*
X190020602Y-134602262D01*
X190088007Y-134790000D01*
X190104831Y-134836858D01*
X190107048Y-134840984D01*
X190197518Y-135009357D01*
X190225025Y-135060551D01*
X190227820Y-135064294D01*
X190227822Y-135064297D01*
X190374171Y-135260282D01*
X190374176Y-135260288D01*
X190376963Y-135264020D01*
X190380272Y-135267300D01*
X190380277Y-135267306D01*
X190478859Y-135365031D01*
X190557307Y-135442797D01*
X190561069Y-135445555D01*
X190561072Y-135445558D01*
X190666764Y-135523054D01*
X190762094Y-135592953D01*
X190766229Y-135595129D01*
X190766233Y-135595131D01*
X190884289Y-135657243D01*
X190986827Y-135711191D01*
X191100868Y-135751016D01*
X191159594Y-135771524D01*
X191217312Y-135812866D01*
X191243515Y-135878850D01*
X191229886Y-135948526D01*
X191180750Y-135999773D01*
X191153311Y-136011446D01*
X191074655Y-136034371D01*
X191065915Y-136037639D01*
X190843869Y-136140004D01*
X190835714Y-136144524D01*
X190668468Y-136254175D01*
X190659330Y-136264917D01*
X190663903Y-136274693D01*
X191657188Y-137267978D01*
X191671132Y-137275592D01*
X191672965Y-137275461D01*
X191679580Y-137271210D01*
X192672488Y-136278302D01*
X192678872Y-136266612D01*
X192669460Y-136254502D01*
X192543144Y-136166873D01*
X192535116Y-136162145D01*
X192315810Y-136053995D01*
X192307180Y-136050508D01*
X192184999Y-136011397D01*
X192126220Y-135971579D01*
X192098298Y-135906303D01*
X192110100Y-135836294D01*
X192157877Y-135783779D01*
X192191334Y-135769547D01*
X192223270Y-135761139D01*
X192223272Y-135761138D01*
X192227793Y-135759948D01*
X192346353Y-135709011D01*
X192456807Y-135661557D01*
X192456810Y-135661555D01*
X192461110Y-135659708D01*
X192465090Y-135657245D01*
X192465094Y-135657243D01*
X192673064Y-135528547D01*
X192673066Y-135528545D01*
X192677047Y-135526082D01*
X192776650Y-135441762D01*
X192867289Y-135365031D01*
X192867291Y-135365029D01*
X192870862Y-135362006D01*
X193038295Y-135171084D01*
X193175669Y-134957512D01*
X193279967Y-134725980D01*
X193281239Y-134721469D01*
X193282833Y-134717090D01*
X193284852Y-134717825D01*
X193317893Y-134665172D01*
X193382151Y-134634983D01*
X193401428Y-134633500D01*
X196900606Y-134633500D01*
X196968727Y-134653502D01*
X197003819Y-134687229D01*
X197108591Y-134836858D01*
X197113802Y-134844300D01*
X197275700Y-135006198D01*
X197280208Y-135009355D01*
X197280211Y-135009357D01*
X197347440Y-135056431D01*
X197463251Y-135137523D01*
X197468233Y-135139846D01*
X197468238Y-135139849D01*
X197638825Y-135219394D01*
X197670757Y-135234284D01*
X197676065Y-135235706D01*
X197676067Y-135235707D01*
X197886598Y-135292119D01*
X197886600Y-135292119D01*
X197891913Y-135293543D01*
X198120000Y-135313498D01*
X198348087Y-135293543D01*
X198353400Y-135292119D01*
X198353402Y-135292119D01*
X198563933Y-135235707D01*
X198563935Y-135235706D01*
X198569243Y-135234284D01*
X198601175Y-135219394D01*
X198771762Y-135139849D01*
X198771767Y-135139846D01*
X198776749Y-135137523D01*
X198892560Y-135056431D01*
X198959789Y-135009357D01*
X198959792Y-135009355D01*
X198964300Y-135006198D01*
X199126198Y-134844300D01*
X199134497Y-134832449D01*
X199214757Y-134717825D01*
X199257523Y-134656749D01*
X199259846Y-134651767D01*
X199259849Y-134651762D01*
X199351961Y-134454225D01*
X199351961Y-134454224D01*
X199354284Y-134449243D01*
X199381199Y-134348798D01*
X199412119Y-134233402D01*
X199412119Y-134233400D01*
X199413543Y-134228087D01*
X199433498Y-134000000D01*
X199413543Y-133771913D01*
X199411208Y-133763199D01*
X199355707Y-133556067D01*
X199355706Y-133556065D01*
X199354284Y-133550757D01*
X199328964Y-133496457D01*
X199259849Y-133348238D01*
X199259846Y-133348233D01*
X199257523Y-133343251D01*
X199144702Y-133182126D01*
X199129357Y-133160211D01*
X199129355Y-133160208D01*
X199126198Y-133155700D01*
X198964300Y-132993802D01*
X198959792Y-132990645D01*
X198959789Y-132990643D01*
X198856696Y-132918457D01*
X198776749Y-132862477D01*
X198771767Y-132860154D01*
X198771762Y-132860151D01*
X198574225Y-132768039D01*
X198574224Y-132768039D01*
X198569243Y-132765716D01*
X198563935Y-132764294D01*
X198563933Y-132764293D01*
X198353402Y-132707881D01*
X198353400Y-132707881D01*
X198348087Y-132706457D01*
X198120000Y-132686502D01*
X197891913Y-132706457D01*
X197886600Y-132707881D01*
X197886598Y-132707881D01*
X197676067Y-132764293D01*
X197676065Y-132764294D01*
X197670757Y-132765716D01*
X197665776Y-132768039D01*
X197665775Y-132768039D01*
X197468238Y-132860151D01*
X197468233Y-132860154D01*
X197463251Y-132862477D01*
X197383304Y-132918457D01*
X197280211Y-132990643D01*
X197280208Y-132990645D01*
X197275700Y-132993802D01*
X197113802Y-133155700D01*
X197110645Y-133160208D01*
X197110643Y-133160211D01*
X197003819Y-133312771D01*
X196948362Y-133357099D01*
X196900606Y-133366500D01*
X193268980Y-133366500D01*
X193200859Y-133346498D01*
X193159587Y-133303023D01*
X193092702Y-133185997D01*
X193092700Y-133185995D01*
X193090383Y-133181940D01*
X192933171Y-132982517D01*
X192805564Y-132862477D01*
X192751610Y-132811722D01*
X192751608Y-132811720D01*
X192748209Y-132808523D01*
X192704483Y-132778189D01*
X192543393Y-132666437D01*
X192543390Y-132666435D01*
X192539561Y-132663779D01*
X192535384Y-132661719D01*
X192535377Y-132661715D01*
X192315996Y-132553528D01*
X192315992Y-132553527D01*
X192311810Y-132551464D01*
X192185901Y-132511160D01*
X192127121Y-132471342D01*
X192099199Y-132406067D01*
X192111000Y-132336058D01*
X192158778Y-132283543D01*
X192192234Y-132269310D01*
X192193929Y-132268864D01*
X192227793Y-132259948D01*
X192444568Y-132166815D01*
X192456807Y-132161557D01*
X192456810Y-132161555D01*
X192461110Y-132159708D01*
X192465090Y-132157245D01*
X192465094Y-132157243D01*
X192673064Y-132028547D01*
X192673066Y-132028545D01*
X192677047Y-132026082D01*
X192698171Y-132008199D01*
X192867289Y-131865031D01*
X192867291Y-131865029D01*
X192870862Y-131862006D01*
X193038295Y-131671084D01*
X193175669Y-131457512D01*
X193279967Y-131225980D01*
X193348896Y-130981575D01*
X193380943Y-130729667D01*
X193383291Y-130640000D01*
X193364472Y-130386759D01*
X193308428Y-130139082D01*
X193264944Y-130027263D01*
X193218084Y-129906762D01*
X193218083Y-129906760D01*
X193216391Y-129902409D01*
X193202221Y-129877617D01*
X193092702Y-129685997D01*
X193092700Y-129685995D01*
X193090383Y-129681940D01*
X192933171Y-129482517D01*
X192748209Y-129308523D01*
X192706789Y-129279789D01*
X192543393Y-129166437D01*
X192543390Y-129166435D01*
X192539561Y-129163779D01*
X192535384Y-129161719D01*
X192535377Y-129161715D01*
X192315996Y-129053528D01*
X192315992Y-129053527D01*
X192311810Y-129051464D01*
X192069960Y-128974047D01*
X191891491Y-128944982D01*
X191823935Y-128933980D01*
X191823934Y-128933980D01*
X191819323Y-128933229D01*
X191692365Y-128931567D01*
X191570083Y-128929966D01*
X191570080Y-128929966D01*
X191565406Y-128929905D01*
X191489749Y-128940201D01*
X191376491Y-128955615D01*
X191306295Y-128944982D01*
X191252992Y-128898086D01*
X191233500Y-128830766D01*
X191233500Y-119326062D01*
X199938493Y-119326062D01*
X199947789Y-119338077D01*
X199998994Y-119373931D01*
X200008489Y-119379414D01*
X200205947Y-119471490D01*
X200216239Y-119475236D01*
X200426688Y-119531625D01*
X200437481Y-119533528D01*
X200654525Y-119552517D01*
X200665475Y-119552517D01*
X200882519Y-119533528D01*
X200893312Y-119531625D01*
X201103761Y-119475236D01*
X201114053Y-119471490D01*
X201311511Y-119379414D01*
X201321006Y-119373931D01*
X201373048Y-119337491D01*
X201381424Y-119327012D01*
X201374356Y-119313566D01*
X200672812Y-118612022D01*
X200658868Y-118604408D01*
X200657035Y-118604539D01*
X200650420Y-118608790D01*
X199944923Y-119314287D01*
X199938493Y-119326062D01*
X191233500Y-119326062D01*
X191233500Y-118245475D01*
X199347483Y-118245475D01*
X199366472Y-118462519D01*
X199368375Y-118473312D01*
X199424764Y-118683761D01*
X199428510Y-118694053D01*
X199520586Y-118891511D01*
X199526069Y-118901006D01*
X199562509Y-118953048D01*
X199572988Y-118961424D01*
X199586434Y-118954356D01*
X200287978Y-118252812D01*
X200294356Y-118241132D01*
X201024408Y-118241132D01*
X201024539Y-118242965D01*
X201028790Y-118249580D01*
X201734287Y-118955077D01*
X201746062Y-118961507D01*
X201758077Y-118952211D01*
X201793931Y-118901006D01*
X201799414Y-118891511D01*
X201891490Y-118694053D01*
X201895236Y-118683761D01*
X201951625Y-118473312D01*
X201953528Y-118462519D01*
X201972517Y-118245475D01*
X201972517Y-118234525D01*
X201953528Y-118017481D01*
X201951625Y-118006688D01*
X201895236Y-117796239D01*
X201891490Y-117785947D01*
X201799414Y-117588489D01*
X201793931Y-117578994D01*
X201757491Y-117526952D01*
X201747012Y-117518576D01*
X201733566Y-117525644D01*
X201032022Y-118227188D01*
X201024408Y-118241132D01*
X200294356Y-118241132D01*
X200295592Y-118238868D01*
X200295461Y-118237035D01*
X200291210Y-118230420D01*
X199585713Y-117524923D01*
X199573938Y-117518493D01*
X199561923Y-117527789D01*
X199526069Y-117578994D01*
X199520586Y-117588489D01*
X199428510Y-117785947D01*
X199424764Y-117796239D01*
X199368375Y-118006688D01*
X199366472Y-118017481D01*
X199347483Y-118234525D01*
X199347483Y-118245475D01*
X191233500Y-118245475D01*
X191233500Y-117556062D01*
X192318493Y-117556062D01*
X192327789Y-117568077D01*
X192378994Y-117603931D01*
X192388489Y-117609414D01*
X192585947Y-117701490D01*
X192596239Y-117705236D01*
X192806688Y-117761625D01*
X192817481Y-117763528D01*
X193034525Y-117782517D01*
X193045475Y-117782517D01*
X193262519Y-117763528D01*
X193273312Y-117761625D01*
X193483761Y-117705236D01*
X193494053Y-117701490D01*
X193691511Y-117609414D01*
X193701006Y-117603931D01*
X193753048Y-117567491D01*
X193761424Y-117557012D01*
X193754356Y-117543566D01*
X193052812Y-116842022D01*
X193038868Y-116834408D01*
X193037035Y-116834539D01*
X193030420Y-116838790D01*
X192324923Y-117544287D01*
X192318493Y-117556062D01*
X191233500Y-117556062D01*
X191233500Y-116475475D01*
X191727483Y-116475475D01*
X191746472Y-116692519D01*
X191748375Y-116703312D01*
X191804764Y-116913761D01*
X191808510Y-116924053D01*
X191900586Y-117121511D01*
X191906069Y-117131006D01*
X191942509Y-117183048D01*
X191952988Y-117191424D01*
X191966434Y-117184356D01*
X192667978Y-116482812D01*
X192674356Y-116471132D01*
X193404408Y-116471132D01*
X193404539Y-116472965D01*
X193408790Y-116479580D01*
X194114287Y-117185077D01*
X194126062Y-117191507D01*
X194138077Y-117182211D01*
X194158539Y-117152988D01*
X199938576Y-117152988D01*
X199945644Y-117166434D01*
X200647188Y-117867978D01*
X200661132Y-117875592D01*
X200662965Y-117875461D01*
X200669580Y-117871210D01*
X201375077Y-117165713D01*
X201381507Y-117153938D01*
X201372211Y-117141923D01*
X201321006Y-117106069D01*
X201311511Y-117100586D01*
X201114053Y-117008510D01*
X201103761Y-117004764D01*
X200893312Y-116948375D01*
X200882519Y-116946472D01*
X200665475Y-116927483D01*
X200654525Y-116927483D01*
X200437481Y-116946472D01*
X200426688Y-116948375D01*
X200216239Y-117004764D01*
X200205947Y-117008510D01*
X200008489Y-117100586D01*
X199998994Y-117106069D01*
X199946952Y-117142509D01*
X199938576Y-117152988D01*
X194158539Y-117152988D01*
X194173931Y-117131006D01*
X194179414Y-117121511D01*
X194271490Y-116924053D01*
X194275236Y-116913761D01*
X194331625Y-116703312D01*
X194333528Y-116692519D01*
X194352517Y-116475475D01*
X194352517Y-116464525D01*
X194333528Y-116247481D01*
X194331625Y-116236688D01*
X194275236Y-116026239D01*
X194271490Y-116015947D01*
X194179414Y-115818489D01*
X194173931Y-115808994D01*
X194137491Y-115756952D01*
X194127012Y-115748576D01*
X194113566Y-115755644D01*
X193412022Y-116457188D01*
X193404408Y-116471132D01*
X192674356Y-116471132D01*
X192675592Y-116468868D01*
X192675461Y-116467035D01*
X192671210Y-116460420D01*
X191965713Y-115754923D01*
X191953938Y-115748493D01*
X191941923Y-115757789D01*
X191906069Y-115808994D01*
X191900586Y-115818489D01*
X191808510Y-116015947D01*
X191804764Y-116026239D01*
X191748375Y-116236688D01*
X191746472Y-116247481D01*
X191727483Y-116464525D01*
X191727483Y-116475475D01*
X191233500Y-116475475D01*
X191233500Y-115884595D01*
X191253502Y-115816474D01*
X191270405Y-115795499D01*
X191811404Y-115254501D01*
X191873716Y-115220476D01*
X191944532Y-115225541D01*
X192003713Y-115271328D01*
X192030641Y-115309787D01*
X192030643Y-115309789D01*
X192033802Y-115314300D01*
X192195700Y-115476198D01*
X192200208Y-115479355D01*
X192200211Y-115479357D01*
X192215368Y-115489970D01*
X192383251Y-115607523D01*
X192388233Y-115609846D01*
X192388238Y-115609849D01*
X192585775Y-115701961D01*
X192590757Y-115704284D01*
X192596065Y-115705706D01*
X192596067Y-115705707D01*
X192616527Y-115711189D01*
X192673011Y-115743801D01*
X193027188Y-116097978D01*
X193041132Y-116105592D01*
X193042965Y-116105461D01*
X193049580Y-116101210D01*
X193406989Y-115743801D01*
X193463473Y-115711189D01*
X193483933Y-115705707D01*
X193483935Y-115705706D01*
X193489243Y-115704284D01*
X193494225Y-115701961D01*
X193691762Y-115609849D01*
X193691767Y-115609846D01*
X193696749Y-115607523D01*
X193864632Y-115489970D01*
X193879789Y-115479357D01*
X193879792Y-115479355D01*
X193884300Y-115476198D01*
X194046198Y-115314300D01*
X194049358Y-115309787D01*
X194156181Y-115157229D01*
X194211638Y-115112901D01*
X194259394Y-115103500D01*
X199351233Y-115103500D01*
X199362416Y-115104027D01*
X199369909Y-115105702D01*
X199377835Y-115105453D01*
X199377836Y-115105453D01*
X199437986Y-115103562D01*
X199441945Y-115103500D01*
X199469856Y-115103500D01*
X199473791Y-115103003D01*
X199473856Y-115102995D01*
X199485693Y-115102062D01*
X199517951Y-115101048D01*
X199521970Y-115100922D01*
X199529889Y-115100673D01*
X199549343Y-115095021D01*
X199568700Y-115091013D01*
X199580930Y-115089468D01*
X199580931Y-115089468D01*
X199588797Y-115088474D01*
X199596168Y-115085555D01*
X199596170Y-115085555D01*
X199629912Y-115072196D01*
X199641142Y-115068351D01*
X199675983Y-115058229D01*
X199675984Y-115058229D01*
X199683593Y-115056018D01*
X199690412Y-115051985D01*
X199690417Y-115051983D01*
X199701028Y-115045707D01*
X199718776Y-115037012D01*
X199737617Y-115029552D01*
X199773387Y-115003564D01*
X199783307Y-114997048D01*
X199814535Y-114978580D01*
X199814538Y-114978578D01*
X199821362Y-114974542D01*
X199835683Y-114960221D01*
X199850717Y-114947380D01*
X199860694Y-114940131D01*
X199867107Y-114935472D01*
X199895298Y-114901395D01*
X199903288Y-114892616D01*
X200246752Y-114549152D01*
X200309064Y-114515126D01*
X200368459Y-114516541D01*
X200426591Y-114532118D01*
X200426602Y-114532120D01*
X200431913Y-114533543D01*
X200660000Y-114553498D01*
X200888087Y-114533543D01*
X200893400Y-114532119D01*
X200893402Y-114532119D01*
X201103933Y-114475707D01*
X201103935Y-114475706D01*
X201109243Y-114474284D01*
X201116050Y-114471110D01*
X201311762Y-114379849D01*
X201311767Y-114379846D01*
X201316749Y-114377523D01*
X201471030Y-114269494D01*
X201499789Y-114249357D01*
X201499792Y-114249355D01*
X201504300Y-114246198D01*
X201666198Y-114084300D01*
X201692047Y-114047384D01*
X201776181Y-113927229D01*
X201831638Y-113882901D01*
X201879394Y-113873500D01*
X212068615Y-113873500D01*
X212136736Y-113893502D01*
X212171827Y-113927228D01*
X212253802Y-114044300D01*
X212415700Y-114206198D01*
X212420208Y-114209355D01*
X212420211Y-114209357D01*
X212467260Y-114242301D01*
X212603251Y-114337523D01*
X212608233Y-114339846D01*
X212608238Y-114339849D01*
X212805775Y-114431961D01*
X212810757Y-114434284D01*
X212816065Y-114435706D01*
X212816067Y-114435707D01*
X213026598Y-114492119D01*
X213026600Y-114492119D01*
X213031913Y-114493543D01*
X213260000Y-114513498D01*
X213488087Y-114493543D01*
X213493400Y-114492119D01*
X213493402Y-114492119D01*
X213703933Y-114435707D01*
X213703935Y-114435706D01*
X213709243Y-114434284D01*
X213714225Y-114431961D01*
X213911762Y-114339849D01*
X213911767Y-114339846D01*
X213916749Y-114337523D01*
X214052740Y-114242301D01*
X214099789Y-114209357D01*
X214099792Y-114209355D01*
X214104300Y-114206198D01*
X214266198Y-114044300D01*
X214270186Y-114038605D01*
X214376181Y-113887229D01*
X214431638Y-113842901D01*
X214479394Y-113833500D01*
X226470500Y-113833500D01*
X226538621Y-113853502D01*
X226585114Y-113907158D01*
X226596500Y-113959500D01*
X226596500Y-131700933D01*
X226576498Y-131769054D01*
X226529654Y-131812184D01*
X226430302Y-131865010D01*
X226273237Y-131993110D01*
X226269310Y-131997857D01*
X226269308Y-131997859D01*
X226147973Y-132144528D01*
X226147971Y-132144531D01*
X226144044Y-132149278D01*
X226047644Y-132327565D01*
X226045015Y-132336058D01*
X225990812Y-132511160D01*
X225987710Y-132521180D01*
X225987066Y-132527305D01*
X225987066Y-132527306D01*
X225984527Y-132551464D01*
X225966524Y-132722750D01*
X225970305Y-132764293D01*
X225979241Y-132862477D01*
X225984894Y-132924596D01*
X225986632Y-132930502D01*
X225986633Y-132930506D01*
X226006409Y-132997699D01*
X226042119Y-133119029D01*
X226044972Y-133124486D01*
X226044973Y-133124489D01*
X226133162Y-133293181D01*
X226133165Y-133293185D01*
X226136019Y-133298645D01*
X226136221Y-133298897D01*
X226156201Y-133364912D01*
X226141041Y-133425885D01*
X226051038Y-133592342D01*
X226046286Y-133603647D01*
X226007578Y-133728692D01*
X226007372Y-133742795D01*
X226014127Y-133746000D01*
X226783758Y-133746000D01*
X226797803Y-133746785D01*
X226946817Y-133763500D01*
X227506004Y-133763500D01*
X227656713Y-133748723D01*
X227659002Y-133748032D01*
X227679724Y-133746000D01*
X228438986Y-133746000D01*
X228452517Y-133742027D01*
X228453637Y-133734232D01*
X228419154Y-133617068D01*
X228414561Y-133605700D01*
X228326416Y-133437093D01*
X228324403Y-133434017D01*
X228323846Y-133432178D01*
X228323560Y-133431630D01*
X228323664Y-133431576D01*
X228303839Y-133366064D01*
X228318999Y-133305094D01*
X228385488Y-133182126D01*
X228412356Y-133132435D01*
X228457628Y-132986185D01*
X228470468Y-132944707D01*
X228470469Y-132944704D01*
X228472290Y-132938820D01*
X228480559Y-132860151D01*
X228492832Y-132743378D01*
X228492832Y-132743377D01*
X228493476Y-132737250D01*
X228484586Y-132639565D01*
X228475665Y-132541543D01*
X228475664Y-132541540D01*
X228475106Y-132535404D01*
X228456252Y-132471342D01*
X228419620Y-132346880D01*
X228417881Y-132340971D01*
X228413951Y-132333452D01*
X228326835Y-132166815D01*
X228323981Y-132161355D01*
X228318630Y-132154699D01*
X228266761Y-132090188D01*
X228196981Y-132003399D01*
X228041719Y-131873119D01*
X228036327Y-131870155D01*
X228036323Y-131870152D01*
X227971515Y-131834524D01*
X227928798Y-131811040D01*
X227878741Y-131760696D01*
X227863500Y-131700626D01*
X227863500Y-116068675D01*
X236912788Y-116068675D01*
X236916275Y-116077064D01*
X237477189Y-116637979D01*
X237491132Y-116645592D01*
X237492966Y-116645461D01*
X237499580Y-116641210D01*
X238060285Y-116080504D01*
X238067042Y-116068129D01*
X238061012Y-116060073D01*
X238000061Y-116021616D01*
X237989813Y-116016395D01*
X237811401Y-115945216D01*
X237800373Y-115941949D01*
X237611982Y-115904476D01*
X237600535Y-115903273D01*
X237408477Y-115900759D01*
X237396997Y-115901662D01*
X237207697Y-115934190D01*
X237196577Y-115937170D01*
X237016365Y-116003653D01*
X237005991Y-116008601D01*
X236922385Y-116058342D01*
X236912788Y-116068675D01*
X227863500Y-116068675D01*
X227863500Y-113959500D01*
X227883502Y-113891379D01*
X227937158Y-113844886D01*
X227989500Y-113833500D01*
X229820606Y-113833500D01*
X229888727Y-113853502D01*
X229923819Y-113887229D01*
X230029814Y-114038605D01*
X230033802Y-114044300D01*
X230195700Y-114206198D01*
X230200208Y-114209355D01*
X230200211Y-114209357D01*
X230247260Y-114242301D01*
X230383251Y-114337523D01*
X230388233Y-114339846D01*
X230388238Y-114339849D01*
X230585775Y-114431961D01*
X230590757Y-114434284D01*
X230596065Y-114435706D01*
X230596067Y-114435707D01*
X230806598Y-114492119D01*
X230806600Y-114492119D01*
X230811913Y-114493543D01*
X231040000Y-114513498D01*
X231268087Y-114493543D01*
X231273400Y-114492119D01*
X231273402Y-114492119D01*
X231483933Y-114435707D01*
X231483935Y-114435706D01*
X231489243Y-114434284D01*
X231494225Y-114431961D01*
X231691762Y-114339849D01*
X231691767Y-114339846D01*
X231696749Y-114337523D01*
X231832740Y-114242301D01*
X231879789Y-114209357D01*
X231879792Y-114209355D01*
X231884300Y-114206198D01*
X232046198Y-114044300D01*
X232050186Y-114038605D01*
X232156181Y-113887229D01*
X232211638Y-113842901D01*
X232259394Y-113833500D01*
X242620606Y-113833500D01*
X242688727Y-113853502D01*
X242723819Y-113887229D01*
X242829814Y-114038605D01*
X242833802Y-114044300D01*
X242995700Y-114206198D01*
X243000208Y-114209355D01*
X243000211Y-114209357D01*
X243047260Y-114242301D01*
X243183251Y-114337523D01*
X243188233Y-114339846D01*
X243188238Y-114339849D01*
X243385775Y-114431961D01*
X243390757Y-114434284D01*
X243396065Y-114435706D01*
X243396067Y-114435707D01*
X243606598Y-114492119D01*
X243606600Y-114492119D01*
X243611913Y-114493543D01*
X243840000Y-114513498D01*
X244068087Y-114493543D01*
X244073400Y-114492119D01*
X244073402Y-114492119D01*
X244283933Y-114435707D01*
X244283935Y-114435706D01*
X244289243Y-114434284D01*
X244294225Y-114431961D01*
X244491762Y-114339849D01*
X244491767Y-114339846D01*
X244496749Y-114337523D01*
X244632740Y-114242301D01*
X244679789Y-114209357D01*
X244679792Y-114209355D01*
X244684300Y-114206198D01*
X244846198Y-114044300D01*
X244850186Y-114038605D01*
X244956181Y-113887229D01*
X245011638Y-113842901D01*
X245059394Y-113833500D01*
X249626406Y-113833500D01*
X249694527Y-113853502D01*
X249741020Y-113907158D01*
X249751124Y-113977432D01*
X249721630Y-114042012D01*
X249715501Y-114048595D01*
X244253248Y-119510848D01*
X244190936Y-119544874D01*
X244131541Y-119543459D01*
X244073409Y-119527882D01*
X244073398Y-119527880D01*
X244068087Y-119526457D01*
X243840000Y-119506502D01*
X243611913Y-119526457D01*
X243606600Y-119527881D01*
X243606598Y-119527881D01*
X243396067Y-119584293D01*
X243396065Y-119584294D01*
X243390757Y-119585716D01*
X243385776Y-119588039D01*
X243385775Y-119588039D01*
X243188238Y-119680151D01*
X243188233Y-119680154D01*
X243183251Y-119682477D01*
X243152772Y-119703819D01*
X243000211Y-119810643D01*
X243000208Y-119810645D01*
X242995700Y-119813802D01*
X242833802Y-119975700D01*
X242702477Y-120163251D01*
X242700154Y-120168233D01*
X242700151Y-120168238D01*
X242608039Y-120365775D01*
X242605716Y-120370757D01*
X242604294Y-120376065D01*
X242604293Y-120376067D01*
X242547883Y-120586591D01*
X242546457Y-120591913D01*
X242526502Y-120820000D01*
X242546457Y-121048087D01*
X242547881Y-121053400D01*
X242547881Y-121053402D01*
X242600934Y-121251395D01*
X242605716Y-121269243D01*
X242608039Y-121274224D01*
X242608039Y-121274225D01*
X242700151Y-121471762D01*
X242700154Y-121471767D01*
X242702477Y-121476749D01*
X242833802Y-121664300D01*
X242995700Y-121826198D01*
X243000208Y-121829355D01*
X243000211Y-121829357D01*
X243152771Y-121936181D01*
X243197099Y-121991638D01*
X243206500Y-122039394D01*
X243206500Y-123430933D01*
X243186498Y-123499054D01*
X243139654Y-123542184D01*
X243040302Y-123595010D01*
X242883237Y-123723110D01*
X242879310Y-123727857D01*
X242879308Y-123727859D01*
X242757973Y-123874528D01*
X242757971Y-123874531D01*
X242754044Y-123879278D01*
X242657644Y-124057565D01*
X242597710Y-124251180D01*
X242576524Y-124452750D01*
X242594894Y-124654596D01*
X242652119Y-124849029D01*
X242654972Y-124854486D01*
X242654973Y-124854489D01*
X242659127Y-124862435D01*
X242745923Y-125028460D01*
X242745923Y-125028462D01*
X242746019Y-125028645D01*
X242745984Y-125028663D01*
X242765889Y-125094441D01*
X242750729Y-125155409D01*
X242657644Y-125327565D01*
X242597710Y-125521180D01*
X242576524Y-125722750D01*
X242594894Y-125924596D01*
X242596632Y-125930502D01*
X242596633Y-125930506D01*
X242600813Y-125944707D01*
X242650788Y-126114507D01*
X242652119Y-126119029D01*
X242651260Y-126119282D01*
X242657714Y-126184662D01*
X242644548Y-126221406D01*
X242639385Y-126228295D01*
X242636234Y-126236699D01*
X242636234Y-126236700D01*
X242618228Y-126284730D01*
X242575586Y-126341495D01*
X242509024Y-126366194D01*
X242500246Y-126366500D01*
X232407165Y-126366500D01*
X232339044Y-126346498D01*
X232292551Y-126292842D01*
X232282447Y-126222568D01*
X232296329Y-126180571D01*
X232319426Y-126137853D01*
X232322356Y-126132435D01*
X232382290Y-125938820D01*
X232403476Y-125737250D01*
X232385106Y-125535404D01*
X232379188Y-125515294D01*
X232329620Y-125346879D01*
X232329619Y-125346877D01*
X232327881Y-125340971D01*
X232328740Y-125340718D01*
X232322286Y-125275338D01*
X232335452Y-125238594D01*
X232340615Y-125231705D01*
X232343768Y-125223296D01*
X232388971Y-125102715D01*
X232391745Y-125095316D01*
X232398500Y-125033134D01*
X232398500Y-123886866D01*
X232391745Y-123824684D01*
X232340615Y-123688295D01*
X232253261Y-123571739D01*
X232136705Y-123484385D01*
X232000316Y-123433255D01*
X231938134Y-123426500D01*
X231799500Y-123426500D01*
X231731379Y-123406498D01*
X231684886Y-123352842D01*
X231673500Y-123300500D01*
X231673500Y-122039394D01*
X231693502Y-121971273D01*
X231727229Y-121936181D01*
X231879789Y-121829357D01*
X231879792Y-121829355D01*
X231884300Y-121826198D01*
X232046198Y-121664300D01*
X232156181Y-121507229D01*
X232211638Y-121462901D01*
X232259394Y-121453500D01*
X235101233Y-121453500D01*
X235112416Y-121454027D01*
X235119909Y-121455702D01*
X235127835Y-121455453D01*
X235127836Y-121455453D01*
X235187986Y-121453562D01*
X235191945Y-121453500D01*
X235219856Y-121453500D01*
X235223791Y-121453003D01*
X235223856Y-121452995D01*
X235235693Y-121452062D01*
X235267951Y-121451048D01*
X235271970Y-121450922D01*
X235279889Y-121450673D01*
X235299343Y-121445021D01*
X235318700Y-121441013D01*
X235330930Y-121439468D01*
X235330931Y-121439468D01*
X235338797Y-121438474D01*
X235346168Y-121435555D01*
X235346170Y-121435555D01*
X235379912Y-121422196D01*
X235391142Y-121418351D01*
X235425983Y-121408229D01*
X235425984Y-121408229D01*
X235433593Y-121406018D01*
X235440412Y-121401985D01*
X235440417Y-121401983D01*
X235451028Y-121395707D01*
X235468776Y-121387012D01*
X235487617Y-121379552D01*
X235523387Y-121353564D01*
X235533307Y-121347048D01*
X235564535Y-121328580D01*
X235564538Y-121328578D01*
X235571362Y-121324542D01*
X235585683Y-121310221D01*
X235600717Y-121297380D01*
X235610694Y-121290131D01*
X235617107Y-121285472D01*
X235645298Y-121251395D01*
X235653288Y-121242616D01*
X237245985Y-119649919D01*
X237308297Y-119615893D01*
X237344666Y-119614377D01*
X237344692Y-119613725D01*
X237548263Y-119621723D01*
X237749883Y-119592490D01*
X237755347Y-119590635D01*
X237755352Y-119590634D01*
X237937327Y-119528862D01*
X237937332Y-119528860D01*
X237942799Y-119527004D01*
X238120551Y-119427458D01*
X238277186Y-119297186D01*
X238407458Y-119140551D01*
X238507004Y-118962799D01*
X238508860Y-118957332D01*
X238508862Y-118957327D01*
X238570634Y-118775352D01*
X238570635Y-118775347D01*
X238572490Y-118769883D01*
X238601723Y-118568263D01*
X238603249Y-118510000D01*
X238584608Y-118307126D01*
X238567220Y-118245475D01*
X238530875Y-118116606D01*
X238530874Y-118116604D01*
X238529307Y-118111047D01*
X238518680Y-118089496D01*
X238441756Y-117933510D01*
X238439201Y-117928329D01*
X238424614Y-117908795D01*
X238370078Y-117835762D01*
X238345346Y-117769212D01*
X238360520Y-117699856D01*
X238374161Y-117679805D01*
X238403354Y-117644704D01*
X238409863Y-117635233D01*
X238503726Y-117467628D01*
X238508400Y-117457131D01*
X238570144Y-117275240D01*
X238572832Y-117264045D01*
X238600689Y-117071911D01*
X238601319Y-117064528D01*
X238602650Y-117013704D01*
X238602407Y-117006305D01*
X238584643Y-116812975D01*
X238582545Y-116801654D01*
X238530408Y-116616791D01*
X238526283Y-116606044D01*
X238442163Y-116435465D01*
X238434869Y-116429990D01*
X238422449Y-116436762D01*
X237579095Y-117280115D01*
X237516783Y-117314140D01*
X237445967Y-117309075D01*
X237400905Y-117280115D01*
X236558538Y-116437749D01*
X236546163Y-116430992D01*
X236540197Y-116435458D01*
X236464645Y-116579058D01*
X236460242Y-116589691D01*
X236403281Y-116773132D01*
X236400891Y-116784376D01*
X236378313Y-116975137D01*
X236378012Y-116986638D01*
X236390575Y-117178304D01*
X236392376Y-117189674D01*
X236439657Y-117375843D01*
X236443498Y-117386690D01*
X236523915Y-117561128D01*
X236529666Y-117571089D01*
X236611919Y-117687474D01*
X236634900Y-117754648D01*
X236617916Y-117823583D01*
X236607972Y-117838200D01*
X236556351Y-117903681D01*
X236461492Y-118083978D01*
X236401078Y-118278543D01*
X236377132Y-118480859D01*
X236377510Y-118486625D01*
X236388537Y-118654857D01*
X236373034Y-118724140D01*
X236351902Y-118752193D01*
X234954500Y-120149595D01*
X234892188Y-120183621D01*
X234865405Y-120186500D01*
X232259394Y-120186500D01*
X232191273Y-120166498D01*
X232156181Y-120132771D01*
X232049357Y-119980211D01*
X232049355Y-119980208D01*
X232046198Y-119975700D01*
X231884300Y-119813802D01*
X231879792Y-119810645D01*
X231879789Y-119810643D01*
X231727228Y-119703819D01*
X231696749Y-119682477D01*
X231691767Y-119680154D01*
X231691762Y-119680151D01*
X231494225Y-119588039D01*
X231494224Y-119588039D01*
X231489243Y-119585716D01*
X231483935Y-119584294D01*
X231483933Y-119584293D01*
X231273402Y-119527881D01*
X231273400Y-119527881D01*
X231268087Y-119526457D01*
X231040000Y-119506502D01*
X230811913Y-119526457D01*
X230806600Y-119527881D01*
X230806598Y-119527881D01*
X230596067Y-119584293D01*
X230596065Y-119584294D01*
X230590757Y-119585716D01*
X230585776Y-119588039D01*
X230585775Y-119588039D01*
X230388238Y-119680151D01*
X230388233Y-119680154D01*
X230383251Y-119682477D01*
X230352772Y-119703819D01*
X230200211Y-119810643D01*
X230200208Y-119810645D01*
X230195700Y-119813802D01*
X230033802Y-119975700D01*
X229902477Y-120163251D01*
X229900154Y-120168233D01*
X229900151Y-120168238D01*
X229808039Y-120365775D01*
X229805716Y-120370757D01*
X229804294Y-120376065D01*
X229804293Y-120376067D01*
X229747883Y-120586591D01*
X229746457Y-120591913D01*
X229726502Y-120820000D01*
X229746457Y-121048087D01*
X229747881Y-121053400D01*
X229747881Y-121053402D01*
X229800934Y-121251395D01*
X229805716Y-121269243D01*
X229808039Y-121274224D01*
X229808039Y-121274225D01*
X229900151Y-121471762D01*
X229900154Y-121471767D01*
X229902477Y-121476749D01*
X230033802Y-121664300D01*
X230195700Y-121826198D01*
X230200208Y-121829355D01*
X230200211Y-121829357D01*
X230352771Y-121936181D01*
X230397099Y-121991638D01*
X230406500Y-122039394D01*
X230406500Y-123306425D01*
X230386498Y-123374546D01*
X230332842Y-123421039D01*
X230294108Y-123431688D01*
X230293037Y-123431804D01*
X230279684Y-123433255D01*
X230143295Y-123484385D01*
X230026739Y-123571739D01*
X229939385Y-123688295D01*
X229888255Y-123824684D01*
X229881500Y-123886866D01*
X229881500Y-125033134D01*
X229888255Y-125095316D01*
X229891029Y-125102715D01*
X229936232Y-125223296D01*
X229936234Y-125223299D01*
X229939385Y-125231705D01*
X229944773Y-125238894D01*
X229944906Y-125239137D01*
X229960076Y-125308494D01*
X229954752Y-125336907D01*
X229897710Y-125521180D01*
X229876524Y-125722750D01*
X229894894Y-125924596D01*
X229896632Y-125930502D01*
X229896633Y-125930506D01*
X229900813Y-125944707D01*
X229952119Y-126119029D01*
X229954972Y-126124486D01*
X229954973Y-126124489D01*
X229959127Y-126132435D01*
X230045923Y-126298460D01*
X230045923Y-126298462D01*
X230046019Y-126298645D01*
X230045984Y-126298663D01*
X230065889Y-126364441D01*
X230050729Y-126425409D01*
X229957644Y-126597565D01*
X229897710Y-126791180D01*
X229876524Y-126992750D01*
X229894894Y-127194596D01*
X229896632Y-127200502D01*
X229896633Y-127200506D01*
X229925961Y-127300151D01*
X229952119Y-127389029D01*
X229954972Y-127394486D01*
X229954973Y-127394489D01*
X229977563Y-127437699D01*
X230046019Y-127568645D01*
X230049879Y-127573445D01*
X230049879Y-127573446D01*
X230067772Y-127595700D01*
X230173019Y-127726601D01*
X230328281Y-127856881D01*
X230333678Y-127859848D01*
X230333681Y-127859850D01*
X230341202Y-127863985D01*
X230391260Y-127914331D01*
X230406500Y-127974399D01*
X230406500Y-147540606D01*
X230386498Y-147608727D01*
X230352771Y-147643819D01*
X230200211Y-147750643D01*
X230200208Y-147750645D01*
X230195700Y-147753802D01*
X230033802Y-147915700D01*
X229902477Y-148103251D01*
X229900154Y-148108233D01*
X229900151Y-148108238D01*
X229808039Y-148305775D01*
X229805716Y-148310757D01*
X229746457Y-148531913D01*
X229726502Y-148760000D01*
X229746457Y-148988087D01*
X229747881Y-148993400D01*
X229747881Y-148993402D01*
X229779375Y-149110936D01*
X229805716Y-149209243D01*
X229808039Y-149214224D01*
X229808039Y-149214225D01*
X229900151Y-149411762D01*
X229900154Y-149411767D01*
X229902477Y-149416749D01*
X230033802Y-149604300D01*
X230195700Y-149766198D01*
X230200208Y-149769355D01*
X230200211Y-149769357D01*
X230278389Y-149824098D01*
X230383251Y-149897523D01*
X230388233Y-149899846D01*
X230388238Y-149899849D01*
X230558825Y-149979394D01*
X230590757Y-149994284D01*
X230596065Y-149995706D01*
X230596067Y-149995707D01*
X230806598Y-150052119D01*
X230806600Y-150052119D01*
X230811913Y-150053543D01*
X231040000Y-150073498D01*
X231268087Y-150053543D01*
X231273400Y-150052119D01*
X231273402Y-150052119D01*
X231483933Y-149995707D01*
X231483935Y-149995706D01*
X231489243Y-149994284D01*
X231521175Y-149979394D01*
X231691762Y-149899849D01*
X231691767Y-149899846D01*
X231696749Y-149897523D01*
X231801611Y-149824098D01*
X231879789Y-149769357D01*
X231879792Y-149769355D01*
X231884300Y-149766198D01*
X232046198Y-149604300D01*
X232177523Y-149416749D01*
X232179846Y-149411767D01*
X232179849Y-149411762D01*
X232271961Y-149214225D01*
X232271961Y-149214224D01*
X232274284Y-149209243D01*
X232300626Y-149110936D01*
X232332119Y-148993402D01*
X232332119Y-148993400D01*
X232333543Y-148988087D01*
X232353498Y-148760000D01*
X232333543Y-148531913D01*
X232274284Y-148310757D01*
X232271961Y-148305775D01*
X232179849Y-148108238D01*
X232179846Y-148108233D01*
X232177523Y-148103251D01*
X232046198Y-147915700D01*
X231884300Y-147753802D01*
X231879792Y-147750645D01*
X231879789Y-147750643D01*
X231727229Y-147643819D01*
X231682901Y-147588362D01*
X231673500Y-147540606D01*
X231673500Y-128079800D01*
X231693502Y-128011679D01*
X231751486Y-127963307D01*
X231754846Y-127961922D01*
X231760742Y-127960142D01*
X231939698Y-127864990D01*
X231946001Y-127859850D01*
X232045265Y-127778891D01*
X232096763Y-127736890D01*
X232114649Y-127715270D01*
X232144500Y-127679185D01*
X232203333Y-127639447D01*
X232241585Y-127633500D01*
X242500246Y-127633500D01*
X242568367Y-127653502D01*
X242614860Y-127707158D01*
X242618228Y-127715270D01*
X242635406Y-127761092D01*
X242639385Y-127771705D01*
X242726739Y-127888261D01*
X242843295Y-127975615D01*
X242979684Y-128026745D01*
X243041866Y-128033500D01*
X243080500Y-128033500D01*
X243148621Y-128053502D01*
X243195114Y-128107158D01*
X243206500Y-128159500D01*
X243206500Y-141080500D01*
X243186498Y-141148621D01*
X243132842Y-141195114D01*
X243080500Y-141206500D01*
X243041866Y-141206500D01*
X242979684Y-141213255D01*
X242843295Y-141264385D01*
X242726739Y-141351739D01*
X242639385Y-141468295D01*
X242588255Y-141604684D01*
X242581500Y-141666866D01*
X242581500Y-142813134D01*
X242588255Y-142875316D01*
X242591029Y-142882715D01*
X242636232Y-143003296D01*
X242636234Y-143003299D01*
X242639385Y-143011705D01*
X242644773Y-143018894D01*
X242644906Y-143019137D01*
X242660076Y-143088494D01*
X242654752Y-143116907D01*
X242653494Y-143120971D01*
X242602876Y-143284493D01*
X242597710Y-143301180D01*
X242576524Y-143502750D01*
X242578799Y-143527750D01*
X242592483Y-143678100D01*
X242594894Y-143704596D01*
X242596632Y-143710502D01*
X242596633Y-143710506D01*
X242599080Y-143718820D01*
X242652119Y-143899029D01*
X242654972Y-143904486D01*
X242654973Y-143904489D01*
X242677563Y-143947699D01*
X242745923Y-144078460D01*
X242745923Y-144078462D01*
X242746019Y-144078645D01*
X242745984Y-144078663D01*
X242765889Y-144144441D01*
X242750729Y-144205409D01*
X242657644Y-144377565D01*
X242597710Y-144571180D01*
X242576524Y-144772750D01*
X242579235Y-144802540D01*
X242592841Y-144952033D01*
X242594894Y-144974596D01*
X242596632Y-144980502D01*
X242596633Y-144980506D01*
X242598989Y-144988510D01*
X242652119Y-145169029D01*
X242654972Y-145174486D01*
X242654973Y-145174489D01*
X242677563Y-145217699D01*
X242746019Y-145348645D01*
X242749879Y-145353445D01*
X242749879Y-145353446D01*
X242764897Y-145372125D01*
X242873019Y-145506601D01*
X243028281Y-145636881D01*
X243033673Y-145639845D01*
X243033677Y-145639848D01*
X243084884Y-145667999D01*
X243141202Y-145698960D01*
X243191259Y-145749304D01*
X243206500Y-145809374D01*
X243206500Y-147540606D01*
X243186498Y-147608727D01*
X243152771Y-147643819D01*
X243000211Y-147750643D01*
X243000208Y-147750645D01*
X242995700Y-147753802D01*
X242833802Y-147915700D01*
X242702477Y-148103251D01*
X242700154Y-148108233D01*
X242700151Y-148108238D01*
X242608039Y-148305775D01*
X242605716Y-148310757D01*
X242546457Y-148531913D01*
X242526502Y-148760000D01*
X242546457Y-148988087D01*
X242547881Y-148993400D01*
X242547881Y-148993402D01*
X242579375Y-149110936D01*
X242605716Y-149209243D01*
X242608039Y-149214224D01*
X242608039Y-149214225D01*
X242700151Y-149411762D01*
X242700154Y-149411767D01*
X242702477Y-149416749D01*
X242833802Y-149604300D01*
X242995700Y-149766198D01*
X243000208Y-149769355D01*
X243000211Y-149769357D01*
X243078389Y-149824098D01*
X243183251Y-149897523D01*
X243188233Y-149899846D01*
X243188238Y-149899849D01*
X243358825Y-149979394D01*
X243390757Y-149994284D01*
X243396065Y-149995706D01*
X243396067Y-149995707D01*
X243606598Y-150052119D01*
X243606600Y-150052119D01*
X243611913Y-150053543D01*
X243840000Y-150073498D01*
X244068087Y-150053543D01*
X244073398Y-150052120D01*
X244073409Y-150052118D01*
X244131541Y-150036541D01*
X244202517Y-150038230D01*
X244253248Y-150069152D01*
X249686348Y-155502253D01*
X249693888Y-155510539D01*
X249698000Y-155517018D01*
X249703777Y-155522443D01*
X249710386Y-155528649D01*
X249746352Y-155589862D01*
X249743515Y-155660802D01*
X249702775Y-155718946D01*
X249637067Y-155745835D01*
X249624134Y-155746500D01*
X245059394Y-155746500D01*
X244991273Y-155726498D01*
X244956181Y-155692771D01*
X244849357Y-155540211D01*
X244849355Y-155540208D01*
X244846198Y-155535700D01*
X244684300Y-155373802D01*
X244679792Y-155370645D01*
X244679789Y-155370643D01*
X244597029Y-155312694D01*
X244496749Y-155242477D01*
X244491767Y-155240154D01*
X244491762Y-155240151D01*
X244294225Y-155148039D01*
X244294224Y-155148039D01*
X244289243Y-155145716D01*
X244283935Y-155144294D01*
X244283933Y-155144293D01*
X244073402Y-155087881D01*
X244073400Y-155087881D01*
X244068087Y-155086457D01*
X243840000Y-155066502D01*
X243611913Y-155086457D01*
X243606600Y-155087881D01*
X243606598Y-155087881D01*
X243396067Y-155144293D01*
X243396065Y-155144294D01*
X243390757Y-155145716D01*
X243385776Y-155148039D01*
X243385775Y-155148039D01*
X243188238Y-155240151D01*
X243188233Y-155240154D01*
X243183251Y-155242477D01*
X243082971Y-155312694D01*
X243000211Y-155370643D01*
X243000208Y-155370645D01*
X242995700Y-155373802D01*
X242833802Y-155535700D01*
X242830645Y-155540208D01*
X242830643Y-155540211D01*
X242723819Y-155692771D01*
X242668362Y-155737099D01*
X242620606Y-155746500D01*
X232259394Y-155746500D01*
X232191273Y-155726498D01*
X232156181Y-155692771D01*
X232049357Y-155540211D01*
X232049355Y-155540208D01*
X232046198Y-155535700D01*
X231884300Y-155373802D01*
X231879792Y-155370645D01*
X231879789Y-155370643D01*
X231797029Y-155312694D01*
X231696749Y-155242477D01*
X231691767Y-155240154D01*
X231691762Y-155240151D01*
X231494225Y-155148039D01*
X231494224Y-155148039D01*
X231489243Y-155145716D01*
X231483935Y-155144294D01*
X231483933Y-155144293D01*
X231273402Y-155087881D01*
X231273400Y-155087881D01*
X231268087Y-155086457D01*
X231040000Y-155066502D01*
X230811913Y-155086457D01*
X230806600Y-155087881D01*
X230806598Y-155087881D01*
X230596067Y-155144293D01*
X230596065Y-155144294D01*
X230590757Y-155145716D01*
X230585776Y-155148039D01*
X230585775Y-155148039D01*
X230388238Y-155240151D01*
X230388233Y-155240154D01*
X230383251Y-155242477D01*
X230282971Y-155312694D01*
X230200211Y-155370643D01*
X230200208Y-155370645D01*
X230195700Y-155373802D01*
X230033802Y-155535700D01*
X230030645Y-155540208D01*
X230030643Y-155540211D01*
X229923819Y-155692771D01*
X229868362Y-155737099D01*
X229820606Y-155746500D01*
X220829394Y-155746500D01*
X220761273Y-155726498D01*
X220726181Y-155692771D01*
X220619357Y-155540211D01*
X220619355Y-155540208D01*
X220616198Y-155535700D01*
X220454300Y-155373802D01*
X220449792Y-155370645D01*
X220449789Y-155370643D01*
X220367029Y-155312694D01*
X220266749Y-155242477D01*
X220261767Y-155240154D01*
X220261762Y-155240151D01*
X220064225Y-155148039D01*
X220064224Y-155148039D01*
X220059243Y-155145716D01*
X220053935Y-155144294D01*
X220053933Y-155144293D01*
X219843402Y-155087881D01*
X219843400Y-155087881D01*
X219838087Y-155086457D01*
X219610000Y-155066502D01*
X219381913Y-155086457D01*
X219376600Y-155087881D01*
X219376598Y-155087881D01*
X219166067Y-155144293D01*
X219166065Y-155144294D01*
X219160757Y-155145716D01*
X219155776Y-155148039D01*
X219155775Y-155148039D01*
X218958238Y-155240151D01*
X218958233Y-155240154D01*
X218953251Y-155242477D01*
X218852971Y-155312694D01*
X218770211Y-155370643D01*
X218770208Y-155370645D01*
X218765700Y-155373802D01*
X218603802Y-155535700D01*
X218600645Y-155540208D01*
X218600643Y-155540211D01*
X218493819Y-155692771D01*
X218438362Y-155737099D01*
X218390606Y-155746500D01*
X215749394Y-155746500D01*
X215681273Y-155726498D01*
X215646181Y-155692771D01*
X215539357Y-155540211D01*
X215539355Y-155540208D01*
X215536198Y-155535700D01*
X215374300Y-155373802D01*
X215369792Y-155370645D01*
X215369789Y-155370643D01*
X215287029Y-155312694D01*
X215186749Y-155242477D01*
X215181767Y-155240154D01*
X215181762Y-155240151D01*
X214984225Y-155148039D01*
X214984224Y-155148039D01*
X214979243Y-155145716D01*
X214973935Y-155144294D01*
X214973933Y-155144293D01*
X214763402Y-155087881D01*
X214763400Y-155087881D01*
X214758087Y-155086457D01*
X214530000Y-155066502D01*
X214301913Y-155086457D01*
X214296600Y-155087881D01*
X214296598Y-155087881D01*
X214086067Y-155144293D01*
X214086065Y-155144294D01*
X214080757Y-155145716D01*
X214075776Y-155148039D01*
X214075775Y-155148039D01*
X213878238Y-155240151D01*
X213878233Y-155240154D01*
X213873251Y-155242477D01*
X213772971Y-155312694D01*
X213690211Y-155370643D01*
X213690208Y-155370645D01*
X213685700Y-155373802D01*
X213523802Y-155535700D01*
X213520645Y-155540208D01*
X213520643Y-155540211D01*
X213413819Y-155692771D01*
X213358362Y-155737099D01*
X213310606Y-155746500D01*
X201879394Y-155746500D01*
X201811273Y-155726498D01*
X201776181Y-155692771D01*
X201669357Y-155540211D01*
X201669355Y-155540208D01*
X201666198Y-155535700D01*
X201504300Y-155373802D01*
X201499792Y-155370645D01*
X201499789Y-155370643D01*
X201417029Y-155312694D01*
X201316749Y-155242477D01*
X201311767Y-155240154D01*
X201311762Y-155240151D01*
X201114225Y-155148039D01*
X201114224Y-155148039D01*
X201109243Y-155145716D01*
X201103935Y-155144294D01*
X201103933Y-155144293D01*
X200893402Y-155087881D01*
X200893400Y-155087881D01*
X200888087Y-155086457D01*
X200660000Y-155066502D01*
X200431913Y-155086457D01*
X200426608Y-155087879D01*
X200426594Y-155087881D01*
X200368461Y-155103459D01*
X200297484Y-155101771D01*
X200246752Y-155070848D01*
X199353647Y-154177742D01*
X199346113Y-154169463D01*
X199342000Y-154162982D01*
X199292348Y-154116356D01*
X199289507Y-154113602D01*
X199269770Y-154093865D01*
X199266573Y-154091385D01*
X199257551Y-154083680D01*
X199231100Y-154058841D01*
X199225321Y-154053414D01*
X199218375Y-154049595D01*
X199218372Y-154049593D01*
X199207566Y-154043652D01*
X199191047Y-154032801D01*
X199190583Y-154032441D01*
X199175041Y-154020386D01*
X199167772Y-154017241D01*
X199167768Y-154017238D01*
X199134463Y-154002826D01*
X199123813Y-153997609D01*
X199085060Y-153976305D01*
X199065437Y-153971267D01*
X199046734Y-153964863D01*
X199035420Y-153959967D01*
X199035419Y-153959967D01*
X199028145Y-153956819D01*
X199020322Y-153955580D01*
X199020312Y-153955577D01*
X198984476Y-153949901D01*
X198972856Y-153947495D01*
X198937711Y-153938472D01*
X198937710Y-153938472D01*
X198930030Y-153936500D01*
X198909776Y-153936500D01*
X198890065Y-153934949D01*
X198877886Y-153933020D01*
X198870057Y-153931780D01*
X198862165Y-153932526D01*
X198826039Y-153935941D01*
X198814181Y-153936500D01*
X194259394Y-153936500D01*
X194191273Y-153916498D01*
X194156181Y-153882771D01*
X194049357Y-153730211D01*
X194049355Y-153730208D01*
X194046198Y-153725700D01*
X193884300Y-153563802D01*
X193879792Y-153560645D01*
X193879789Y-153560643D01*
X193801611Y-153505902D01*
X193696749Y-153432477D01*
X193691767Y-153430154D01*
X193691762Y-153430151D01*
X193494225Y-153338039D01*
X193494224Y-153338039D01*
X193489243Y-153335716D01*
X193483935Y-153334294D01*
X193483933Y-153334293D01*
X193463473Y-153328811D01*
X193406989Y-153296199D01*
X193052812Y-152942022D01*
X193038868Y-152934408D01*
X193037035Y-152934539D01*
X193030420Y-152938790D01*
X192673011Y-153296199D01*
X192616527Y-153328811D01*
X192596067Y-153334293D01*
X192596065Y-153334294D01*
X192590757Y-153335716D01*
X192585776Y-153338039D01*
X192585775Y-153338039D01*
X192388238Y-153430151D01*
X192388233Y-153430154D01*
X192383251Y-153432477D01*
X192278389Y-153505902D01*
X192200211Y-153560643D01*
X192200208Y-153560645D01*
X192195700Y-153563802D01*
X192033802Y-153725700D01*
X192030645Y-153730208D01*
X192030643Y-153730211D01*
X191923819Y-153882771D01*
X191868362Y-153927099D01*
X191820606Y-153936500D01*
X191714595Y-153936500D01*
X191646474Y-153916498D01*
X191625500Y-153899595D01*
X191170405Y-153444500D01*
X191136379Y-153382188D01*
X191133500Y-153355405D01*
X191133500Y-152575475D01*
X191727483Y-152575475D01*
X191746472Y-152792519D01*
X191748375Y-152803312D01*
X191804764Y-153013761D01*
X191808510Y-153024053D01*
X191900586Y-153221511D01*
X191906069Y-153231006D01*
X191942509Y-153283048D01*
X191952988Y-153291424D01*
X191966434Y-153284356D01*
X192667978Y-152582812D01*
X192674356Y-152571132D01*
X193404408Y-152571132D01*
X193404539Y-152572965D01*
X193408790Y-152579580D01*
X194114287Y-153285077D01*
X194126062Y-153291507D01*
X194138077Y-153282211D01*
X194173931Y-153231006D01*
X194179414Y-153221511D01*
X194271490Y-153024053D01*
X194275236Y-153013761D01*
X194322727Y-152836522D01*
X208167273Y-152836522D01*
X208214764Y-153013761D01*
X208218510Y-153024053D01*
X208310586Y-153221511D01*
X208316069Y-153231007D01*
X208441028Y-153409467D01*
X208448084Y-153417875D01*
X208602125Y-153571916D01*
X208610533Y-153578972D01*
X208788993Y-153703931D01*
X208798489Y-153709414D01*
X208995947Y-153801490D01*
X209006239Y-153805236D01*
X209178503Y-153851394D01*
X209192599Y-153851058D01*
X209196000Y-153843116D01*
X209196000Y-153837967D01*
X209704000Y-153837967D01*
X209707973Y-153851498D01*
X209716522Y-153852727D01*
X209893761Y-153805236D01*
X209904053Y-153801490D01*
X210101511Y-153709414D01*
X210111007Y-153703931D01*
X210289467Y-153578972D01*
X210297875Y-153571916D01*
X210451916Y-153417875D01*
X210458972Y-153409467D01*
X210583931Y-153231007D01*
X210589414Y-153221511D01*
X210681490Y-153024053D01*
X210685236Y-153013761D01*
X210731394Y-152841497D01*
X210731058Y-152827401D01*
X210723116Y-152824000D01*
X209722115Y-152824000D01*
X209706876Y-152828475D01*
X209705671Y-152829865D01*
X209704000Y-152837548D01*
X209704000Y-153837967D01*
X209196000Y-153837967D01*
X209196000Y-152842115D01*
X209191525Y-152826876D01*
X209190135Y-152825671D01*
X209182452Y-152824000D01*
X208182033Y-152824000D01*
X208168502Y-152827973D01*
X208167273Y-152836522D01*
X194322727Y-152836522D01*
X194331625Y-152803312D01*
X194333528Y-152792519D01*
X194352517Y-152575475D01*
X194352517Y-152564525D01*
X194343903Y-152466062D01*
X199938493Y-152466062D01*
X199947789Y-152478077D01*
X199998994Y-152513931D01*
X200008489Y-152519414D01*
X200205947Y-152611490D01*
X200216239Y-152615236D01*
X200426688Y-152671625D01*
X200437481Y-152673528D01*
X200654525Y-152692517D01*
X200665475Y-152692517D01*
X200882519Y-152673528D01*
X200893312Y-152671625D01*
X201103761Y-152615236D01*
X201114053Y-152611490D01*
X201311511Y-152519414D01*
X201321006Y-152513931D01*
X201373048Y-152477491D01*
X201381424Y-152467012D01*
X201374356Y-152453566D01*
X201219293Y-152298503D01*
X208168606Y-152298503D01*
X208168942Y-152312599D01*
X208176884Y-152316000D01*
X209177885Y-152316000D01*
X209193124Y-152311525D01*
X209194329Y-152310135D01*
X209196000Y-152302452D01*
X209196000Y-152297885D01*
X209704000Y-152297885D01*
X209708475Y-152313124D01*
X209709865Y-152314329D01*
X209717548Y-152316000D01*
X210717967Y-152316000D01*
X210731498Y-152312027D01*
X210732727Y-152303478D01*
X210685236Y-152126239D01*
X210681490Y-152115947D01*
X210589414Y-151918489D01*
X210583931Y-151908993D01*
X210458972Y-151730533D01*
X210451916Y-151722125D01*
X210297875Y-151568084D01*
X210289467Y-151561028D01*
X210111007Y-151436069D01*
X210101511Y-151430586D01*
X209904053Y-151338510D01*
X209893761Y-151334764D01*
X209721497Y-151288606D01*
X209707401Y-151288942D01*
X209704000Y-151296884D01*
X209704000Y-152297885D01*
X209196000Y-152297885D01*
X209196000Y-151302033D01*
X209192027Y-151288502D01*
X209183478Y-151287273D01*
X209006239Y-151334764D01*
X208995947Y-151338510D01*
X208798489Y-151430586D01*
X208788993Y-151436069D01*
X208610533Y-151561028D01*
X208602125Y-151568084D01*
X208448084Y-151722125D01*
X208441028Y-151730533D01*
X208316069Y-151908993D01*
X208310586Y-151918489D01*
X208218510Y-152115947D01*
X208214764Y-152126239D01*
X208168606Y-152298503D01*
X201219293Y-152298503D01*
X200672812Y-151752022D01*
X200658868Y-151744408D01*
X200657035Y-151744539D01*
X200650420Y-151748790D01*
X199944923Y-152454287D01*
X199938493Y-152466062D01*
X194343903Y-152466062D01*
X194333528Y-152347481D01*
X194331625Y-152336688D01*
X194275236Y-152126239D01*
X194271490Y-152115947D01*
X194179414Y-151918489D01*
X194173931Y-151908994D01*
X194137491Y-151856952D01*
X194127012Y-151848576D01*
X194113566Y-151855644D01*
X193412022Y-152557188D01*
X193404408Y-152571132D01*
X192674356Y-152571132D01*
X192675592Y-152568868D01*
X192675461Y-152567035D01*
X192671210Y-152560420D01*
X191965713Y-151854923D01*
X191953938Y-151848493D01*
X191941923Y-151857789D01*
X191906069Y-151908994D01*
X191900586Y-151918489D01*
X191808510Y-152115947D01*
X191804764Y-152126239D01*
X191748375Y-152336688D01*
X191746472Y-152347481D01*
X191727483Y-152564525D01*
X191727483Y-152575475D01*
X191133500Y-152575475D01*
X191133500Y-151482988D01*
X192318576Y-151482988D01*
X192325644Y-151496434D01*
X193027188Y-152197978D01*
X193041132Y-152205592D01*
X193042965Y-152205461D01*
X193049580Y-152201210D01*
X193755077Y-151495713D01*
X193761507Y-151483938D01*
X193752211Y-151471923D01*
X193701006Y-151436069D01*
X193691511Y-151430586D01*
X193594770Y-151385475D01*
X199347483Y-151385475D01*
X199366472Y-151602519D01*
X199368375Y-151613312D01*
X199424764Y-151823761D01*
X199428510Y-151834053D01*
X199520586Y-152031511D01*
X199526069Y-152041006D01*
X199562509Y-152093048D01*
X199572988Y-152101424D01*
X199586434Y-152094356D01*
X200287978Y-151392812D01*
X200294356Y-151381132D01*
X201024408Y-151381132D01*
X201024539Y-151382965D01*
X201028790Y-151389580D01*
X201734287Y-152095077D01*
X201746062Y-152101507D01*
X201758077Y-152092211D01*
X201793931Y-152041006D01*
X201799414Y-152031511D01*
X201891490Y-151834053D01*
X201895236Y-151823761D01*
X201951625Y-151613312D01*
X201953528Y-151602519D01*
X201972517Y-151385475D01*
X201972517Y-151374525D01*
X201953528Y-151157481D01*
X201951625Y-151146688D01*
X201895236Y-150936239D01*
X201891490Y-150925947D01*
X201799414Y-150728489D01*
X201793931Y-150718994D01*
X201757491Y-150666952D01*
X201747012Y-150658576D01*
X201733566Y-150665644D01*
X201032022Y-151367188D01*
X201024408Y-151381132D01*
X200294356Y-151381132D01*
X200295592Y-151378868D01*
X200295461Y-151377035D01*
X200291210Y-151370420D01*
X199585713Y-150664923D01*
X199573938Y-150658493D01*
X199561923Y-150667789D01*
X199526069Y-150718994D01*
X199520586Y-150728489D01*
X199428510Y-150925947D01*
X199424764Y-150936239D01*
X199368375Y-151146688D01*
X199366472Y-151157481D01*
X199347483Y-151374525D01*
X199347483Y-151385475D01*
X193594770Y-151385475D01*
X193494053Y-151338510D01*
X193483761Y-151334764D01*
X193273312Y-151278375D01*
X193262519Y-151276472D01*
X193045475Y-151257483D01*
X193034525Y-151257483D01*
X192817481Y-151276472D01*
X192806688Y-151278375D01*
X192596239Y-151334764D01*
X192585947Y-151338510D01*
X192388489Y-151430586D01*
X192378994Y-151436069D01*
X192326952Y-151472509D01*
X192318576Y-151482988D01*
X191133500Y-151482988D01*
X191133500Y-150292988D01*
X199938576Y-150292988D01*
X199945644Y-150306434D01*
X200647188Y-151007978D01*
X200661132Y-151015592D01*
X200662965Y-151015461D01*
X200669580Y-151011210D01*
X201375077Y-150305713D01*
X201381507Y-150293938D01*
X201372211Y-150281923D01*
X201321006Y-150246069D01*
X201311511Y-150240586D01*
X201114053Y-150148510D01*
X201103761Y-150144764D01*
X200893312Y-150088375D01*
X200882519Y-150086472D01*
X200665475Y-150067483D01*
X200654525Y-150067483D01*
X200437481Y-150086472D01*
X200426688Y-150088375D01*
X200216239Y-150144764D01*
X200205947Y-150148510D01*
X200008489Y-150240586D01*
X199998994Y-150246069D01*
X199946952Y-150282509D01*
X199938576Y-150292988D01*
X191133500Y-150292988D01*
X191133500Y-146220000D01*
X204426502Y-146220000D01*
X204446457Y-146448087D01*
X204447881Y-146453400D01*
X204447881Y-146453402D01*
X204457031Y-146487548D01*
X204505716Y-146669243D01*
X204508039Y-146674224D01*
X204508039Y-146674225D01*
X204600151Y-146871762D01*
X204600154Y-146871767D01*
X204602477Y-146876749D01*
X204733802Y-147064300D01*
X204895700Y-147226198D01*
X204900208Y-147229355D01*
X204900211Y-147229357D01*
X204978389Y-147284098D01*
X205083251Y-147357523D01*
X205088233Y-147359846D01*
X205088238Y-147359849D01*
X205284765Y-147451490D01*
X205290757Y-147454284D01*
X205296065Y-147455706D01*
X205296067Y-147455707D01*
X205506598Y-147512119D01*
X205506600Y-147512119D01*
X205511913Y-147513543D01*
X205740000Y-147533498D01*
X205968087Y-147513543D01*
X205973400Y-147512119D01*
X205973402Y-147512119D01*
X206183933Y-147455707D01*
X206183935Y-147455706D01*
X206189243Y-147454284D01*
X206195235Y-147451490D01*
X206391762Y-147359849D01*
X206391767Y-147359846D01*
X206396749Y-147357523D01*
X206501611Y-147284098D01*
X206579789Y-147229357D01*
X206579792Y-147229355D01*
X206584300Y-147226198D01*
X206746198Y-147064300D01*
X206877523Y-146876749D01*
X206879846Y-146871767D01*
X206879849Y-146871762D01*
X206971961Y-146674225D01*
X206971961Y-146674224D01*
X206974284Y-146669243D01*
X207022970Y-146487548D01*
X207032119Y-146453402D01*
X207032119Y-146453400D01*
X207033543Y-146448087D01*
X207053498Y-146220000D01*
X207033543Y-145991913D01*
X207023244Y-145953478D01*
X206975707Y-145776067D01*
X206975706Y-145776065D01*
X206974284Y-145770757D01*
X206971961Y-145765775D01*
X206879849Y-145568238D01*
X206879846Y-145568233D01*
X206877523Y-145563251D01*
X206767658Y-145406348D01*
X206749357Y-145380211D01*
X206749355Y-145380208D01*
X206746198Y-145375700D01*
X206584300Y-145213802D01*
X206579792Y-145210645D01*
X206579789Y-145210643D01*
X206501611Y-145155902D01*
X206396749Y-145082477D01*
X206391767Y-145080154D01*
X206391762Y-145080151D01*
X206194225Y-144988039D01*
X206194224Y-144988039D01*
X206189243Y-144985716D01*
X206183935Y-144984294D01*
X206183933Y-144984293D01*
X205973402Y-144927881D01*
X205973400Y-144927881D01*
X205968087Y-144926457D01*
X205740000Y-144906502D01*
X205511913Y-144926457D01*
X205506600Y-144927881D01*
X205506598Y-144927881D01*
X205296067Y-144984293D01*
X205296065Y-144984294D01*
X205290757Y-144985716D01*
X205285776Y-144988039D01*
X205285775Y-144988039D01*
X205088238Y-145080151D01*
X205088233Y-145080154D01*
X205083251Y-145082477D01*
X204978389Y-145155902D01*
X204900211Y-145210643D01*
X204900208Y-145210645D01*
X204895700Y-145213802D01*
X204733802Y-145375700D01*
X204730645Y-145380208D01*
X204730643Y-145380211D01*
X204712342Y-145406348D01*
X204602477Y-145563251D01*
X204600154Y-145568233D01*
X204600151Y-145568238D01*
X204508039Y-145765775D01*
X204505716Y-145770757D01*
X204504294Y-145776065D01*
X204504293Y-145776067D01*
X204456756Y-145953478D01*
X204446457Y-145991913D01*
X204426502Y-146220000D01*
X191133500Y-146220000D01*
X191133500Y-142974500D01*
X191153502Y-142906379D01*
X191207158Y-142859886D01*
X191259500Y-142848500D01*
X192918134Y-142848500D01*
X192980316Y-142841745D01*
X193116705Y-142790615D01*
X193233261Y-142703261D01*
X193320615Y-142586705D01*
X193371745Y-142450316D01*
X193378500Y-142388134D01*
X193378500Y-139891866D01*
X193371745Y-139829684D01*
X193320615Y-139693295D01*
X193233261Y-139576739D01*
X193116705Y-139489385D01*
X192980316Y-139438255D01*
X192918134Y-139431500D01*
X192439696Y-139431500D01*
X192371575Y-139411498D01*
X192325082Y-139357842D01*
X192314978Y-139287568D01*
X192344472Y-139222988D01*
X192389958Y-139189733D01*
X192456573Y-139161113D01*
X192464856Y-139156800D01*
X192672777Y-139028135D01*
X192674620Y-139026796D01*
X192682038Y-139015541D01*
X192675974Y-139005184D01*
X191682812Y-138012022D01*
X191668868Y-138004408D01*
X191667035Y-138004539D01*
X191660420Y-138008790D01*
X190668044Y-139001166D01*
X190661386Y-139013359D01*
X190670099Y-139024879D01*
X190758586Y-139089760D01*
X190766505Y-139094708D01*
X190955213Y-139193992D01*
X191006186Y-139243411D01*
X191022349Y-139312544D01*
X190998570Y-139379440D01*
X190942399Y-139422860D01*
X190896546Y-139431500D01*
X190421866Y-139431500D01*
X190359684Y-139438255D01*
X190223295Y-139489385D01*
X190106739Y-139576739D01*
X190019385Y-139693295D01*
X189968255Y-139829684D01*
X189961500Y-139891866D01*
X189961500Y-141863648D01*
X189947773Y-141913827D01*
X189950386Y-141914958D01*
X189932826Y-141955537D01*
X189927609Y-141966187D01*
X189906305Y-142004940D01*
X189904334Y-142012615D01*
X189904334Y-142012616D01*
X189901267Y-142024562D01*
X189894863Y-142043266D01*
X189886819Y-142061855D01*
X189885580Y-142069678D01*
X189885577Y-142069688D01*
X189879901Y-142105524D01*
X189877495Y-142117144D01*
X189866500Y-142159970D01*
X189866500Y-142180224D01*
X189864949Y-142199934D01*
X189861780Y-142219943D01*
X187198500Y-142219943D01*
X187198500Y-137599835D01*
X189958022Y-137599835D01*
X189969754Y-137844064D01*
X189970891Y-137853324D01*
X190018593Y-138093143D01*
X190021082Y-138102118D01*
X190103708Y-138332250D01*
X190107505Y-138340778D01*
X190223234Y-138556160D01*
X190228245Y-138564027D01*
X190285173Y-138640263D01*
X190296431Y-138648712D01*
X190308850Y-138641940D01*
X191297978Y-137652812D01*
X191304356Y-137641132D01*
X192034408Y-137641132D01*
X192034539Y-137642965D01*
X192038790Y-137649580D01*
X193033732Y-138644522D01*
X193046112Y-138651282D01*
X193054453Y-138645038D01*
X193083422Y-138600000D01*
X204426502Y-138600000D01*
X204446457Y-138828087D01*
X204447881Y-138833400D01*
X204447881Y-138833402D01*
X204499188Y-139024879D01*
X204505716Y-139049243D01*
X204508039Y-139054224D01*
X204508039Y-139054225D01*
X204600151Y-139251762D01*
X204600154Y-139251767D01*
X204602477Y-139256749D01*
X204624057Y-139287568D01*
X204725098Y-139431869D01*
X204733802Y-139444300D01*
X204895700Y-139606198D01*
X204900208Y-139609355D01*
X204900211Y-139609357D01*
X204978389Y-139664098D01*
X205083251Y-139737523D01*
X205088233Y-139739846D01*
X205088238Y-139739849D01*
X205258825Y-139819394D01*
X205290757Y-139834284D01*
X205296065Y-139835706D01*
X205296067Y-139835707D01*
X205506598Y-139892119D01*
X205506600Y-139892119D01*
X205511913Y-139893543D01*
X205740000Y-139913498D01*
X205968087Y-139893543D01*
X205973400Y-139892119D01*
X205973402Y-139892119D01*
X206183933Y-139835707D01*
X206183935Y-139835706D01*
X206189243Y-139834284D01*
X206221175Y-139819394D01*
X206391762Y-139739849D01*
X206391767Y-139739846D01*
X206396749Y-139737523D01*
X206501611Y-139664098D01*
X206579789Y-139609357D01*
X206579792Y-139609355D01*
X206584300Y-139606198D01*
X206746198Y-139444300D01*
X206754903Y-139431869D01*
X206855943Y-139287568D01*
X206877523Y-139256749D01*
X206879846Y-139251767D01*
X206879849Y-139251762D01*
X206971961Y-139054225D01*
X206971961Y-139054224D01*
X206974284Y-139049243D01*
X206980813Y-139024879D01*
X207032119Y-138833402D01*
X207032119Y-138833400D01*
X207033543Y-138828087D01*
X207053498Y-138600000D01*
X207033543Y-138371913D01*
X207032119Y-138366598D01*
X206975707Y-138156067D01*
X206975706Y-138156065D01*
X206974284Y-138150757D01*
X206971961Y-138145775D01*
X206879849Y-137948238D01*
X206879846Y-137948233D01*
X206877523Y-137943251D01*
X206757722Y-137772158D01*
X206749357Y-137760211D01*
X206749355Y-137760208D01*
X206746198Y-137755700D01*
X206584300Y-137593802D01*
X206579792Y-137590645D01*
X206579789Y-137590643D01*
X206427229Y-137483819D01*
X206382901Y-137428362D01*
X206373500Y-137380606D01*
X206373500Y-135219394D01*
X206393502Y-135151273D01*
X206427229Y-135116181D01*
X206579789Y-135009357D01*
X206579792Y-135009355D01*
X206584300Y-135006198D01*
X206746198Y-134844300D01*
X206751409Y-134836858D01*
X206856181Y-134687229D01*
X206911638Y-134642901D01*
X206959394Y-134633500D01*
X211875500Y-134633500D01*
X211943621Y-134653502D01*
X211990114Y-134707158D01*
X212001500Y-134759500D01*
X212001500Y-135843134D01*
X212008255Y-135905316D01*
X212059385Y-136041705D01*
X212146739Y-136158261D01*
X212263295Y-136245615D01*
X212399684Y-136296745D01*
X212461866Y-136303500D01*
X212500500Y-136303500D01*
X212568621Y-136323502D01*
X212615114Y-136377158D01*
X212626500Y-136429500D01*
X212626500Y-137251233D01*
X212625973Y-137262416D01*
X212624298Y-137269909D01*
X212624547Y-137277835D01*
X212624547Y-137277836D01*
X212626438Y-137337986D01*
X212626500Y-137341945D01*
X212626500Y-137369856D01*
X212626997Y-137373790D01*
X212626997Y-137373791D01*
X212627005Y-137373856D01*
X212627938Y-137385693D01*
X212629327Y-137429889D01*
X212634800Y-137448727D01*
X212634978Y-137449339D01*
X212638987Y-137468700D01*
X212641526Y-137488797D01*
X212644445Y-137496168D01*
X212644445Y-137496170D01*
X212657804Y-137529912D01*
X212661649Y-137541142D01*
X212673982Y-137583593D01*
X212678015Y-137590412D01*
X212678017Y-137590417D01*
X212684293Y-137601028D01*
X212692988Y-137618776D01*
X212700448Y-137637617D01*
X212705110Y-137644033D01*
X212705110Y-137644034D01*
X212726436Y-137673387D01*
X212732952Y-137683307D01*
X212755458Y-137721362D01*
X212769779Y-137735683D01*
X212782619Y-137750716D01*
X212794528Y-137767107D01*
X212800634Y-137772158D01*
X212828605Y-137795298D01*
X212837384Y-137803288D01*
X214026343Y-138992247D01*
X214033887Y-139000537D01*
X214038000Y-139007018D01*
X214043777Y-139012443D01*
X214087667Y-139053658D01*
X214090509Y-139056413D01*
X214110230Y-139076134D01*
X214113425Y-139078612D01*
X214122447Y-139086318D01*
X214154679Y-139116586D01*
X214161628Y-139120406D01*
X214172432Y-139126346D01*
X214188956Y-139137199D01*
X214204959Y-139149613D01*
X214245543Y-139167176D01*
X214256173Y-139172383D01*
X214294940Y-139193695D01*
X214302617Y-139195666D01*
X214302622Y-139195668D01*
X214314558Y-139198732D01*
X214333266Y-139205137D01*
X214351855Y-139213181D01*
X214359683Y-139214421D01*
X214359690Y-139214423D01*
X214395524Y-139220099D01*
X214407144Y-139222505D01*
X214442289Y-139231528D01*
X214449970Y-139233500D01*
X214470224Y-139233500D01*
X214489934Y-139235051D01*
X214509943Y-139238220D01*
X214517835Y-139237474D01*
X214553961Y-139234059D01*
X214565819Y-139233500D01*
X218390606Y-139233500D01*
X218458727Y-139253502D01*
X218493819Y-139287229D01*
X218598972Y-139437402D01*
X218603802Y-139444300D01*
X218765700Y-139606198D01*
X218770208Y-139609355D01*
X218770211Y-139609357D01*
X218922771Y-139716181D01*
X218967099Y-139771638D01*
X218976500Y-139819394D01*
X218976500Y-141860933D01*
X218956498Y-141929054D01*
X218909654Y-141972184D01*
X218810302Y-142025010D01*
X218805528Y-142028904D01*
X218805526Y-142028905D01*
X218795505Y-142037078D01*
X218653237Y-142153110D01*
X218649310Y-142157857D01*
X218649308Y-142157859D01*
X218527973Y-142304528D01*
X218527971Y-142304531D01*
X218524044Y-142309278D01*
X218427644Y-142487565D01*
X218423494Y-142500971D01*
X218394731Y-142593891D01*
X218367710Y-142681180D01*
X218367066Y-142687305D01*
X218367066Y-142687306D01*
X218354200Y-142809717D01*
X218346524Y-142882750D01*
X218354102Y-142966014D01*
X218358937Y-143019137D01*
X218364894Y-143084596D01*
X218366632Y-143090502D01*
X218366633Y-143090506D01*
X218408251Y-143231909D01*
X218422119Y-143279029D01*
X218424973Y-143284489D01*
X218424975Y-143284493D01*
X218455104Y-143342126D01*
X218468938Y-143411762D01*
X218442927Y-143477822D01*
X218385331Y-143519333D01*
X218343442Y-143526500D01*
X216358768Y-143526500D01*
X216347585Y-143525973D01*
X216340092Y-143524298D01*
X216332166Y-143524547D01*
X216332165Y-143524547D01*
X216272002Y-143526438D01*
X216268044Y-143526500D01*
X210318768Y-143526500D01*
X210307585Y-143525973D01*
X210300092Y-143524298D01*
X210292166Y-143524547D01*
X210292165Y-143524547D01*
X210232002Y-143526438D01*
X210228044Y-143526500D01*
X210200144Y-143526500D01*
X210196154Y-143527004D01*
X210184320Y-143527936D01*
X210140111Y-143529326D01*
X210132497Y-143531538D01*
X210132492Y-143531539D01*
X210120659Y-143534977D01*
X210101296Y-143538988D01*
X210081203Y-143541526D01*
X210073836Y-143544443D01*
X210073831Y-143544444D01*
X210040092Y-143557802D01*
X210028865Y-143561646D01*
X209986407Y-143573982D01*
X209979581Y-143578019D01*
X209968972Y-143584293D01*
X209951224Y-143592988D01*
X209932383Y-143600448D01*
X209925967Y-143605110D01*
X209925966Y-143605110D01*
X209896613Y-143626436D01*
X209886692Y-143632952D01*
X209853651Y-143652493D01*
X209853649Y-143652494D01*
X209848638Y-143655458D01*
X209848160Y-143654650D01*
X209788436Y-143678100D01*
X209744682Y-143674301D01*
X209683402Y-143657881D01*
X209683400Y-143657881D01*
X209678087Y-143656457D01*
X209450000Y-143636502D01*
X209221913Y-143656457D01*
X209216600Y-143657881D01*
X209216598Y-143657881D01*
X209006067Y-143714293D01*
X209006065Y-143714294D01*
X209000757Y-143715716D01*
X208995776Y-143718039D01*
X208995775Y-143718039D01*
X208798238Y-143810151D01*
X208798233Y-143810154D01*
X208793251Y-143812477D01*
X208688389Y-143885902D01*
X208610211Y-143940643D01*
X208610208Y-143940645D01*
X208605700Y-143943802D01*
X208443802Y-144105700D01*
X208312477Y-144293251D01*
X208310154Y-144298233D01*
X208310151Y-144298238D01*
X208264154Y-144396880D01*
X208215716Y-144500757D01*
X208214294Y-144506065D01*
X208214293Y-144506067D01*
X208171250Y-144666704D01*
X208156457Y-144721913D01*
X208136502Y-144950000D01*
X208156457Y-145178087D01*
X208157881Y-145183400D01*
X208157881Y-145183402D01*
X208210703Y-145380533D01*
X208215716Y-145399243D01*
X208218039Y-145404224D01*
X208218039Y-145404225D01*
X208310151Y-145601762D01*
X208310154Y-145601767D01*
X208312477Y-145606749D01*
X208355365Y-145667999D01*
X208434762Y-145781389D01*
X208443802Y-145794300D01*
X208605700Y-145956198D01*
X208610208Y-145959355D01*
X208610211Y-145959357D01*
X208656706Y-145991913D01*
X208793251Y-146087523D01*
X208798233Y-146089846D01*
X208798238Y-146089849D01*
X208975280Y-146172404D01*
X209000757Y-146184284D01*
X209006065Y-146185706D01*
X209006067Y-146185707D01*
X209216598Y-146242119D01*
X209216600Y-146242119D01*
X209221913Y-146243543D01*
X209450000Y-146263498D01*
X209678087Y-146243543D01*
X209683400Y-146242119D01*
X209683402Y-146242119D01*
X209893933Y-146185707D01*
X209893935Y-146185706D01*
X209899243Y-146184284D01*
X209924720Y-146172404D01*
X210101762Y-146089849D01*
X210101767Y-146089846D01*
X210106749Y-146087523D01*
X210243294Y-145991913D01*
X210289789Y-145959357D01*
X210289792Y-145959355D01*
X210294300Y-145956198D01*
X210456198Y-145794300D01*
X210465239Y-145781389D01*
X210544635Y-145667999D01*
X210587523Y-145606749D01*
X210589846Y-145601767D01*
X210589849Y-145601762D01*
X210681961Y-145404225D01*
X210681961Y-145404224D01*
X210684284Y-145399243D01*
X210689298Y-145380533D01*
X210742119Y-145183402D01*
X210742119Y-145183400D01*
X210743543Y-145178087D01*
X210763498Y-144950000D01*
X210763019Y-144944525D01*
X210763019Y-144944517D01*
X210761791Y-144930484D01*
X210775778Y-144860879D01*
X210825176Y-144809886D01*
X210887311Y-144793500D01*
X214446405Y-144793500D01*
X214514526Y-144813502D01*
X214561019Y-144867158D01*
X214571123Y-144937432D01*
X214541629Y-145002012D01*
X214535500Y-145008595D01*
X214137747Y-145406348D01*
X214129461Y-145413888D01*
X214122982Y-145418000D01*
X214117557Y-145423777D01*
X214076357Y-145467651D01*
X214073602Y-145470493D01*
X214053865Y-145490230D01*
X214051385Y-145493427D01*
X214043682Y-145502447D01*
X214013414Y-145534679D01*
X214009595Y-145541625D01*
X214009593Y-145541628D01*
X214003652Y-145552434D01*
X213992801Y-145568953D01*
X213980386Y-145584959D01*
X213977241Y-145592228D01*
X213977238Y-145592232D01*
X213962826Y-145625537D01*
X213957609Y-145636187D01*
X213936305Y-145674940D01*
X213934334Y-145682615D01*
X213934334Y-145682616D01*
X213931267Y-145694562D01*
X213924863Y-145713266D01*
X213916819Y-145731855D01*
X213915580Y-145739678D01*
X213915577Y-145739688D01*
X213909901Y-145775524D01*
X213907495Y-145787144D01*
X213901867Y-145809067D01*
X213896500Y-145829970D01*
X213896500Y-145850224D01*
X213894949Y-145869934D01*
X213891780Y-145889943D01*
X213892526Y-145897835D01*
X213895941Y-145933961D01*
X213896500Y-145945819D01*
X213896500Y-147540606D01*
X213876498Y-147608727D01*
X213842771Y-147643819D01*
X213690211Y-147750643D01*
X213690208Y-147750645D01*
X213685700Y-147753802D01*
X213523802Y-147915700D01*
X213392477Y-148103251D01*
X213390154Y-148108233D01*
X213390151Y-148108238D01*
X213298039Y-148305775D01*
X213295716Y-148310757D01*
X213236457Y-148531913D01*
X213216502Y-148760000D01*
X213236457Y-148988087D01*
X213237881Y-148993400D01*
X213237881Y-148993402D01*
X213269375Y-149110936D01*
X213295716Y-149209243D01*
X213298039Y-149214224D01*
X213298039Y-149214225D01*
X213390151Y-149411762D01*
X213390154Y-149411767D01*
X213392477Y-149416749D01*
X213523802Y-149604300D01*
X213685700Y-149766198D01*
X213690208Y-149769355D01*
X213690211Y-149769357D01*
X213768389Y-149824098D01*
X213873251Y-149897523D01*
X213878233Y-149899846D01*
X213878238Y-149899849D01*
X214048825Y-149979394D01*
X214080757Y-149994284D01*
X214086065Y-149995706D01*
X214086067Y-149995707D01*
X214296598Y-150052119D01*
X214296600Y-150052119D01*
X214301913Y-150053543D01*
X214530000Y-150073498D01*
X214758087Y-150053543D01*
X214763400Y-150052119D01*
X214763402Y-150052119D01*
X214973933Y-149995707D01*
X214973935Y-149995706D01*
X214979243Y-149994284D01*
X215011175Y-149979394D01*
X215181762Y-149899849D01*
X215181767Y-149899846D01*
X215186749Y-149897523D01*
X215291611Y-149824098D01*
X215369789Y-149769357D01*
X215369792Y-149769355D01*
X215374300Y-149766198D01*
X215536198Y-149604300D01*
X215667523Y-149416749D01*
X215669846Y-149411767D01*
X215669849Y-149411762D01*
X215761961Y-149214225D01*
X215761961Y-149214224D01*
X215764284Y-149209243D01*
X215790626Y-149110936D01*
X215822119Y-148993402D01*
X215822119Y-148993400D01*
X215823543Y-148988087D01*
X215843498Y-148760000D01*
X215823543Y-148531913D01*
X215764284Y-148310757D01*
X215761961Y-148305775D01*
X215669849Y-148108238D01*
X215669846Y-148108233D01*
X215667523Y-148103251D01*
X215536198Y-147915700D01*
X215374300Y-147753802D01*
X215369792Y-147750645D01*
X215369789Y-147750643D01*
X215217229Y-147643819D01*
X215172901Y-147588362D01*
X215163500Y-147540606D01*
X215163500Y-146224594D01*
X215183502Y-146156473D01*
X215200405Y-146135499D01*
X216505500Y-144830405D01*
X216567812Y-144796379D01*
X216594595Y-144793500D01*
X218225500Y-144793500D01*
X218293621Y-144813502D01*
X218340114Y-144867158D01*
X218351500Y-144919500D01*
X218351500Y-146003134D01*
X218358255Y-146065316D01*
X218409385Y-146201705D01*
X218496739Y-146318261D01*
X218613295Y-146405615D01*
X218749684Y-146456745D01*
X218811866Y-146463500D01*
X218850500Y-146463500D01*
X218918621Y-146483502D01*
X218965114Y-146537158D01*
X218976500Y-146589500D01*
X218976500Y-147540606D01*
X218956498Y-147608727D01*
X218922771Y-147643819D01*
X218770211Y-147750643D01*
X218770208Y-147750645D01*
X218765700Y-147753802D01*
X218603802Y-147915700D01*
X218472477Y-148103251D01*
X218470154Y-148108233D01*
X218470151Y-148108238D01*
X218378039Y-148305775D01*
X218375716Y-148310757D01*
X218316457Y-148531913D01*
X218296502Y-148760000D01*
X218316457Y-148988087D01*
X218317881Y-148993400D01*
X218317881Y-148993402D01*
X218349375Y-149110936D01*
X218375716Y-149209243D01*
X218378039Y-149214224D01*
X218378039Y-149214225D01*
X218470151Y-149411762D01*
X218470154Y-149411767D01*
X218472477Y-149416749D01*
X218603802Y-149604300D01*
X218765700Y-149766198D01*
X218770208Y-149769355D01*
X218770211Y-149769357D01*
X218848389Y-149824098D01*
X218953251Y-149897523D01*
X218958233Y-149899846D01*
X218958238Y-149899849D01*
X219128825Y-149979394D01*
X219160757Y-149994284D01*
X219166065Y-149995706D01*
X219166067Y-149995707D01*
X219376598Y-150052119D01*
X219376600Y-150052119D01*
X219381913Y-150053543D01*
X219610000Y-150073498D01*
X219838087Y-150053543D01*
X219843400Y-150052119D01*
X219843402Y-150052119D01*
X220053933Y-149995707D01*
X220053935Y-149995706D01*
X220059243Y-149994284D01*
X220091175Y-149979394D01*
X220261762Y-149899849D01*
X220261767Y-149899846D01*
X220266749Y-149897523D01*
X220371611Y-149824098D01*
X220449789Y-149769357D01*
X220449792Y-149769355D01*
X220454300Y-149766198D01*
X220616198Y-149604300D01*
X220747523Y-149416749D01*
X220749846Y-149411767D01*
X220749849Y-149411762D01*
X220841961Y-149214225D01*
X220841961Y-149214224D01*
X220844284Y-149209243D01*
X220870626Y-149110936D01*
X220902119Y-148993402D01*
X220902119Y-148993400D01*
X220903543Y-148988087D01*
X220923498Y-148760000D01*
X220903543Y-148531913D01*
X220844284Y-148310757D01*
X220841961Y-148305775D01*
X220749849Y-148108238D01*
X220749846Y-148108233D01*
X220747523Y-148103251D01*
X220616198Y-147915700D01*
X220454300Y-147753802D01*
X220449792Y-147750645D01*
X220449789Y-147750643D01*
X220297229Y-147643819D01*
X220252901Y-147588362D01*
X220243500Y-147540606D01*
X220243500Y-146589500D01*
X220263502Y-146521379D01*
X220317158Y-146474886D01*
X220369500Y-146463500D01*
X220408134Y-146463500D01*
X220470316Y-146456745D01*
X220606705Y-146405615D01*
X220723261Y-146318261D01*
X220810615Y-146201705D01*
X220861745Y-146065316D01*
X220868500Y-146003134D01*
X220868500Y-144856866D01*
X220861745Y-144794684D01*
X220836519Y-144727393D01*
X220813768Y-144666704D01*
X220813766Y-144666701D01*
X220810615Y-144658295D01*
X220805227Y-144651106D01*
X220805094Y-144650863D01*
X220789924Y-144581506D01*
X220795248Y-144553092D01*
X220811449Y-144500757D01*
X220852290Y-144368820D01*
X220860707Y-144288743D01*
X220872832Y-144173378D01*
X220872832Y-144173377D01*
X220873476Y-144167250D01*
X220855106Y-143965404D01*
X220848749Y-143943802D01*
X220799620Y-143776880D01*
X220797881Y-143770971D01*
X220770618Y-143718820D01*
X220747344Y-143674301D01*
X220703981Y-143591355D01*
X220704016Y-143591337D01*
X220684111Y-143525559D01*
X220699271Y-143464591D01*
X220776617Y-143321543D01*
X220792356Y-143292435D01*
X220822323Y-143195627D01*
X220850468Y-143104707D01*
X220850469Y-143104704D01*
X220852290Y-143098820D01*
X220872517Y-142906379D01*
X220872832Y-142903378D01*
X220872832Y-142903377D01*
X220873476Y-142897250D01*
X220855106Y-142695404D01*
X220797881Y-142500971D01*
X220793951Y-142493452D01*
X220738892Y-142388134D01*
X220703981Y-142321355D01*
X220698630Y-142314699D01*
X220628789Y-142227835D01*
X220576981Y-142163399D01*
X220421719Y-142033119D01*
X220416327Y-142030155D01*
X220416323Y-142030152D01*
X220340006Y-141988197D01*
X220308798Y-141971040D01*
X220258741Y-141920696D01*
X220243500Y-141860626D01*
X220243500Y-139819394D01*
X220263502Y-139751273D01*
X220297229Y-139716181D01*
X220449789Y-139609357D01*
X220449792Y-139609355D01*
X220454300Y-139606198D01*
X220616198Y-139444300D01*
X220624903Y-139431869D01*
X220725943Y-139287568D01*
X220747523Y-139256749D01*
X220749846Y-139251767D01*
X220749849Y-139251762D01*
X220841961Y-139054225D01*
X220841961Y-139054224D01*
X220844284Y-139049243D01*
X220850813Y-139024879D01*
X220902119Y-138833402D01*
X220902119Y-138833400D01*
X220903543Y-138828087D01*
X220923498Y-138600000D01*
X225916502Y-138600000D01*
X225936457Y-138828087D01*
X225937881Y-138833400D01*
X225937881Y-138833402D01*
X225989188Y-139024879D01*
X225995716Y-139049243D01*
X225998039Y-139054224D01*
X225998039Y-139054225D01*
X226090151Y-139251762D01*
X226090154Y-139251767D01*
X226092477Y-139256749D01*
X226114057Y-139287568D01*
X226215098Y-139431869D01*
X226223802Y-139444300D01*
X226385700Y-139606198D01*
X226390208Y-139609355D01*
X226390211Y-139609357D01*
X226468389Y-139664098D01*
X226573251Y-139737523D01*
X226578233Y-139739846D01*
X226578238Y-139739849D01*
X226748825Y-139819394D01*
X226780757Y-139834284D01*
X226786065Y-139835706D01*
X226786067Y-139835707D01*
X226996598Y-139892119D01*
X226996600Y-139892119D01*
X227001913Y-139893543D01*
X227230000Y-139913498D01*
X227458087Y-139893543D01*
X227463400Y-139892119D01*
X227463402Y-139892119D01*
X227673933Y-139835707D01*
X227673935Y-139835706D01*
X227679243Y-139834284D01*
X227711175Y-139819394D01*
X227881762Y-139739849D01*
X227881767Y-139739846D01*
X227886749Y-139737523D01*
X227991611Y-139664098D01*
X228069789Y-139609357D01*
X228069792Y-139609355D01*
X228074300Y-139606198D01*
X228236198Y-139444300D01*
X228244903Y-139431869D01*
X228345943Y-139287568D01*
X228367523Y-139256749D01*
X228369846Y-139251767D01*
X228369849Y-139251762D01*
X228461961Y-139054225D01*
X228461961Y-139054224D01*
X228464284Y-139049243D01*
X228470813Y-139024879D01*
X228522119Y-138833402D01*
X228522119Y-138833400D01*
X228523543Y-138828087D01*
X228543498Y-138600000D01*
X228523543Y-138371913D01*
X228522119Y-138366598D01*
X228465707Y-138156067D01*
X228465706Y-138156065D01*
X228464284Y-138150757D01*
X228461961Y-138145775D01*
X228369849Y-137948238D01*
X228369846Y-137948233D01*
X228367523Y-137943251D01*
X228247722Y-137772158D01*
X228239357Y-137760211D01*
X228239355Y-137760208D01*
X228236198Y-137755700D01*
X228074300Y-137593802D01*
X228069792Y-137590645D01*
X228069789Y-137590643D01*
X227917229Y-137483819D01*
X227872901Y-137428362D01*
X227863500Y-137380606D01*
X227863500Y-136429500D01*
X227883502Y-136361379D01*
X227937158Y-136314886D01*
X227989500Y-136303500D01*
X228028134Y-136303500D01*
X228090316Y-136296745D01*
X228226705Y-136245615D01*
X228343261Y-136158261D01*
X228430615Y-136041705D01*
X228481745Y-135905316D01*
X228488500Y-135843134D01*
X228488500Y-134696866D01*
X228481745Y-134634684D01*
X228452472Y-134556598D01*
X228433766Y-134506699D01*
X228433764Y-134506696D01*
X228430615Y-134498295D01*
X228425232Y-134491112D01*
X228424758Y-134490247D01*
X228409589Y-134420890D01*
X228414913Y-134392478D01*
X228452422Y-134271307D01*
X228452628Y-134257205D01*
X228445873Y-134254000D01*
X228141820Y-134254000D01*
X228105505Y-134247416D01*
X228105400Y-134247856D01*
X228097716Y-134246029D01*
X228090316Y-134243255D01*
X228028134Y-134236500D01*
X226431866Y-134236500D01*
X226369684Y-134243255D01*
X226362284Y-134246029D01*
X226354600Y-134247856D01*
X226354495Y-134247416D01*
X226318180Y-134254000D01*
X226021014Y-134254000D01*
X226007483Y-134257973D01*
X226006363Y-134265768D01*
X226040846Y-134382933D01*
X226041051Y-134383440D01*
X226041079Y-134383724D01*
X226042585Y-134388841D01*
X226041612Y-134389127D01*
X226048025Y-134454094D01*
X226034754Y-134491131D01*
X226029385Y-134498295D01*
X225978255Y-134634684D01*
X225971500Y-134696866D01*
X225971500Y-135843134D01*
X225978255Y-135905316D01*
X226029385Y-136041705D01*
X226116739Y-136158261D01*
X226233295Y-136245615D01*
X226369684Y-136296745D01*
X226431866Y-136303500D01*
X226470500Y-136303500D01*
X226538621Y-136323502D01*
X226585114Y-136377158D01*
X226596500Y-136429500D01*
X226596500Y-137380606D01*
X226576498Y-137448727D01*
X226542771Y-137483819D01*
X226390211Y-137590643D01*
X226390208Y-137590645D01*
X226385700Y-137593802D01*
X226223802Y-137755700D01*
X226220645Y-137760208D01*
X226220643Y-137760211D01*
X226212278Y-137772158D01*
X226092477Y-137943251D01*
X226090154Y-137948233D01*
X226090151Y-137948238D01*
X225998039Y-138145775D01*
X225995716Y-138150757D01*
X225994294Y-138156065D01*
X225994293Y-138156067D01*
X225937881Y-138366598D01*
X225936457Y-138371913D01*
X225916502Y-138600000D01*
X220923498Y-138600000D01*
X220903543Y-138371913D01*
X220902119Y-138366598D01*
X220845707Y-138156067D01*
X220845706Y-138156065D01*
X220844284Y-138150757D01*
X220841961Y-138145775D01*
X220749849Y-137948238D01*
X220749846Y-137948233D01*
X220747523Y-137943251D01*
X220627722Y-137772158D01*
X220619357Y-137760211D01*
X220619355Y-137760208D01*
X220616198Y-137755700D01*
X220454300Y-137593802D01*
X220449792Y-137590645D01*
X220449789Y-137590643D01*
X220314867Y-137496170D01*
X220266749Y-137462477D01*
X220261767Y-137460154D01*
X220261762Y-137460151D01*
X220064225Y-137368039D01*
X220064224Y-137368039D01*
X220059243Y-137365716D01*
X220053935Y-137364294D01*
X220053933Y-137364293D01*
X219843402Y-137307881D01*
X219843400Y-137307881D01*
X219838087Y-137306457D01*
X219610000Y-137286502D01*
X219381913Y-137306457D01*
X219376600Y-137307881D01*
X219376598Y-137307881D01*
X219166067Y-137364293D01*
X219166065Y-137364294D01*
X219160757Y-137365716D01*
X219155776Y-137368039D01*
X219155775Y-137368039D01*
X218958238Y-137460151D01*
X218958233Y-137460154D01*
X218953251Y-137462477D01*
X218905133Y-137496170D01*
X218770211Y-137590643D01*
X218770208Y-137590645D01*
X218765700Y-137593802D01*
X218603802Y-137755700D01*
X218600645Y-137760208D01*
X218600643Y-137760211D01*
X218493819Y-137912771D01*
X218438362Y-137957099D01*
X218390606Y-137966500D01*
X214844595Y-137966500D01*
X214776474Y-137946498D01*
X214755500Y-137929595D01*
X213930405Y-137104500D01*
X213896379Y-137042188D01*
X213893500Y-137015405D01*
X213893500Y-136429500D01*
X213913502Y-136361379D01*
X213967158Y-136314886D01*
X214019500Y-136303500D01*
X214058134Y-136303500D01*
X214120316Y-136296745D01*
X214256705Y-136245615D01*
X214373261Y-136158261D01*
X214460615Y-136041705D01*
X214511745Y-135905316D01*
X214518500Y-135843134D01*
X214518500Y-134696866D01*
X214511745Y-134634684D01*
X214486519Y-134567393D01*
X214463768Y-134506704D01*
X214463766Y-134506701D01*
X214460615Y-134498295D01*
X214455227Y-134491106D01*
X214455094Y-134490863D01*
X214439924Y-134421506D01*
X214445248Y-134393092D01*
X214446476Y-134389127D01*
X214502290Y-134208820D01*
X214510707Y-134128743D01*
X214522832Y-134013378D01*
X214522832Y-134013377D01*
X214523476Y-134007250D01*
X214505106Y-133805404D01*
X214498749Y-133783802D01*
X214449620Y-133616880D01*
X214447881Y-133610971D01*
X214444053Y-133603647D01*
X214400931Y-133521163D01*
X214353981Y-133431355D01*
X214354016Y-133431337D01*
X214334111Y-133365559D01*
X214349271Y-133304591D01*
X214415488Y-133182126D01*
X214442356Y-133132435D01*
X214487628Y-132986185D01*
X214500468Y-132944707D01*
X214500469Y-132944704D01*
X214502290Y-132938820D01*
X214510559Y-132860151D01*
X214522832Y-132743378D01*
X214522832Y-132743377D01*
X214523476Y-132737250D01*
X214514586Y-132639565D01*
X214505665Y-132541543D01*
X214505664Y-132541540D01*
X214505106Y-132535404D01*
X214486252Y-132471342D01*
X214449620Y-132346880D01*
X214447881Y-132340971D01*
X214443951Y-132333452D01*
X214356835Y-132166815D01*
X214353981Y-132161355D01*
X214348630Y-132154699D01*
X214296761Y-132090188D01*
X214226981Y-132003399D01*
X214071719Y-131873119D01*
X214066327Y-131870155D01*
X214066323Y-131870152D01*
X214001515Y-131834524D01*
X213958798Y-131811040D01*
X213908741Y-131760696D01*
X213893500Y-131700626D01*
X213893500Y-122039394D01*
X213913502Y-121971273D01*
X213947229Y-121936181D01*
X214099789Y-121829357D01*
X214099792Y-121829355D01*
X214104300Y-121826198D01*
X214266198Y-121664300D01*
X214397523Y-121476749D01*
X214399846Y-121471767D01*
X214399849Y-121471762D01*
X214491961Y-121274225D01*
X214491961Y-121274224D01*
X214494284Y-121269243D01*
X214499067Y-121251395D01*
X214552119Y-121053402D01*
X214552119Y-121053400D01*
X214553543Y-121048087D01*
X214573498Y-120820000D01*
X214553543Y-120591913D01*
X214552117Y-120586591D01*
X214495707Y-120376067D01*
X214495706Y-120376065D01*
X214494284Y-120370757D01*
X214491961Y-120365775D01*
X214399849Y-120168238D01*
X214399846Y-120168233D01*
X214397523Y-120163251D01*
X214266198Y-119975700D01*
X214104300Y-119813802D01*
X214099792Y-119810645D01*
X214099789Y-119810643D01*
X213947228Y-119703819D01*
X213916749Y-119682477D01*
X213911767Y-119680154D01*
X213911762Y-119680151D01*
X213714225Y-119588039D01*
X213714224Y-119588039D01*
X213709243Y-119585716D01*
X213703935Y-119584294D01*
X213703933Y-119584293D01*
X213493402Y-119527881D01*
X213493400Y-119527881D01*
X213488087Y-119526457D01*
X213260000Y-119506502D01*
X213031913Y-119526457D01*
X213026600Y-119527881D01*
X213026598Y-119527881D01*
X212816067Y-119584293D01*
X212816065Y-119584294D01*
X212810757Y-119585716D01*
X212805776Y-119588039D01*
X212805775Y-119588039D01*
X212608238Y-119680151D01*
X212608233Y-119680154D01*
X212603251Y-119682477D01*
X212572772Y-119703819D01*
X212420211Y-119810643D01*
X212420208Y-119810645D01*
X212415700Y-119813802D01*
X212253802Y-119975700D01*
X212122477Y-120163251D01*
X212120154Y-120168233D01*
X212120151Y-120168238D01*
X212028039Y-120365775D01*
X212025716Y-120370757D01*
X212024294Y-120376065D01*
X212024293Y-120376067D01*
X211967883Y-120586591D01*
X211966457Y-120591913D01*
X211946502Y-120820000D01*
X211966457Y-121048087D01*
X211967881Y-121053400D01*
X211967881Y-121053402D01*
X212020934Y-121251395D01*
X212025716Y-121269243D01*
X212028039Y-121274224D01*
X212028039Y-121274225D01*
X212120151Y-121471762D01*
X212120154Y-121471767D01*
X212122477Y-121476749D01*
X212253802Y-121664300D01*
X212415700Y-121826198D01*
X212420208Y-121829355D01*
X212420211Y-121829357D01*
X212572771Y-121936181D01*
X212617099Y-121991638D01*
X212626500Y-122039394D01*
X212626500Y-131700933D01*
X212606498Y-131769054D01*
X212559654Y-131812184D01*
X212460302Y-131865010D01*
X212303237Y-131993110D01*
X212299310Y-131997857D01*
X212299308Y-131997859D01*
X212177973Y-132144528D01*
X212177971Y-132144531D01*
X212174044Y-132149278D01*
X212077644Y-132327565D01*
X212075015Y-132336058D01*
X212020812Y-132511160D01*
X212017710Y-132521180D01*
X212017066Y-132527305D01*
X212017066Y-132527306D01*
X212014527Y-132551464D01*
X211996524Y-132722750D01*
X212000305Y-132764293D01*
X212009241Y-132862477D01*
X212014894Y-132924596D01*
X212016632Y-132930502D01*
X212016633Y-132930506D01*
X212036409Y-132997699D01*
X212072119Y-133119029D01*
X212074973Y-133124489D01*
X212074975Y-133124493D01*
X212105104Y-133182126D01*
X212118938Y-133251762D01*
X212092927Y-133317822D01*
X212035331Y-133359333D01*
X211993442Y-133366500D01*
X206959394Y-133366500D01*
X206891273Y-133346498D01*
X206856181Y-133312771D01*
X206749357Y-133160211D01*
X206749355Y-133160208D01*
X206746198Y-133155700D01*
X206584300Y-132993802D01*
X206579792Y-132990645D01*
X206579789Y-132990643D01*
X206476696Y-132918457D01*
X206396749Y-132862477D01*
X206391767Y-132860154D01*
X206391762Y-132860151D01*
X206194225Y-132768039D01*
X206194224Y-132768039D01*
X206189243Y-132765716D01*
X206183935Y-132764294D01*
X206183933Y-132764293D01*
X205973402Y-132707881D01*
X205973400Y-132707881D01*
X205968087Y-132706457D01*
X205740000Y-132686502D01*
X205511913Y-132706457D01*
X205506600Y-132707881D01*
X205506598Y-132707881D01*
X205296067Y-132764293D01*
X205296065Y-132764294D01*
X205290757Y-132765716D01*
X205285776Y-132768039D01*
X205285775Y-132768039D01*
X205088238Y-132860151D01*
X205088233Y-132860154D01*
X205083251Y-132862477D01*
X205003304Y-132918457D01*
X204900211Y-132990643D01*
X204900208Y-132990645D01*
X204895700Y-132993802D01*
X204733802Y-133155700D01*
X204730645Y-133160208D01*
X204730643Y-133160211D01*
X204715298Y-133182126D01*
X204602477Y-133343251D01*
X204600154Y-133348233D01*
X204600151Y-133348238D01*
X204531036Y-133496457D01*
X204505716Y-133550757D01*
X204504294Y-133556065D01*
X204504293Y-133556067D01*
X204448792Y-133763199D01*
X204446457Y-133771913D01*
X204426502Y-134000000D01*
X204446457Y-134228087D01*
X204447881Y-134233400D01*
X204447881Y-134233402D01*
X204478802Y-134348798D01*
X204505716Y-134449243D01*
X204508039Y-134454224D01*
X204508039Y-134454225D01*
X204600151Y-134651762D01*
X204600154Y-134651767D01*
X204602477Y-134656749D01*
X204645243Y-134717825D01*
X204725504Y-134832449D01*
X204733802Y-134844300D01*
X204895700Y-135006198D01*
X204900208Y-135009355D01*
X204900211Y-135009357D01*
X205052771Y-135116181D01*
X205097099Y-135171638D01*
X205106500Y-135219394D01*
X205106500Y-137380606D01*
X205086498Y-137448727D01*
X205052771Y-137483819D01*
X204900211Y-137590643D01*
X204900208Y-137590645D01*
X204895700Y-137593802D01*
X204733802Y-137755700D01*
X204730645Y-137760208D01*
X204730643Y-137760211D01*
X204722278Y-137772158D01*
X204602477Y-137943251D01*
X204600154Y-137948233D01*
X204600151Y-137948238D01*
X204508039Y-138145775D01*
X204505716Y-138150757D01*
X204504294Y-138156065D01*
X204504293Y-138156067D01*
X204447881Y-138366598D01*
X204446457Y-138371913D01*
X204426502Y-138600000D01*
X193083422Y-138600000D01*
X193172700Y-138461202D01*
X193177147Y-138453011D01*
X193277572Y-138230076D01*
X193280767Y-138221298D01*
X193347135Y-137985973D01*
X193348993Y-137976844D01*
X193380044Y-137732770D01*
X193380525Y-137726483D01*
X193382706Y-137643160D01*
X193382555Y-137636851D01*
X193364321Y-137391486D01*
X193362944Y-137382280D01*
X193308979Y-137143786D01*
X193306255Y-137134875D01*
X193217633Y-136906983D01*
X193213619Y-136898567D01*
X193092284Y-136686276D01*
X193087074Y-136678553D01*
X193055787Y-136638865D01*
X193043863Y-136630395D01*
X193032328Y-136636882D01*
X192042022Y-137627188D01*
X192034408Y-137641132D01*
X191304356Y-137641132D01*
X191305592Y-137638868D01*
X191305461Y-137637035D01*
X191301210Y-137630420D01*
X190306828Y-136636038D01*
X190293520Y-136628771D01*
X190283481Y-136635893D01*
X190278581Y-136641784D01*
X190273168Y-136649373D01*
X190146322Y-136858409D01*
X190142084Y-136866726D01*
X190047529Y-137092214D01*
X190044572Y-137101052D01*
X189984384Y-137338042D01*
X189982763Y-137347232D01*
X189958267Y-137590510D01*
X189958022Y-137599835D01*
X187198500Y-137599835D01*
X187198500Y-111814568D01*
X187667382Y-111814568D01*
X187696208Y-112063699D01*
X187697587Y-112068573D01*
X187697588Y-112068577D01*
X187747646Y-112245477D01*
X187764494Y-112305017D01*
X187766628Y-112309592D01*
X187766630Y-112309599D01*
X187845250Y-112478199D01*
X187870484Y-112532313D01*
X187873326Y-112536494D01*
X187873326Y-112536495D01*
X188008605Y-112735552D01*
X188008608Y-112735556D01*
X188011451Y-112739739D01*
X188014928Y-112743416D01*
X188014929Y-112743417D01*
X188115238Y-112849491D01*
X188183767Y-112921959D01*
X188187793Y-112925037D01*
X188187794Y-112925038D01*
X188378981Y-113071212D01*
X188378985Y-113071215D01*
X188383001Y-113074285D01*
X188604026Y-113192797D01*
X188608807Y-113194443D01*
X188608811Y-113194445D01*
X188757013Y-113245475D01*
X188841156Y-113274448D01*
X188944689Y-113292331D01*
X189084380Y-113316460D01*
X189084386Y-113316461D01*
X189088290Y-113317135D01*
X189092251Y-113317315D01*
X189092252Y-113317315D01*
X189116931Y-113318436D01*
X189116950Y-113318436D01*
X189118350Y-113318500D01*
X189293015Y-113318500D01*
X189295523Y-113318298D01*
X189295528Y-113318298D01*
X189474944Y-113303863D01*
X189474949Y-113303862D01*
X189479985Y-113303457D01*
X189484893Y-113302252D01*
X189484896Y-113302251D01*
X189718625Y-113244841D01*
X189723539Y-113243634D01*
X189728191Y-113241659D01*
X189728195Y-113241658D01*
X189949741Y-113147617D01*
X189949742Y-113147617D01*
X189954396Y-113145641D01*
X190166615Y-113012000D01*
X190354738Y-112846147D01*
X190513924Y-112652351D01*
X190640078Y-112435596D01*
X190672244Y-112351803D01*
X190728143Y-112206181D01*
X190729955Y-112201461D01*
X190731556Y-112193802D01*
X190780206Y-111960921D01*
X190781241Y-111955967D01*
X190781609Y-111947881D01*
X190787662Y-111814568D01*
X260057382Y-111814568D01*
X260086208Y-112063699D01*
X260087587Y-112068573D01*
X260087588Y-112068577D01*
X260137646Y-112245477D01*
X260154494Y-112305017D01*
X260156628Y-112309592D01*
X260156630Y-112309599D01*
X260235250Y-112478199D01*
X260260484Y-112532313D01*
X260263326Y-112536494D01*
X260263326Y-112536495D01*
X260398605Y-112735552D01*
X260398608Y-112735556D01*
X260401451Y-112739739D01*
X260404928Y-112743416D01*
X260404929Y-112743417D01*
X260505238Y-112849491D01*
X260573767Y-112921959D01*
X260577793Y-112925037D01*
X260577794Y-112925038D01*
X260768981Y-113071212D01*
X260768985Y-113071215D01*
X260773001Y-113074285D01*
X260994026Y-113192797D01*
X260998807Y-113194443D01*
X260998811Y-113194445D01*
X261147013Y-113245475D01*
X261231156Y-113274448D01*
X261334689Y-113292331D01*
X261474380Y-113316460D01*
X261474386Y-113316461D01*
X261478290Y-113317135D01*
X261482251Y-113317315D01*
X261482252Y-113317315D01*
X261506931Y-113318436D01*
X261506950Y-113318436D01*
X261508350Y-113318500D01*
X261683015Y-113318500D01*
X261685523Y-113318298D01*
X261685528Y-113318298D01*
X261864944Y-113303863D01*
X261864949Y-113303862D01*
X261869985Y-113303457D01*
X261874893Y-113302252D01*
X261874896Y-113302251D01*
X262108625Y-113244841D01*
X262113539Y-113243634D01*
X262118191Y-113241659D01*
X262118195Y-113241658D01*
X262339741Y-113147617D01*
X262339742Y-113147617D01*
X262344396Y-113145641D01*
X262556615Y-113012000D01*
X262744738Y-112846147D01*
X262903924Y-112652351D01*
X263030078Y-112435596D01*
X263062244Y-112351803D01*
X263118143Y-112206181D01*
X263119955Y-112201461D01*
X263121556Y-112193802D01*
X263170206Y-111960921D01*
X263171241Y-111955967D01*
X263171609Y-111947881D01*
X263177662Y-111814568D01*
X263182618Y-111705432D01*
X263153792Y-111456301D01*
X263114810Y-111318539D01*
X263086884Y-111219852D01*
X263086883Y-111219850D01*
X263085506Y-111214983D01*
X263083372Y-111210408D01*
X263083370Y-111210401D01*
X262981653Y-110992269D01*
X262981651Y-110992265D01*
X262979516Y-110987687D01*
X262976674Y-110983505D01*
X262841395Y-110784448D01*
X262841392Y-110784444D01*
X262838549Y-110780261D01*
X262737925Y-110673853D01*
X262669713Y-110601721D01*
X262666233Y-110598041D01*
X262662206Y-110594962D01*
X262471019Y-110448788D01*
X262471015Y-110448785D01*
X262466999Y-110445715D01*
X262245974Y-110327203D01*
X262241193Y-110325557D01*
X262241189Y-110325555D01*
X262013633Y-110247201D01*
X262008844Y-110245552D01*
X261905311Y-110227669D01*
X261765620Y-110203540D01*
X261765614Y-110203539D01*
X261761710Y-110202865D01*
X261757749Y-110202685D01*
X261757748Y-110202685D01*
X261733069Y-110201564D01*
X261733050Y-110201564D01*
X261731650Y-110201500D01*
X261556985Y-110201500D01*
X261554477Y-110201702D01*
X261554472Y-110201702D01*
X261375056Y-110216137D01*
X261375051Y-110216138D01*
X261370015Y-110216543D01*
X261365107Y-110217748D01*
X261365104Y-110217749D01*
X261133326Y-110274680D01*
X261126461Y-110276366D01*
X261121809Y-110278341D01*
X261121805Y-110278342D01*
X261001061Y-110329595D01*
X260895604Y-110374359D01*
X260683385Y-110508000D01*
X260495262Y-110673853D01*
X260336076Y-110867649D01*
X260209922Y-111084404D01*
X260120045Y-111318539D01*
X260068759Y-111564033D01*
X260057382Y-111814568D01*
X190787662Y-111814568D01*
X190792618Y-111705432D01*
X190763792Y-111456301D01*
X190724810Y-111318539D01*
X190696884Y-111219852D01*
X190696883Y-111219850D01*
X190695506Y-111214983D01*
X190693372Y-111210408D01*
X190693370Y-111210401D01*
X190591653Y-110992269D01*
X190591651Y-110992265D01*
X190589516Y-110987687D01*
X190586674Y-110983505D01*
X190451395Y-110784448D01*
X190451392Y-110784444D01*
X190448549Y-110780261D01*
X190347925Y-110673853D01*
X190279713Y-110601721D01*
X190276233Y-110598041D01*
X190272206Y-110594962D01*
X190081019Y-110448788D01*
X190081015Y-110448785D01*
X190076999Y-110445715D01*
X189855974Y-110327203D01*
X189851193Y-110325557D01*
X189851189Y-110325555D01*
X189623633Y-110247201D01*
X189618844Y-110245552D01*
X189515311Y-110227669D01*
X189375620Y-110203540D01*
X189375614Y-110203539D01*
X189371710Y-110202865D01*
X189367749Y-110202685D01*
X189367748Y-110202685D01*
X189343069Y-110201564D01*
X189343050Y-110201564D01*
X189341650Y-110201500D01*
X189166985Y-110201500D01*
X189164477Y-110201702D01*
X189164472Y-110201702D01*
X188985056Y-110216137D01*
X188985051Y-110216138D01*
X188980015Y-110216543D01*
X188975107Y-110217748D01*
X188975104Y-110217749D01*
X188743326Y-110274680D01*
X188736461Y-110276366D01*
X188731809Y-110278341D01*
X188731805Y-110278342D01*
X188611061Y-110329595D01*
X188505604Y-110374359D01*
X188293385Y-110508000D01*
X188105262Y-110673853D01*
X187946076Y-110867649D01*
X187819922Y-111084404D01*
X187730045Y-111318539D01*
X187678759Y-111564033D01*
X187667382Y-111814568D01*
X187198500Y-111814568D01*
X187198500Y-109854500D01*
X187218502Y-109786379D01*
X187272158Y-109739886D01*
X187324500Y-109728500D01*
X263525500Y-109728500D01*
X263593621Y-109748502D01*
G37*
%TD.AperFunction*%
%TD*%
M02*
