%TF.GenerationSoftware,KiCad,Pcbnew,(6.0.7)*%
%TF.CreationDate,2023-05-14T18:18:18-04:00*%
%TF.ProjectId,12V_Plus_Minus_5MHz_Amplifier,3132565f-506c-4757-935f-4d696e75735f,rev?*%
%TF.SameCoordinates,Original*%
%TF.FileFunction,Soldermask,Top*%
%TF.FilePolarity,Negative*%
%FSLAX46Y46*%
G04 Gerber Fmt 4.6, Leading zero omitted, Abs format (unit mm)*
G04 Created by KiCad (PCBNEW (6.0.7)) date 2023-05-14 18:18:18*
%MOMM*%
%LPD*%
G01*
G04 APERTURE LIST*
%ADD10R,2.400000X2.400000*%
%ADD11C,2.400000*%
%ADD12C,2.100000*%
%ADD13O,1.600000X1.600000*%
%ADD14C,1.600000*%
%ADD15R,1.500000X1.050000*%
%ADD16O,1.500000X1.050000*%
%ADD17C,1.200000*%
G04 APERTURE END LIST*
D10*
%TO.C,J1*%
X191670000Y-141140000D03*
D11*
X191670000Y-137640000D03*
X191670000Y-134140000D03*
X191670000Y-130640000D03*
%TD*%
D12*
%TO.C,H4*%
X261620000Y-157480000D03*
%TD*%
%TO.C,H3*%
X189230000Y-157480000D03*
%TD*%
%TO.C,H2*%
X261620000Y-111760000D03*
%TD*%
%TO.C,H1*%
X189230000Y-111760000D03*
%TD*%
D13*
%TO.C,R7*%
X227230000Y-138600000D03*
D14*
X219610000Y-138600000D03*
%TD*%
D15*
%TO.C,Q7*%
X252730000Y-115740000D03*
D16*
X252730000Y-114470000D03*
X252730000Y-113200000D03*
%TD*%
D13*
%TO.C,R9*%
X231040000Y-156380000D03*
D14*
X231040000Y-148760000D03*
%TD*%
%TO.C,R13*%
X252730000Y-141140000D03*
D13*
X252730000Y-148760000D03*
%TD*%
D14*
%TO.C,C2*%
X200660000Y-118240000D03*
X200660000Y-113240000D03*
%TD*%
%TO.C,C3*%
X193040000Y-152570000D03*
X193040000Y-154570000D03*
%TD*%
D13*
%TO.C,R3*%
X213260000Y-120820000D03*
D14*
X213260000Y-113200000D03*
%TD*%
D15*
%TO.C,Q8*%
X252730000Y-153840000D03*
D16*
X252730000Y-155110000D03*
X252730000Y-156380000D03*
%TD*%
D13*
%TO.C,R1*%
X205740000Y-134000000D03*
D14*
X198120000Y-134000000D03*
%TD*%
%TO.C,C4*%
X200660000Y-151380000D03*
X200660000Y-156380000D03*
%TD*%
%TO.C,C1*%
X193040000Y-114470000D03*
X193040000Y-116470000D03*
%TD*%
D13*
%TO.C,R15*%
X260350000Y-146220000D03*
D14*
X260350000Y-138600000D03*
%TD*%
%TO.C,R14*%
X252730000Y-134790000D03*
D13*
X260350000Y-134790000D03*
%TD*%
%TO.C,R4*%
X209450000Y-152570000D03*
D14*
X209450000Y-144950000D03*
%TD*%
%TO.C,R12*%
X252730000Y-120820000D03*
D13*
X252730000Y-128440000D03*
%TD*%
D16*
%TO.C,Q4*%
X231140000Y-127000000D03*
X231140000Y-125730000D03*
D15*
X231140000Y-124460000D03*
%TD*%
%TO.C,Q6*%
X243840000Y-142240000D03*
D16*
X243840000Y-143510000D03*
X243840000Y-144780000D03*
%TD*%
%TO.C,Q3*%
X227230000Y-132730000D03*
X227230000Y-134000000D03*
D15*
X227230000Y-135270000D03*
%TD*%
D16*
%TO.C,Q5*%
X243840000Y-124460000D03*
X243840000Y-125730000D03*
D15*
X243840000Y-127000000D03*
%TD*%
D13*
%TO.C,R5*%
X214530000Y-156380000D03*
D14*
X214530000Y-148760000D03*
%TD*%
D17*
%TO.C,C5*%
X237490000Y-118510000D03*
X237490000Y-117010000D03*
%TD*%
D14*
%TO.C,R10*%
X243840000Y-113200000D03*
D13*
X243840000Y-120820000D03*
%TD*%
%TO.C,R2*%
X205740000Y-146220000D03*
D14*
X205740000Y-138600000D03*
%TD*%
D16*
%TO.C,Q2*%
X219610000Y-142890000D03*
X219610000Y-144160000D03*
D15*
X219610000Y-145430000D03*
%TD*%
D14*
%TO.C,R11*%
X243840000Y-148760000D03*
D13*
X243840000Y-156380000D03*
%TD*%
D16*
%TO.C,Q1*%
X213260000Y-132730000D03*
X213260000Y-134000000D03*
D15*
X213260000Y-135270000D03*
%TD*%
D13*
%TO.C,R6*%
X219610000Y-156380000D03*
D14*
X219610000Y-148760000D03*
%TD*%
D13*
%TO.C,R8*%
X231040000Y-120820000D03*
D14*
X231040000Y-113200000D03*
%TD*%
M02*
