M48
; DRILL file {KiCad (6.0.7)} date Sun May 14 18:18:06 2023
; FORMAT={-:-/ absolute / metric / decimal}
; #@! TF.CreationDate,2023-05-14T18:18:06-04:00
; #@! TF.GenerationSoftware,Kicad,Pcbnew,(6.0.7)
; #@! TF.FileFunction,MixedPlating,1,2
FMAT,2
METRIC
; #@! TA.AperFunction,Plated,PTH,ComponentDrill
T1C0.600
; #@! TA.AperFunction,Plated,PTH,ComponentDrill
T2C0.750
; #@! TA.AperFunction,Plated,PTH,ComponentDrill
T3C0.800
; #@! TA.AperFunction,Plated,PTH,ComponentDrill
T4C1.200
; #@! TA.AperFunction,NonPlated,NPTH,ComponentDrill
T5C2.100
%
G90
G05
T1
X237.49Y-117.01
X237.49Y-118.51
T2
X213.26Y-132.73
X213.26Y-134.0
X213.26Y-135.27
X219.61Y-142.89
X219.61Y-144.16
X219.61Y-145.43
X227.23Y-132.73
X227.23Y-134.0
X227.23Y-135.27
X231.14Y-124.46
X231.14Y-125.73
X231.14Y-127.0
X243.84Y-124.46
X243.84Y-125.73
X243.84Y-127.0
X243.84Y-142.24
X243.84Y-143.51
X243.84Y-144.78
X252.73Y-113.2
X252.73Y-114.47
X252.73Y-115.74
X252.73Y-153.84
X252.73Y-155.11
X252.73Y-156.38
T3
X193.04Y-114.47
X193.04Y-116.47
X193.04Y-152.57
X193.04Y-154.57
X198.12Y-134.0
X200.66Y-113.24
X200.66Y-118.24
X200.66Y-151.38
X200.66Y-156.38
X205.74Y-134.0
X205.74Y-138.6
X205.74Y-146.22
X209.45Y-144.95
X209.45Y-152.57
X213.26Y-113.2
X213.26Y-120.82
X214.53Y-148.76
X214.53Y-156.38
X219.61Y-138.6
X219.61Y-148.76
X219.61Y-156.38
X227.23Y-138.6
X231.04Y-113.2
X231.04Y-120.82
X231.04Y-148.76
X231.04Y-156.38
X243.84Y-113.2
X243.84Y-120.82
X243.84Y-148.76
X243.84Y-156.38
X252.73Y-120.82
X252.73Y-128.44
X252.73Y-134.79
X252.73Y-141.14
X252.73Y-148.76
X260.35Y-134.79
X260.35Y-138.6
X260.35Y-146.22
T4
X191.67Y-130.64
X191.67Y-134.14
X191.67Y-137.64
X191.67Y-141.14
T5
X189.23Y-111.76
X189.23Y-157.48
X261.62Y-111.76
X261.62Y-157.48
T0
M30
